<ttFont>
    <TTGlyph name="A" xMin="-29" yMin="-48" xMax="933" yMax="710">
      <contour>
        <pt x="119" y="-48" on="1"/>
        <pt x="61" y="-48" on="0"/>
        <pt x="-29" y="30" on="0"/>
        <pt x="-29" y="93" on="1"/>
        <pt x="-29" y="186" on="0"/>
        <pt x="68" y="270" on="1"/>
        <pt x="115" y="311" on="0"/>
        <pt x="268" y="366" on="0"/>
        <pt x="361" y="371" on="1"/>
        <pt x="397" y="462" on="0"/>
        <pt x="453" y="648" on="1"/>
        <pt x="454" y="652" on="0"/>
        <pt x="454" y="673" on="0"/>
        <pt x="444" y="680" on="1"/>
        <pt x="444" y="694" on="1"/>
        <pt x="538" y="710" on="0"/>
        <pt x="623" y="710" on="1"/>
        <pt x="699" y="706" on="1"/>
        <pt x="709" y="696" on="0"/>
        <pt x="729" y="627" on="0"/>
        <pt x="735" y="513" on="0"/>
        <pt x="736" y="307" on="1"/>
        <pt x="846" y="264" on="0"/>
        <pt x="933" y="203" on="1"/>
        <pt x="928" y="184" on="0"/>
        <pt x="893" y="146" on="0"/>
        <pt x="878" y="136" on="1"/>
        <pt x="864" y="127" on="1"/>
        <pt x="810" y="179" on="0"/>
        <pt x="737" y="220" on="1"/>
        <pt x="742" y="80" on="0"/>
        <pt x="775" y="80" on="1"/>
        <pt x="786" y="80" on="0"/>
        <pt x="799" y="85" on="1"/>
        <pt x="823" y="30" on="1"/>
        <pt x="751" y="-12" on="0"/>
        <pt x="672" y="-12" on="1"/>
        <pt x="546" y="-12" on="0"/>
        <pt x="546" y="139" on="1"/>
        <pt x="546" y="282" on="1"/>
        <pt x="487" y="294" on="0"/>
        <pt x="431" y="297" on="1"/>
        <pt x="372" y="145" on="0"/>
        <pt x="306" y="56" on="1"/>
        <pt x="229" y="-48" on="0"/>
      </contour>
      <contour>
        <pt x="83" y="99" on="1"/>
        <pt x="83" y="74" on="0"/>
        <pt x="107" y="40" on="0"/>
        <pt x="131" y="40" on="1"/>
        <pt x="166" y="40" on="0"/>
        <pt x="240" y="125" on="0"/>
        <pt x="313" y="261" on="0"/>
        <pt x="329" y="296" on="1"/>
        <pt x="211" y="282" on="0"/>
        <pt x="83" y="160" on="0"/>
      </contour>
      <contour>
        <pt x="546" y="403" on="1"/>
        <pt x="546" y="567" on="0"/>
        <pt x="537" y="605" on="1"/>
        <pt x="536" y="606" on="0"/>
        <pt x="526" y="606" on="0"/>
        <pt x="525" y="605" on="1"/>
        <pt x="523" y="563" on="0"/>
        <pt x="457" y="370" on="1"/>
        <pt x="496" y="367" on="0"/>
        <pt x="546" y="359" on="1"/>
      </contour>
    </TTGlyph>
    <TTGlyph name="AE" xMin="-29" yMin="-48" xMax="1006" yMax="710">
      <contour>
        <pt x="738" y="299" on="1"/>
        <pt x="739" y="254" on="1"/>
        <pt x="741" y="153" on="0"/>
        <pt x="769" y="70" on="0"/>
        <pt x="815" y="70" on="1"/>
        <pt x="879" y="70" on="0"/>
        <pt x="957" y="144" on="1"/>
        <pt x="1006" y="98" on="1"/>
        <pt x="951" y="34" on="0"/>
        <pt x="784" y="-48" on="0"/>
        <pt x="703" y="-48" on="1"/>
        <pt x="622" y="-48" on="0"/>
        <pt x="582" y="2" on="1"/>
        <pt x="550" y="44" on="0"/>
        <pt x="543" y="143" on="1"/>
        <pt x="540" y="183" on="0"/>
        <pt x="540" y="243" on="1"/>
        <pt x="540" y="316" on="1"/>
        <pt x="506" y="319" on="0"/>
        <pt x="464" y="319" on="0"/>
        <pt x="436" y="317" on="1"/>
        <pt x="299" y="-48" on="0"/>
        <pt x="126" y="-48" on="1"/>
        <pt x="68" y="-48" on="0"/>
        <pt x="-29" y="26" on="0"/>
        <pt x="-29" y="98" on="1"/>
        <pt x="-29" y="202" on="0"/>
        <pt x="181" y="361" on="0"/>
        <pt x="361" y="385" on="1"/>
        <pt x="405" y="502" on="0"/>
        <pt x="448" y="648" on="1"/>
        <pt x="449" y="652" on="0"/>
        <pt x="449" y="673" on="0"/>
        <pt x="439" y="680" on="1"/>
        <pt x="439" y="694" on="1"/>
        <pt x="537" y="710" on="0"/>
        <pt x="626" y="710" on="1"/>
        <pt x="646" y="710" on="1"/>
        <pt x="845" y="706" on="1"/>
        <pt x="908" y="706" on="0"/>
        <pt x="960" y="710" on="1"/>
        <pt x="963" y="681" on="0"/>
        <pt x="963" y="650" on="1"/>
        <pt x="963" y="577" on="0"/>
        <pt x="912" y="577" on="1"/>
        <pt x="900" y="577" on="0"/>
        <pt x="786" y="594" on="0"/>
        <pt x="749" y="594" on="0"/>
        <pt x="735" y="592" on="1"/>
        <pt x="735" y="571" on="0"/>
        <pt x="737" y="385" on="1"/>
        <pt x="836" y="377" on="0"/>
        <pt x="933" y="357" on="1"/>
        <pt x="937" y="325" on="0"/>
        <pt x="914" y="277" on="0"/>
        <pt x="907" y="269" on="1"/>
        <pt x="900" y="261" on="1"/>
        <pt x="827" y="288" on="0"/>
      </contour>
      <contour>
        <pt x="83" y="103" on="1"/>
        <pt x="83" y="77" on="0"/>
        <pt x="110" y="40" on="0"/>
        <pt x="132" y="40" on="1"/>
        <pt x="175" y="40" on="0"/>
        <pt x="278" y="189" on="0"/>
        <pt x="328" y="304" on="1"/>
        <pt x="214" y="280" on="0"/>
        <pt x="83" y="168" on="0"/>
      </contour>
      <contour>
        <pt x="532" y="606" on="0"/>
        <pt x="522" y="606" on="0"/>
        <pt x="521" y="605" on="1"/>
        <pt x="522" y="597" on="0"/>
        <pt x="485" y="463" on="0"/>
        <pt x="462" y="392" on="1"/>
        <pt x="472" y="393" on="0"/>
        <pt x="524" y="393" on="0"/>
        <pt x="541" y="392" on="1"/>
        <pt x="543" y="468" on="1"/>
        <pt x="541" y="573" on="0"/>
        <pt x="534" y="605" on="1"/>
      </contour>
    </TTGlyph>
    <TTGlyph name="Aacute" xMin="-29" yMin="-48" xMax="933" yMax="974">
      <contour>
        <pt x="119" y="-48" on="1"/>
        <pt x="61" y="-48" on="0"/>
        <pt x="-29" y="30" on="0"/>
        <pt x="-29" y="93" on="1"/>
        <pt x="-29" y="186" on="0"/>
        <pt x="68" y="270" on="1"/>
        <pt x="115" y="311" on="0"/>
        <pt x="268" y="366" on="0"/>
        <pt x="361" y="371" on="1"/>
        <pt x="397" y="462" on="0"/>
        <pt x="453" y="648" on="1"/>
        <pt x="454" y="652" on="0"/>
        <pt x="454" y="673" on="0"/>
        <pt x="444" y="680" on="1"/>
        <pt x="444" y="694" on="1"/>
        <pt x="538" y="710" on="0"/>
        <pt x="623" y="710" on="1"/>
        <pt x="699" y="706" on="1"/>
        <pt x="709" y="696" on="0"/>
        <pt x="729" y="627" on="0"/>
        <pt x="735" y="513" on="0"/>
        <pt x="736" y="307" on="1"/>
        <pt x="846" y="264" on="0"/>
        <pt x="933" y="203" on="1"/>
        <pt x="928" y="184" on="0"/>
        <pt x="893" y="146" on="0"/>
        <pt x="878" y="136" on="1"/>
        <pt x="864" y="127" on="1"/>
        <pt x="810" y="179" on="0"/>
        <pt x="737" y="220" on="1"/>
        <pt x="742" y="80" on="0"/>
        <pt x="775" y="80" on="1"/>
        <pt x="786" y="80" on="0"/>
        <pt x="799" y="85" on="1"/>
        <pt x="823" y="30" on="1"/>
        <pt x="751" y="-12" on="0"/>
        <pt x="672" y="-12" on="1"/>
        <pt x="546" y="-12" on="0"/>
        <pt x="546" y="139" on="1"/>
        <pt x="546" y="282" on="1"/>
        <pt x="487" y="294" on="0"/>
        <pt x="431" y="297" on="1"/>
        <pt x="372" y="145" on="0"/>
        <pt x="306" y="56" on="1"/>
        <pt x="229" y="-48" on="0"/>
      </contour>
      <contour>
        <pt x="83" y="99" on="1"/>
        <pt x="83" y="74" on="0"/>
        <pt x="107" y="40" on="0"/>
        <pt x="131" y="40" on="1"/>
        <pt x="166" y="40" on="0"/>
        <pt x="240" y="125" on="0"/>
        <pt x="313" y="261" on="0"/>
        <pt x="329" y="296" on="1"/>
        <pt x="211" y="282" on="0"/>
        <pt x="83" y="160" on="0"/>
      </contour>
      <contour>
        <pt x="716" y="881" on="1"/>
        <pt x="716" y="846" on="0"/>
        <pt x="679" y="830" on="1"/>
        <pt x="623" y="804" on="0"/>
        <pt x="419" y="768" on="1"/>
        <pt x="402" y="818" on="1"/>
        <pt x="525" y="878" on="0"/>
        <pt x="676" y="974" on="1"/>
        <pt x="687" y="959" on="0"/>
        <pt x="716" y="895" on="0"/>
      </contour>
      <contour>
        <pt x="546" y="403" on="1"/>
        <pt x="546" y="567" on="0"/>
        <pt x="537" y="605" on="1"/>
        <pt x="536" y="606" on="0"/>
        <pt x="526" y="606" on="0"/>
        <pt x="525" y="605" on="1"/>
        <pt x="523" y="563" on="0"/>
        <pt x="457" y="370" on="1"/>
        <pt x="496" y="367" on="0"/>
        <pt x="546" y="359" on="1"/>
      </contour>
    </TTGlyph>
    <TTGlyph name="Acircumflex" xMin="-29" yMin="-48" xMax="933" yMax="971">
      <contour>
        <pt x="119" y="-48" on="1"/>
        <pt x="61" y="-48" on="0"/>
        <pt x="-29" y="30" on="0"/>
        <pt x="-29" y="93" on="1"/>
        <pt x="-29" y="186" on="0"/>
        <pt x="68" y="270" on="1"/>
        <pt x="115" y="311" on="0"/>
        <pt x="268" y="366" on="0"/>
        <pt x="361" y="371" on="1"/>
        <pt x="397" y="462" on="0"/>
        <pt x="453" y="648" on="1"/>
        <pt x="454" y="652" on="0"/>
        <pt x="454" y="673" on="0"/>
        <pt x="444" y="680" on="1"/>
        <pt x="444" y="694" on="1"/>
        <pt x="538" y="710" on="0"/>
        <pt x="623" y="710" on="1"/>
        <pt x="699" y="706" on="1"/>
        <pt x="709" y="696" on="0"/>
        <pt x="729" y="627" on="0"/>
        <pt x="735" y="513" on="0"/>
        <pt x="736" y="307" on="1"/>
        <pt x="846" y="264" on="0"/>
        <pt x="933" y="203" on="1"/>
        <pt x="928" y="184" on="0"/>
        <pt x="893" y="146" on="0"/>
        <pt x="878" y="136" on="1"/>
        <pt x="864" y="127" on="1"/>
        <pt x="810" y="179" on="0"/>
        <pt x="737" y="220" on="1"/>
        <pt x="742" y="80" on="0"/>
        <pt x="775" y="80" on="1"/>
        <pt x="786" y="80" on="0"/>
        <pt x="799" y="85" on="1"/>
        <pt x="823" y="30" on="1"/>
        <pt x="751" y="-12" on="0"/>
        <pt x="672" y="-12" on="1"/>
        <pt x="546" y="-12" on="0"/>
        <pt x="546" y="139" on="1"/>
        <pt x="546" y="282" on="1"/>
        <pt x="487" y="294" on="0"/>
        <pt x="431" y="297" on="1"/>
        <pt x="372" y="145" on="0"/>
        <pt x="306" y="56" on="1"/>
        <pt x="229" y="-48" on="0"/>
      </contour>
      <contour>
        <pt x="438" y="868" on="0"/>
        <pt x="603" y="971" on="0"/>
        <pt x="670" y="971" on="0"/>
        <pt x="760" y="851" on="0"/>
        <pt x="782" y="806" on="1"/>
        <pt x="740" y="770" on="1"/>
        <pt x="650" y="829" on="0"/>
        <pt x="601" y="850" on="1"/>
        <pt x="523" y="827" on="0"/>
        <pt x="411" y="768" on="1"/>
        <pt x="379" y="815" on="1"/>
      </contour>
      <contour>
        <pt x="83" y="99" on="1"/>
        <pt x="83" y="74" on="0"/>
        <pt x="107" y="40" on="0"/>
        <pt x="131" y="40" on="1"/>
        <pt x="166" y="40" on="0"/>
        <pt x="240" y="125" on="0"/>
        <pt x="313" y="261" on="0"/>
        <pt x="329" y="296" on="1"/>
        <pt x="211" y="282" on="0"/>
        <pt x="83" y="160" on="0"/>
      </contour>
      <contour>
        <pt x="546" y="403" on="1"/>
        <pt x="546" y="567" on="0"/>
        <pt x="537" y="605" on="1"/>
        <pt x="536" y="606" on="0"/>
        <pt x="526" y="606" on="0"/>
        <pt x="525" y="605" on="1"/>
        <pt x="523" y="563" on="0"/>
        <pt x="457" y="370" on="1"/>
        <pt x="496" y="367" on="0"/>
        <pt x="546" y="359" on="1"/>
      </contour>
    </TTGlyph>
    <TTGlyph name="Adieresis" xMin="-29" yMin="-48" xMax="933" yMax="943">
      <contour>
        <pt x="119" y="-48" on="1"/>
        <pt x="61" y="-48" on="0"/>
        <pt x="-29" y="30" on="0"/>
        <pt x="-29" y="93" on="1"/>
        <pt x="-29" y="186" on="0"/>
        <pt x="68" y="270" on="1"/>
        <pt x="115" y="311" on="0"/>
        <pt x="268" y="366" on="0"/>
        <pt x="361" y="371" on="1"/>
        <pt x="397" y="462" on="0"/>
        <pt x="453" y="648" on="1"/>
        <pt x="454" y="652" on="0"/>
        <pt x="454" y="673" on="0"/>
        <pt x="444" y="680" on="1"/>
        <pt x="444" y="694" on="1"/>
        <pt x="538" y="710" on="0"/>
        <pt x="623" y="710" on="1"/>
        <pt x="699" y="706" on="1"/>
        <pt x="709" y="696" on="0"/>
        <pt x="729" y="627" on="0"/>
        <pt x="735" y="513" on="0"/>
        <pt x="736" y="307" on="1"/>
        <pt x="846" y="264" on="0"/>
        <pt x="933" y="203" on="1"/>
        <pt x="928" y="184" on="0"/>
        <pt x="893" y="146" on="0"/>
        <pt x="878" y="136" on="1"/>
        <pt x="864" y="127" on="1"/>
        <pt x="810" y="179" on="0"/>
        <pt x="737" y="220" on="1"/>
        <pt x="742" y="80" on="0"/>
        <pt x="775" y="80" on="1"/>
        <pt x="786" y="80" on="0"/>
        <pt x="799" y="85" on="1"/>
        <pt x="823" y="30" on="1"/>
        <pt x="751" y="-12" on="0"/>
        <pt x="672" y="-12" on="1"/>
        <pt x="546" y="-12" on="0"/>
        <pt x="546" y="139" on="1"/>
        <pt x="546" y="282" on="1"/>
        <pt x="487" y="294" on="0"/>
        <pt x="431" y="297" on="1"/>
        <pt x="372" y="145" on="0"/>
        <pt x="306" y="56" on="1"/>
        <pt x="229" y="-48" on="0"/>
      </contour>
      <contour>
        <pt x="83" y="99" on="1"/>
        <pt x="83" y="74" on="0"/>
        <pt x="107" y="40" on="0"/>
        <pt x="131" y="40" on="1"/>
        <pt x="166" y="40" on="0"/>
        <pt x="240" y="125" on="0"/>
        <pt x="313" y="261" on="0"/>
        <pt x="329" y="296" on="1"/>
        <pt x="211" y="282" on="0"/>
        <pt x="83" y="160" on="0"/>
      </contour>
      <contour>
        <pt x="638" y="797" on="0"/>
        <pt x="596" y="837" on="0"/>
        <pt x="596" y="900" on="0"/>
        <pt x="648" y="943" on="0"/>
        <pt x="722" y="943" on="0"/>
        <pt x="763" y="908" on="0"/>
        <pt x="763" y="844" on="0"/>
        <pt x="712" y="797" on="0"/>
      </contour>
      <contour>
        <pt x="427" y="797" on="0"/>
        <pt x="385" y="837" on="0"/>
        <pt x="385" y="900" on="0"/>
        <pt x="437" y="943" on="0"/>
        <pt x="511" y="943" on="0"/>
        <pt x="552" y="908" on="0"/>
        <pt x="552" y="844" on="0"/>
        <pt x="501" y="797" on="0"/>
      </contour>
      <contour>
        <pt x="546" y="403" on="1"/>
        <pt x="546" y="567" on="0"/>
        <pt x="537" y="605" on="1"/>
        <pt x="536" y="606" on="0"/>
        <pt x="526" y="606" on="0"/>
        <pt x="525" y="605" on="1"/>
        <pt x="523" y="563" on="0"/>
        <pt x="457" y="370" on="1"/>
        <pt x="496" y="367" on="0"/>
        <pt x="546" y="359" on="1"/>
      </contour>
    </TTGlyph>
    <TTGlyph name="Agrave" xMin="-29" yMin="-48" xMax="933" yMax="963">
      <contour>
        <pt x="119" y="-48" on="1"/>
        <pt x="61" y="-48" on="0"/>
        <pt x="-29" y="30" on="0"/>
        <pt x="-29" y="93" on="1"/>
        <pt x="-29" y="186" on="0"/>
        <pt x="68" y="270" on="1"/>
        <pt x="115" y="311" on="0"/>
        <pt x="268" y="366" on="0"/>
        <pt x="361" y="371" on="1"/>
        <pt x="397" y="462" on="0"/>
        <pt x="453" y="648" on="1"/>
        <pt x="454" y="652" on="0"/>
        <pt x="454" y="673" on="0"/>
        <pt x="444" y="680" on="1"/>
        <pt x="444" y="694" on="1"/>
        <pt x="538" y="710" on="0"/>
        <pt x="623" y="710" on="1"/>
        <pt x="699" y="706" on="1"/>
        <pt x="709" y="696" on="0"/>
        <pt x="729" y="627" on="0"/>
        <pt x="735" y="513" on="0"/>
        <pt x="736" y="307" on="1"/>
        <pt x="846" y="264" on="0"/>
        <pt x="933" y="203" on="1"/>
        <pt x="928" y="184" on="0"/>
        <pt x="893" y="146" on="0"/>
        <pt x="878" y="136" on="1"/>
        <pt x="864" y="127" on="1"/>
        <pt x="810" y="179" on="0"/>
        <pt x="737" y="220" on="1"/>
        <pt x="742" y="80" on="0"/>
        <pt x="775" y="80" on="1"/>
        <pt x="786" y="80" on="0"/>
        <pt x="799" y="85" on="1"/>
        <pt x="823" y="30" on="1"/>
        <pt x="751" y="-12" on="0"/>
        <pt x="672" y="-12" on="1"/>
        <pt x="546" y="-12" on="0"/>
        <pt x="546" y="139" on="1"/>
        <pt x="546" y="282" on="1"/>
        <pt x="487" y="294" on="0"/>
        <pt x="431" y="297" on="1"/>
        <pt x="372" y="145" on="0"/>
        <pt x="306" y="56" on="1"/>
        <pt x="229" y="-48" on="0"/>
      </contour>
      <contour>
        <pt x="83" y="99" on="1"/>
        <pt x="83" y="74" on="0"/>
        <pt x="107" y="40" on="0"/>
        <pt x="131" y="40" on="1"/>
        <pt x="166" y="40" on="0"/>
        <pt x="240" y="125" on="0"/>
        <pt x="313" y="261" on="0"/>
        <pt x="329" y="296" on="1"/>
        <pt x="211" y="282" on="0"/>
        <pt x="83" y="160" on="0"/>
      </contour>
      <contour>
        <pt x="468" y="963" on="1"/>
        <pt x="514" y="963" on="0"/>
        <pt x="727" y="814" on="1"/>
        <pt x="701" y="766" on="1"/>
        <pt x="555" y="818" on="0"/>
        <pt x="392" y="857" on="1"/>
        <pt x="428" y="963" on="0"/>
      </contour>
      <contour>
        <pt x="546" y="403" on="1"/>
        <pt x="546" y="567" on="0"/>
        <pt x="537" y="605" on="1"/>
        <pt x="536" y="606" on="0"/>
        <pt x="526" y="606" on="0"/>
        <pt x="525" y="605" on="1"/>
        <pt x="523" y="563" on="0"/>
        <pt x="457" y="370" on="1"/>
        <pt x="496" y="367" on="0"/>
        <pt x="546" y="359" on="1"/>
      </contour>
    </TTGlyph>
    <TTGlyph name="Aring" xMin="-29" yMin="-48" xMax="933" yMax="1004">
      <contour>
        <pt x="119" y="-48" on="1"/>
        <pt x="61" y="-48" on="0"/>
        <pt x="-29" y="30" on="0"/>
        <pt x="-29" y="93" on="1"/>
        <pt x="-29" y="186" on="0"/>
        <pt x="68" y="270" on="1"/>
        <pt x="115" y="311" on="0"/>
        <pt x="268" y="366" on="0"/>
        <pt x="361" y="371" on="1"/>
        <pt x="397" y="462" on="0"/>
        <pt x="453" y="648" on="1"/>
        <pt x="454" y="652" on="0"/>
        <pt x="454" y="673" on="0"/>
        <pt x="444" y="680" on="1"/>
        <pt x="444" y="694" on="1"/>
        <pt x="538" y="710" on="0"/>
        <pt x="623" y="710" on="1"/>
        <pt x="699" y="706" on="1"/>
        <pt x="709" y="696" on="0"/>
        <pt x="729" y="627" on="0"/>
        <pt x="735" y="513" on="0"/>
        <pt x="736" y="307" on="1"/>
        <pt x="846" y="264" on="0"/>
        <pt x="933" y="203" on="1"/>
        <pt x="928" y="184" on="0"/>
        <pt x="893" y="146" on="0"/>
        <pt x="878" y="136" on="1"/>
        <pt x="864" y="127" on="1"/>
        <pt x="810" y="179" on="0"/>
        <pt x="737" y="220" on="1"/>
        <pt x="742" y="80" on="0"/>
        <pt x="775" y="80" on="1"/>
        <pt x="786" y="80" on="0"/>
        <pt x="799" y="85" on="1"/>
        <pt x="823" y="30" on="1"/>
        <pt x="751" y="-12" on="0"/>
        <pt x="672" y="-12" on="1"/>
        <pt x="546" y="-12" on="0"/>
        <pt x="546" y="139" on="1"/>
        <pt x="546" y="282" on="1"/>
        <pt x="487" y="294" on="0"/>
        <pt x="431" y="297" on="1"/>
        <pt x="372" y="145" on="0"/>
        <pt x="306" y="56" on="1"/>
        <pt x="229" y="-48" on="0"/>
      </contour>
      <contour>
        <pt x="516" y="783" on="0"/>
        <pt x="454" y="846" on="0"/>
        <pt x="454" y="943" on="0"/>
        <pt x="516" y="1004" on="0"/>
        <pt x="632" y="1004" on="0"/>
        <pt x="694" y="943" on="0"/>
        <pt x="694" y="846" on="0"/>
        <pt x="632" y="783" on="0"/>
      </contour>
      <contour>
        <pt x="83" y="99" on="1"/>
        <pt x="83" y="74" on="0"/>
        <pt x="107" y="40" on="0"/>
        <pt x="131" y="40" on="1"/>
        <pt x="166" y="40" on="0"/>
        <pt x="240" y="125" on="0"/>
        <pt x="313" y="261" on="0"/>
        <pt x="329" y="296" on="1"/>
        <pt x="211" y="282" on="0"/>
        <pt x="83" y="160" on="0"/>
      </contour>
      <contour>
        <pt x="546" y="403" on="1"/>
        <pt x="546" y="567" on="0"/>
        <pt x="537" y="605" on="1"/>
        <pt x="536" y="606" on="0"/>
        <pt x="526" y="606" on="0"/>
        <pt x="525" y="605" on="1"/>
        <pt x="523" y="563" on="0"/>
        <pt x="457" y="370" on="1"/>
        <pt x="496" y="367" on="0"/>
        <pt x="546" y="359" on="1"/>
      </contour>
      <contour>
        <pt x="529" y="913" on="0"/>
        <pt x="529" y="875" on="0"/>
        <pt x="553" y="851" on="0"/>
        <pt x="574" y="851" on="1"/>
        <pt x="615" y="851" on="0"/>
        <pt x="615" y="937" on="0"/>
        <pt x="574" y="937" on="1"/>
        <pt x="553" y="937" on="0"/>
      </contour>
    </TTGlyph>
    <TTGlyph name="Atilde" xMin="-29" yMin="-48" xMax="933" yMax="950">
      <contour>
        <pt x="119" y="-48" on="1"/>
        <pt x="61" y="-48" on="0"/>
        <pt x="-29" y="30" on="0"/>
        <pt x="-29" y="93" on="1"/>
        <pt x="-29" y="186" on="0"/>
        <pt x="68" y="270" on="1"/>
        <pt x="115" y="311" on="0"/>
        <pt x="268" y="366" on="0"/>
        <pt x="361" y="371" on="1"/>
        <pt x="397" y="462" on="0"/>
        <pt x="453" y="648" on="1"/>
        <pt x="454" y="652" on="0"/>
        <pt x="454" y="673" on="0"/>
        <pt x="444" y="680" on="1"/>
        <pt x="444" y="694" on="1"/>
        <pt x="538" y="710" on="0"/>
        <pt x="623" y="710" on="1"/>
        <pt x="699" y="706" on="1"/>
        <pt x="709" y="696" on="0"/>
        <pt x="729" y="627" on="0"/>
        <pt x="735" y="513" on="0"/>
        <pt x="736" y="307" on="1"/>
        <pt x="846" y="264" on="0"/>
        <pt x="933" y="203" on="1"/>
        <pt x="928" y="184" on="0"/>
        <pt x="893" y="146" on="0"/>
        <pt x="878" y="136" on="1"/>
        <pt x="864" y="127" on="1"/>
        <pt x="810" y="179" on="0"/>
        <pt x="737" y="220" on="1"/>
        <pt x="742" y="80" on="0"/>
        <pt x="775" y="80" on="1"/>
        <pt x="786" y="80" on="0"/>
        <pt x="799" y="85" on="1"/>
        <pt x="823" y="30" on="1"/>
        <pt x="751" y="-12" on="0"/>
        <pt x="672" y="-12" on="1"/>
        <pt x="546" y="-12" on="0"/>
        <pt x="546" y="139" on="1"/>
        <pt x="546" y="282" on="1"/>
        <pt x="487" y="294" on="0"/>
        <pt x="431" y="297" on="1"/>
        <pt x="372" y="145" on="0"/>
        <pt x="306" y="56" on="1"/>
        <pt x="229" y="-48" on="0"/>
      </contour>
      <contour>
        <pt x="668" y="795" on="1"/>
        <pt x="647" y="795" on="0"/>
        <pt x="515" y="827" on="0"/>
        <pt x="472" y="827" on="0"/>
        <pt x="444" y="808" on="0"/>
        <pt x="430" y="782" on="1"/>
        <pt x="378" y="794" on="1"/>
        <pt x="392" y="945" on="0"/>
        <pt x="494" y="945" on="1"/>
        <pt x="516" y="945" on="0"/>
        <pt x="647" y="913" on="0"/>
        <pt x="693" y="913" on="0"/>
        <pt x="716" y="928" on="0"/>
        <pt x="728" y="950" on="1"/>
        <pt x="778" y="940" on="1"/>
        <pt x="764" y="795" on="0"/>
      </contour>
      <contour>
        <pt x="83" y="99" on="1"/>
        <pt x="83" y="74" on="0"/>
        <pt x="107" y="40" on="0"/>
        <pt x="131" y="40" on="1"/>
        <pt x="166" y="40" on="0"/>
        <pt x="240" y="125" on="0"/>
        <pt x="313" y="261" on="0"/>
        <pt x="329" y="296" on="1"/>
        <pt x="211" y="282" on="0"/>
        <pt x="83" y="160" on="0"/>
      </contour>
      <contour>
        <pt x="546" y="403" on="1"/>
        <pt x="546" y="567" on="0"/>
        <pt x="537" y="605" on="1"/>
        <pt x="536" y="606" on="0"/>
        <pt x="526" y="606" on="0"/>
        <pt x="525" y="605" on="1"/>
        <pt x="523" y="563" on="0"/>
        <pt x="457" y="370" on="1"/>
        <pt x="496" y="367" on="0"/>
        <pt x="546" y="359" on="1"/>
      </contour>
    </TTGlyph>
    <TTGlyph name="B" xMin="-43" yMin="-51" xMax="803" yMax="722">
      <contour>
        <pt x="361" y="336" on="1"/>
        <pt x="358" y="348" on="0"/>
        <pt x="358" y="381" on="0"/>
        <pt x="365" y="409" on="1"/>
        <pt x="374" y="409" on="0"/>
        <pt x="425" y="419" on="0"/>
        <pt x="482" y="493" on="0"/>
        <pt x="482" y="548" on="1"/>
        <pt x="482" y="644" on="0"/>
        <pt x="317" y="644" on="1"/>
        <pt x="252" y="644" on="0"/>
        <pt x="125" y="611" on="0"/>
        <pt x="37" y="548" on="0"/>
        <pt x="37" y="509" on="1"/>
        <pt x="37" y="465" on="0"/>
        <pt x="97" y="453" on="1"/>
        <pt x="98" y="446" on="0"/>
        <pt x="98" y="434" on="1"/>
        <pt x="98" y="388" on="0"/>
        <pt x="80" y="351" on="1"/>
        <pt x="36" y="355" on="0"/>
        <pt x="-43" y="425" on="0"/>
        <pt x="-43" y="564" on="0"/>
        <pt x="16" y="619" on="1"/>
        <pt x="128" y="722" on="0"/>
        <pt x="349" y="722" on="1"/>
        <pt x="673" y="722" on="0"/>
        <pt x="673" y="560" on="1"/>
        <pt x="673" y="426" on="0"/>
        <pt x="504" y="373" on="1"/>
        <pt x="564" y="367" on="0"/>
        <pt x="609" y="329" on="1"/>
        <pt x="705" y="356" on="0"/>
        <pt x="789" y="363" on="1"/>
        <pt x="803" y="335" on="0"/>
        <pt x="803" y="284" on="0"/>
        <pt x="797" y="261" on="1"/>
        <pt x="774" y="264" on="0"/>
        <pt x="709" y="264" on="0"/>
        <pt x="659" y="256" on="1"/>
        <pt x="670" y="226" on="0"/>
        <pt x="670" y="192" on="1"/>
        <pt x="670" y="93" on="0"/>
        <pt x="546" y="-51" on="0"/>
        <pt x="451" y="-51" on="1"/>
        <pt x="379" y="-51" on="0"/>
        <pt x="304" y="20" on="0"/>
        <pt x="304" y="135" on="0"/>
        <pt x="387" y="248" on="0"/>
        <pt x="460" y="280" on="1"/>
        <pt x="443" y="336" on="0"/>
        <pt x="376" y="336" on="1"/>
      </contour>
      <contour>
        <pt x="168" y="487" on="1"/>
        <pt x="168" y="505" on="0"/>
        <pt x="159" y="523" on="0"/>
        <pt x="144" y="540" on="1"/>
        <pt x="144" y="553" on="1"/>
        <pt x="164" y="565" on="0"/>
        <pt x="254" y="584" on="0"/>
        <pt x="288" y="584" on="1"/>
        <pt x="343" y="584" on="0"/>
        <pt x="361" y="579" on="1"/>
        <pt x="367" y="569" on="0"/>
        <pt x="367" y="507" on="0"/>
        <pt x="264" y="111" on="0"/>
        <pt x="255" y="11" on="1"/>
        <pt x="183" y="-6" on="0"/>
        <pt x="93" y="-6" on="1"/>
        <pt x="69" y="-6" on="0"/>
        <pt x="60" y="-3" on="1"/>
        <pt x="65" y="59" on="0"/>
        <pt x="168" y="428" on="0"/>
      </contour>
      <contour>
        <pt x="418" y="40" on="1"/>
        <pt x="444" y="40" on="0"/>
        <pt x="478" y="121" on="0"/>
        <pt x="478" y="179" on="1"/>
        <pt x="478" y="195" on="0"/>
        <pt x="477" y="208" on="1"/>
        <pt x="436" y="195" on="0"/>
        <pt x="379" y="126" on="0"/>
        <pt x="379" y="96" on="1"/>
        <pt x="379" y="40" on="0"/>
      </contour>
    </TTGlyph>
    <TTGlyph name="C" xMin="49" yMin="-12" xMax="738" yMax="747">
      <contour>
        <pt x="288" y="-12" on="1"/>
        <pt x="181" y="-12" on="0"/>
        <pt x="49" y="138" on="0"/>
        <pt x="49" y="383" on="0"/>
        <pt x="141" y="584" on="0"/>
        <pt x="313" y="710" on="0"/>
        <pt x="417" y="710" on="1"/>
        <pt x="447" y="710" on="0"/>
        <pt x="481" y="701" on="1"/>
        <pt x="553" y="747" on="0"/>
        <pt x="624" y="747" on="1"/>
        <pt x="660" y="747" on="0"/>
        <pt x="723" y="726" on="0"/>
        <pt x="738" y="711" on="1"/>
        <pt x="730" y="673" on="0"/>
        <pt x="716" y="646" on="1"/>
        <pt x="712" y="637" on="1"/>
        <pt x="665" y="672" on="0"/>
        <pt x="611" y="672" on="1"/>
        <pt x="583" y="672" on="0"/>
        <pt x="550" y="660" on="1"/>
        <pt x="596" y="610" on="0"/>
        <pt x="596" y="431" on="0"/>
        <pt x="502" y="278" on="0"/>
        <pt x="427" y="278" on="1"/>
        <pt x="380" y="278" on="0"/>
        <pt x="320" y="354" on="0"/>
        <pt x="320" y="413" on="1"/>
        <pt x="320" y="533" on="0"/>
        <pt x="405" y="633" on="1"/>
        <pt x="337" y="627" on="0"/>
        <pt x="246" y="430" on="0"/>
        <pt x="246" y="312" on="1"/>
        <pt x="246" y="97" on="0"/>
        <pt x="353" y="97" on="1"/>
        <pt x="433" y="97" on="0"/>
        <pt x="532" y="203" on="1"/>
        <pt x="579" y="163" on="1"/>
        <pt x="566" y="141" on="0"/>
        <pt x="502" y="72" on="0"/>
        <pt x="439" y="26" on="0"/>
        <pt x="340" y="-12" on="0"/>
      </contour>
      <contour>
        <pt x="461" y="354" on="0"/>
        <pt x="500" y="453" on="0"/>
        <pt x="500" y="581" on="0"/>
        <pt x="473" y="610" on="1"/>
        <pt x="390" y="529" on="0"/>
        <pt x="390" y="416" on="1"/>
        <pt x="390" y="386" on="0"/>
        <pt x="412" y="354" on="0"/>
        <pt x="431" y="354" on="1"/>
      </contour>
    </TTGlyph>
    <TTGlyph name="Ccedilla" xMin="49" yMin="-198" xMax="738" yMax="747">
      <contour>
        <pt x="295" y="-95" on="1"/>
        <pt x="295" y="-113" on="0"/>
        <pt x="310" y="-113" on="1"/>
        <pt x="339" y="-113" on="0"/>
        <pt x="378" y="-90" on="1"/>
        <pt x="406" y="-131" on="1"/>
        <pt x="385" y="-155" on="0"/>
        <pt x="295" y="-198" on="0"/>
        <pt x="224" y="-198" on="0"/>
        <pt x="180" y="-159" on="0"/>
        <pt x="180" y="-97" on="0"/>
        <pt x="227" y="-33" on="0"/>
        <pt x="258" y="-10" on="1"/>
        <pt x="163" y="0" on="0"/>
        <pt x="49" y="147" on="0"/>
        <pt x="49" y="383" on="0"/>
        <pt x="141" y="584" on="0"/>
        <pt x="313" y="710" on="0"/>
        <pt x="417" y="710" on="1"/>
        <pt x="447" y="710" on="0"/>
        <pt x="481" y="701" on="1"/>
        <pt x="553" y="747" on="0"/>
        <pt x="624" y="747" on="1"/>
        <pt x="660" y="747" on="0"/>
        <pt x="723" y="726" on="0"/>
        <pt x="738" y="711" on="1"/>
        <pt x="730" y="673" on="0"/>
        <pt x="716" y="646" on="1"/>
        <pt x="712" y="637" on="1"/>
        <pt x="665" y="672" on="0"/>
        <pt x="611" y="672" on="1"/>
        <pt x="583" y="672" on="0"/>
        <pt x="550" y="660" on="1"/>
        <pt x="596" y="610" on="0"/>
        <pt x="596" y="431" on="0"/>
        <pt x="502" y="278" on="0"/>
        <pt x="427" y="278" on="1"/>
        <pt x="380" y="278" on="0"/>
        <pt x="320" y="354" on="0"/>
        <pt x="320" y="413" on="1"/>
        <pt x="320" y="533" on="0"/>
        <pt x="405" y="633" on="1"/>
        <pt x="337" y="627" on="0"/>
        <pt x="246" y="430" on="0"/>
        <pt x="246" y="312" on="1"/>
        <pt x="246" y="97" on="0"/>
        <pt x="353" y="97" on="1"/>
        <pt x="433" y="97" on="0"/>
        <pt x="532" y="203" on="1"/>
        <pt x="579" y="163" on="1"/>
        <pt x="517" y="71" on="0"/>
        <pt x="424" y="22" on="1"/>
        <pt x="383" y="1" on="0"/>
        <pt x="340" y="-7" on="1"/>
        <pt x="295" y="-55" on="0"/>
      </contour>
      <contour>
        <pt x="461" y="354" on="0"/>
        <pt x="500" y="453" on="0"/>
        <pt x="500" y="581" on="0"/>
        <pt x="473" y="610" on="1"/>
        <pt x="390" y="529" on="0"/>
        <pt x="390" y="416" on="1"/>
        <pt x="390" y="386" on="0"/>
        <pt x="412" y="354" on="0"/>
        <pt x="431" y="354" on="1"/>
      </contour>
    </TTGlyph>
    <TTGlyph name="D" xMin="24" yMin="-13" xMax="821" yMax="722">
      <contour>
        <pt x="24" y="124" on="0"/>
        <pt x="93" y="175" on="0"/>
        <pt x="180" y="175" on="0"/>
        <pt x="223" y="158" on="1"/>
        <pt x="249" y="231" on="0"/>
        <pt x="283" y="461" on="0"/>
        <pt x="283" y="516" on="0"/>
        <pt x="261" y="540" on="1"/>
        <pt x="261" y="554" on="1"/>
        <pt x="327" y="584" on="0"/>
        <pt x="424" y="584" on="1"/>
        <pt x="476" y="580" on="1"/>
        <pt x="482" y="569" on="0"/>
        <pt x="482" y="537" on="1"/>
        <pt x="480" y="431" on="0"/>
        <pt x="397" y="190" on="0"/>
        <pt x="331" y="105" on="1"/>
        <pt x="395" y="73" on="0"/>
        <pt x="482" y="73" on="0"/>
        <pt x="558" y="154" on="0"/>
        <pt x="580" y="214" on="1"/>
        <pt x="624" y="337" on="0"/>
        <pt x="624" y="544" on="0"/>
        <pt x="513" y="644" on="0"/>
        <pt x="292" y="644" on="0"/>
        <pt x="109" y="530" on="0"/>
        <pt x="109" y="454" on="1"/>
        <pt x="109" y="422" on="0"/>
        <pt x="139" y="392" on="0"/>
        <pt x="167" y="383" on="1"/>
        <pt x="166" y="333" on="0"/>
        <pt x="140" y="281" on="1"/>
        <pt x="97" y="289" on="0"/>
        <pt x="26" y="367" on="0"/>
        <pt x="26" y="434" on="1"/>
        <pt x="26" y="558" on="0"/>
        <pt x="272" y="722" on="0"/>
        <pt x="619" y="722" on="0"/>
        <pt x="821" y="577" on="0"/>
        <pt x="821" y="421" on="1"/>
        <pt x="821" y="318" on="0"/>
        <pt x="736" y="120" on="0"/>
        <pt x="575" y="-13" on="0"/>
        <pt x="377" y="-13" on="0"/>
        <pt x="277" y="48" on="1"/>
        <pt x="207" y="-12" on="0"/>
        <pt x="137" y="-12" on="1"/>
        <pt x="88" y="-12" on="0"/>
        <pt x="24" y="41" on="0"/>
      </contour>
      <contour>
        <pt x="142" y="63" on="1"/>
        <pt x="172" y="63" on="0"/>
        <pt x="196" y="100" on="1"/>
        <pt x="169" y="116" on="0"/>
        <pt x="132" y="116" on="0"/>
        <pt x="111" y="101" on="0"/>
        <pt x="111" y="79" on="0"/>
        <pt x="127" y="63" on="0"/>
      </contour>
    </TTGlyph>
    <TTGlyph name="E" xMin="52" yMin="-12" xMax="718" yMax="747">
      <contour>
        <pt x="582" y="680" on="1"/>
        <pt x="553" y="680" on="0"/>
        <pt x="523" y="669" on="1"/>
        <pt x="565" y="633" on="0"/>
        <pt x="565" y="528" on="0"/>
        <pt x="504" y="444" on="0"/>
        <pt x="414" y="444" on="0"/>
        <pt x="361" y="500" on="0"/>
        <pt x="361" y="592" on="0"/>
        <pt x="389" y="632" on="1"/>
        <pt x="352" y="622" on="0"/>
        <pt x="304" y="549" on="0"/>
        <pt x="304" y="439" on="0"/>
        <pt x="320" y="401" on="1"/>
        <pt x="355" y="406" on="0"/>
        <pt x="432" y="406" on="0"/>
        <pt x="497" y="367" on="0"/>
        <pt x="497" y="297" on="0"/>
        <pt x="439" y="248" on="0"/>
        <pt x="343" y="248" on="0"/>
        <pt x="278" y="286" on="1"/>
        <pt x="244" y="241" on="0"/>
        <pt x="244" y="148" on="0"/>
        <pt x="298" y="96" on="0"/>
        <pt x="342" y="96" on="1"/>
        <pt x="433" y="96" on="0"/>
        <pt x="519" y="190" on="1"/>
        <pt x="562" y="154" on="1"/>
        <pt x="542" y="122" on="0"/>
        <pt x="477" y="58" on="0"/>
        <pt x="417" y="18" on="0"/>
        <pt x="324" y="-12" on="0"/>
        <pt x="275" y="-12" on="1"/>
        <pt x="182" y="-12" on="0"/>
        <pt x="52" y="81" on="0"/>
        <pt x="52" y="178" on="1"/>
        <pt x="52" y="235" on="0"/>
        <pt x="127" y="328" on="0"/>
        <pt x="189" y="359" on="1"/>
        <pt x="134" y="422" on="0"/>
        <pt x="134" y="500" on="1"/>
        <pt x="134" y="599" on="0"/>
        <pt x="288" y="710" on="0"/>
        <pt x="389" y="710" on="1"/>
        <pt x="427" y="710" on="0"/>
        <pt x="458" y="701" on="1"/>
        <pt x="527" y="747" on="0"/>
        <pt x="684" y="747" on="0"/>
        <pt x="718" y="706" on="1"/>
        <pt x="716" y="671" on="0"/>
        <pt x="696" y="648" on="1"/>
        <pt x="689" y="640" on="1"/>
        <pt x="652" y="680" on="0"/>
      </contour>
      <contour>
        <pt x="486" y="564" on="1"/>
        <pt x="486" y="608" on="0"/>
        <pt x="456" y="626" on="1"/>
        <pt x="427" y="592" on="0"/>
        <pt x="427" y="509" on="0"/>
        <pt x="454" y="509" on="1"/>
        <pt x="468" y="509" on="0"/>
        <pt x="486" y="540" on="0"/>
      </contour>
      <contour>
        <pt x="395" y="353" on="1"/>
        <pt x="375" y="353" on="0"/>
        <pt x="354" y="345" on="1"/>
        <pt x="376" y="315" on="0"/>
        <pt x="434" y="315" on="0"/>
        <pt x="434" y="333" on="1"/>
        <pt x="434" y="353" on="0"/>
      </contour>
    </TTGlyph>
    <TTGlyph name="Eacute" xMin="52" yMin="-12" xMax="718" yMax="974">
      <contour>
        <pt x="582" y="680" on="1"/>
        <pt x="553" y="680" on="0"/>
        <pt x="523" y="669" on="1"/>
        <pt x="565" y="633" on="0"/>
        <pt x="565" y="528" on="0"/>
        <pt x="504" y="444" on="0"/>
        <pt x="414" y="444" on="0"/>
        <pt x="361" y="500" on="0"/>
        <pt x="361" y="592" on="0"/>
        <pt x="389" y="632" on="1"/>
        <pt x="352" y="622" on="0"/>
        <pt x="304" y="549" on="0"/>
        <pt x="304" y="439" on="0"/>
        <pt x="320" y="401" on="1"/>
        <pt x="355" y="406" on="0"/>
        <pt x="432" y="406" on="0"/>
        <pt x="497" y="367" on="0"/>
        <pt x="497" y="297" on="0"/>
        <pt x="439" y="248" on="0"/>
        <pt x="343" y="248" on="0"/>
        <pt x="278" y="286" on="1"/>
        <pt x="244" y="241" on="0"/>
        <pt x="244" y="148" on="0"/>
        <pt x="298" y="96" on="0"/>
        <pt x="342" y="96" on="1"/>
        <pt x="433" y="96" on="0"/>
        <pt x="519" y="190" on="1"/>
        <pt x="562" y="154" on="1"/>
        <pt x="542" y="122" on="0"/>
        <pt x="477" y="58" on="0"/>
        <pt x="417" y="18" on="0"/>
        <pt x="324" y="-12" on="0"/>
        <pt x="275" y="-12" on="1"/>
        <pt x="182" y="-12" on="0"/>
        <pt x="52" y="81" on="0"/>
        <pt x="52" y="178" on="1"/>
        <pt x="52" y="235" on="0"/>
        <pt x="127" y="328" on="0"/>
        <pt x="189" y="359" on="1"/>
        <pt x="134" y="422" on="0"/>
        <pt x="134" y="500" on="1"/>
        <pt x="134" y="599" on="0"/>
        <pt x="288" y="710" on="0"/>
        <pt x="389" y="710" on="1"/>
        <pt x="427" y="710" on="0"/>
        <pt x="458" y="701" on="1"/>
        <pt x="527" y="747" on="0"/>
        <pt x="684" y="747" on="0"/>
        <pt x="718" y="706" on="1"/>
        <pt x="716" y="671" on="0"/>
        <pt x="696" y="648" on="1"/>
        <pt x="689" y="640" on="1"/>
        <pt x="652" y="680" on="0"/>
      </contour>
      <contour>
        <pt x="564" y="881" on="1"/>
        <pt x="564" y="846" on="0"/>
        <pt x="527" y="830" on="1"/>
        <pt x="471" y="804" on="0"/>
        <pt x="267" y="768" on="1"/>
        <pt x="250" y="818" on="1"/>
        <pt x="373" y="878" on="0"/>
        <pt x="524" y="974" on="1"/>
        <pt x="535" y="959" on="0"/>
        <pt x="564" y="895" on="0"/>
      </contour>
      <contour>
        <pt x="486" y="564" on="1"/>
        <pt x="486" y="608" on="0"/>
        <pt x="456" y="626" on="1"/>
        <pt x="427" y="592" on="0"/>
        <pt x="427" y="509" on="0"/>
        <pt x="454" y="509" on="1"/>
        <pt x="468" y="509" on="0"/>
        <pt x="486" y="540" on="0"/>
      </contour>
      <contour>
        <pt x="395" y="353" on="1"/>
        <pt x="375" y="353" on="0"/>
        <pt x="354" y="345" on="1"/>
        <pt x="376" y="315" on="0"/>
        <pt x="434" y="315" on="0"/>
        <pt x="434" y="333" on="1"/>
        <pt x="434" y="353" on="0"/>
      </contour>
    </TTGlyph>
    <TTGlyph name="Ecircumflex" xMin="52" yMin="-12" xMax="718" yMax="971">
      <contour>
        <pt x="582" y="680" on="1"/>
        <pt x="553" y="680" on="0"/>
        <pt x="523" y="669" on="1"/>
        <pt x="565" y="633" on="0"/>
        <pt x="565" y="528" on="0"/>
        <pt x="504" y="444" on="0"/>
        <pt x="414" y="444" on="0"/>
        <pt x="361" y="500" on="0"/>
        <pt x="361" y="592" on="0"/>
        <pt x="389" y="632" on="1"/>
        <pt x="352" y="622" on="0"/>
        <pt x="304" y="549" on="0"/>
        <pt x="304" y="439" on="0"/>
        <pt x="320" y="401" on="1"/>
        <pt x="355" y="406" on="0"/>
        <pt x="432" y="406" on="0"/>
        <pt x="497" y="367" on="0"/>
        <pt x="497" y="297" on="0"/>
        <pt x="439" y="248" on="0"/>
        <pt x="343" y="248" on="0"/>
        <pt x="278" y="286" on="1"/>
        <pt x="244" y="241" on="0"/>
        <pt x="244" y="148" on="0"/>
        <pt x="298" y="96" on="0"/>
        <pt x="342" y="96" on="1"/>
        <pt x="433" y="96" on="0"/>
        <pt x="519" y="190" on="1"/>
        <pt x="562" y="154" on="1"/>
        <pt x="542" y="122" on="0"/>
        <pt x="477" y="58" on="0"/>
        <pt x="417" y="18" on="0"/>
        <pt x="324" y="-12" on="0"/>
        <pt x="275" y="-12" on="1"/>
        <pt x="182" y="-12" on="0"/>
        <pt x="52" y="81" on="0"/>
        <pt x="52" y="178" on="1"/>
        <pt x="52" y="235" on="0"/>
        <pt x="127" y="328" on="0"/>
        <pt x="189" y="359" on="1"/>
        <pt x="134" y="422" on="0"/>
        <pt x="134" y="500" on="1"/>
        <pt x="134" y="599" on="0"/>
        <pt x="288" y="710" on="0"/>
        <pt x="389" y="710" on="1"/>
        <pt x="427" y="710" on="0"/>
        <pt x="458" y="701" on="1"/>
        <pt x="527" y="747" on="0"/>
        <pt x="684" y="747" on="0"/>
        <pt x="718" y="706" on="1"/>
        <pt x="716" y="671" on="0"/>
        <pt x="696" y="648" on="1"/>
        <pt x="689" y="640" on="1"/>
        <pt x="652" y="680" on="0"/>
      </contour>
      <contour>
        <pt x="243" y="868" on="0"/>
        <pt x="408" y="971" on="0"/>
        <pt x="475" y="971" on="0"/>
        <pt x="565" y="851" on="0"/>
        <pt x="587" y="806" on="1"/>
        <pt x="545" y="770" on="1"/>
        <pt x="455" y="829" on="0"/>
        <pt x="406" y="850" on="1"/>
        <pt x="328" y="827" on="0"/>
        <pt x="216" y="768" on="1"/>
        <pt x="184" y="815" on="1"/>
      </contour>
      <contour>
        <pt x="486" y="564" on="1"/>
        <pt x="486" y="608" on="0"/>
        <pt x="456" y="626" on="1"/>
        <pt x="427" y="592" on="0"/>
        <pt x="427" y="509" on="0"/>
        <pt x="454" y="509" on="1"/>
        <pt x="468" y="509" on="0"/>
        <pt x="486" y="540" on="0"/>
      </contour>
      <contour>
        <pt x="395" y="353" on="1"/>
        <pt x="375" y="353" on="0"/>
        <pt x="354" y="345" on="1"/>
        <pt x="376" y="315" on="0"/>
        <pt x="434" y="315" on="0"/>
        <pt x="434" y="333" on="1"/>
        <pt x="434" y="353" on="0"/>
      </contour>
    </TTGlyph>
    <TTGlyph name="Edieresis" xMin="52" yMin="-12" xMax="718" yMax="943">
      <contour>
        <pt x="582" y="680" on="1"/>
        <pt x="553" y="680" on="0"/>
        <pt x="523" y="669" on="1"/>
        <pt x="565" y="633" on="0"/>
        <pt x="565" y="528" on="0"/>
        <pt x="504" y="444" on="0"/>
        <pt x="414" y="444" on="0"/>
        <pt x="361" y="500" on="0"/>
        <pt x="361" y="592" on="0"/>
        <pt x="389" y="632" on="1"/>
        <pt x="352" y="622" on="0"/>
        <pt x="304" y="549" on="0"/>
        <pt x="304" y="439" on="0"/>
        <pt x="320" y="401" on="1"/>
        <pt x="355" y="406" on="0"/>
        <pt x="432" y="406" on="0"/>
        <pt x="497" y="367" on="0"/>
        <pt x="497" y="297" on="0"/>
        <pt x="439" y="248" on="0"/>
        <pt x="343" y="248" on="0"/>
        <pt x="278" y="286" on="1"/>
        <pt x="244" y="241" on="0"/>
        <pt x="244" y="148" on="0"/>
        <pt x="298" y="96" on="0"/>
        <pt x="342" y="96" on="1"/>
        <pt x="433" y="96" on="0"/>
        <pt x="519" y="190" on="1"/>
        <pt x="562" y="154" on="1"/>
        <pt x="542" y="122" on="0"/>
        <pt x="477" y="58" on="0"/>
        <pt x="417" y="18" on="0"/>
        <pt x="324" y="-12" on="0"/>
        <pt x="275" y="-12" on="1"/>
        <pt x="182" y="-12" on="0"/>
        <pt x="52" y="81" on="0"/>
        <pt x="52" y="178" on="1"/>
        <pt x="52" y="235" on="0"/>
        <pt x="127" y="328" on="0"/>
        <pt x="189" y="359" on="1"/>
        <pt x="134" y="422" on="0"/>
        <pt x="134" y="500" on="1"/>
        <pt x="134" y="599" on="0"/>
        <pt x="288" y="710" on="0"/>
        <pt x="389" y="710" on="1"/>
        <pt x="427" y="710" on="0"/>
        <pt x="458" y="701" on="1"/>
        <pt x="527" y="747" on="0"/>
        <pt x="684" y="747" on="0"/>
        <pt x="718" y="706" on="1"/>
        <pt x="716" y="671" on="0"/>
        <pt x="696" y="648" on="1"/>
        <pt x="689" y="640" on="1"/>
        <pt x="652" y="680" on="0"/>
      </contour>
      <contour>
        <pt x="457" y="797" on="0"/>
        <pt x="415" y="837" on="0"/>
        <pt x="415" y="900" on="0"/>
        <pt x="467" y="943" on="0"/>
        <pt x="541" y="943" on="0"/>
        <pt x="582" y="908" on="0"/>
        <pt x="582" y="844" on="0"/>
        <pt x="531" y="797" on="0"/>
      </contour>
      <contour>
        <pt x="246" y="797" on="0"/>
        <pt x="204" y="837" on="0"/>
        <pt x="204" y="900" on="0"/>
        <pt x="256" y="943" on="0"/>
        <pt x="330" y="943" on="0"/>
        <pt x="371" y="908" on="0"/>
        <pt x="371" y="844" on="0"/>
        <pt x="320" y="797" on="0"/>
      </contour>
      <contour>
        <pt x="486" y="564" on="1"/>
        <pt x="486" y="608" on="0"/>
        <pt x="456" y="626" on="1"/>
        <pt x="427" y="592" on="0"/>
        <pt x="427" y="509" on="0"/>
        <pt x="454" y="509" on="1"/>
        <pt x="468" y="509" on="0"/>
        <pt x="486" y="540" on="0"/>
      </contour>
      <contour>
        <pt x="395" y="353" on="1"/>
        <pt x="375" y="353" on="0"/>
        <pt x="354" y="345" on="1"/>
        <pt x="376" y="315" on="0"/>
        <pt x="434" y="315" on="0"/>
        <pt x="434" y="333" on="1"/>
        <pt x="434" y="353" on="0"/>
      </contour>
    </TTGlyph>
    <TTGlyph name="Egrave" xMin="52" yMin="-12" xMax="718" yMax="963">
      <contour>
        <pt x="582" y="680" on="1"/>
        <pt x="553" y="680" on="0"/>
        <pt x="523" y="669" on="1"/>
        <pt x="565" y="633" on="0"/>
        <pt x="565" y="528" on="0"/>
        <pt x="504" y="444" on="0"/>
        <pt x="414" y="444" on="0"/>
        <pt x="361" y="500" on="0"/>
        <pt x="361" y="592" on="0"/>
        <pt x="389" y="632" on="1"/>
        <pt x="352" y="622" on="0"/>
        <pt x="304" y="549" on="0"/>
        <pt x="304" y="439" on="0"/>
        <pt x="320" y="401" on="1"/>
        <pt x="355" y="406" on="0"/>
        <pt x="432" y="406" on="0"/>
        <pt x="497" y="367" on="0"/>
        <pt x="497" y="297" on="0"/>
        <pt x="439" y="248" on="0"/>
        <pt x="343" y="248" on="0"/>
        <pt x="278" y="286" on="1"/>
        <pt x="244" y="241" on="0"/>
        <pt x="244" y="148" on="0"/>
        <pt x="298" y="96" on="0"/>
        <pt x="342" y="96" on="1"/>
        <pt x="433" y="96" on="0"/>
        <pt x="519" y="190" on="1"/>
        <pt x="562" y="154" on="1"/>
        <pt x="542" y="122" on="0"/>
        <pt x="477" y="58" on="0"/>
        <pt x="417" y="18" on="0"/>
        <pt x="324" y="-12" on="0"/>
        <pt x="275" y="-12" on="1"/>
        <pt x="182" y="-12" on="0"/>
        <pt x="52" y="81" on="0"/>
        <pt x="52" y="178" on="1"/>
        <pt x="52" y="235" on="0"/>
        <pt x="127" y="328" on="0"/>
        <pt x="189" y="359" on="1"/>
        <pt x="134" y="422" on="0"/>
        <pt x="134" y="500" on="1"/>
        <pt x="134" y="599" on="0"/>
        <pt x="288" y="710" on="0"/>
        <pt x="389" y="710" on="1"/>
        <pt x="427" y="710" on="0"/>
        <pt x="458" y="701" on="1"/>
        <pt x="527" y="747" on="0"/>
        <pt x="684" y="747" on="0"/>
        <pt x="718" y="706" on="1"/>
        <pt x="716" y="671" on="0"/>
        <pt x="696" y="648" on="1"/>
        <pt x="689" y="640" on="1"/>
        <pt x="652" y="680" on="0"/>
      </contour>
      <contour>
        <pt x="278" y="963" on="1"/>
        <pt x="324" y="963" on="0"/>
        <pt x="537" y="814" on="1"/>
        <pt x="511" y="766" on="1"/>
        <pt x="365" y="818" on="0"/>
        <pt x="202" y="857" on="1"/>
        <pt x="238" y="963" on="0"/>
      </contour>
      <contour>
        <pt x="486" y="564" on="1"/>
        <pt x="486" y="608" on="0"/>
        <pt x="456" y="626" on="1"/>
        <pt x="427" y="592" on="0"/>
        <pt x="427" y="509" on="0"/>
        <pt x="454" y="509" on="1"/>
        <pt x="468" y="509" on="0"/>
        <pt x="486" y="540" on="0"/>
      </contour>
      <contour>
        <pt x="395" y="353" on="1"/>
        <pt x="375" y="353" on="0"/>
        <pt x="354" y="345" on="1"/>
        <pt x="376" y="315" on="0"/>
        <pt x="434" y="315" on="0"/>
        <pt x="434" y="333" on="1"/>
        <pt x="434" y="353" on="0"/>
      </contour>
    </TTGlyph>
    <TTGlyph name="Eth" xMin="24" yMin="-13" xMax="821" yMax="722">
      <contour>
        <pt x="24" y="121" on="0"/>
        <pt x="90" y="174" on="0"/>
        <pt x="173" y="174" on="0"/>
        <pt x="221" y="154" on="1"/>
        <pt x="225" y="165" on="0"/>
        <pt x="243" y="229" on="0"/>
        <pt x="244" y="238" on="1"/>
        <pt x="36" y="288" on="0"/>
        <pt x="36" y="442" on="1"/>
        <pt x="36" y="565" on="0"/>
        <pt x="290" y="722" on="0"/>
        <pt x="463" y="722" on="1"/>
        <pt x="612" y="722" on="0"/>
        <pt x="712" y="655" on="1"/>
        <pt x="763" y="621" on="0"/>
        <pt x="821" y="501" on="0"/>
        <pt x="821" y="318" on="0"/>
        <pt x="736" y="120" on="0"/>
        <pt x="575" y="-13" on="0"/>
        <pt x="380" y="-13" on="0"/>
        <pt x="277" y="49" on="1"/>
        <pt x="208" y="-12" on="0"/>
        <pt x="137" y="-12" on="1"/>
        <pt x="88" y="-12" on="0"/>
        <pt x="24" y="41" on="0"/>
      </contour>
      <contour>
        <pt x="421" y="644" on="1"/>
        <pt x="302" y="644" on="0"/>
        <pt x="114" y="520" on="0"/>
        <pt x="114" y="445" on="1"/>
        <pt x="114" y="348" on="0"/>
        <pt x="260" y="316" on="1"/>
        <pt x="284" y="439" on="0"/>
        <pt x="284" y="489" on="1"/>
        <pt x="284" y="516" on="0"/>
        <pt x="262" y="540" on="1"/>
        <pt x="262" y="554" on="1"/>
        <pt x="328" y="584" on="0"/>
        <pt x="427" y="584" on="1"/>
        <pt x="479" y="580" on="1"/>
        <pt x="485" y="569" on="0"/>
        <pt x="485" y="535" on="1"/>
        <pt x="485" y="428" on="0"/>
        <pt x="438" y="303" on="1"/>
        <pt x="503" y="309" on="0"/>
        <pt x="540" y="324" on="1"/>
        <pt x="546" y="306" on="0"/>
        <pt x="546" y="288" on="1"/>
        <pt x="546" y="252" on="0"/>
        <pt x="535" y="230" on="1"/>
        <pt x="507" y="221" on="0"/>
        <pt x="402" y="221" on="1"/>
        <pt x="370" y="156" on="0"/>
        <pt x="329" y="104" on="1"/>
        <pt x="393" y="73" on="0"/>
        <pt x="482" y="73" on="0"/>
        <pt x="558" y="155" on="0"/>
        <pt x="580" y="216" on="1"/>
        <pt x="624" y="341" on="0"/>
        <pt x="624" y="446" on="1"/>
        <pt x="624" y="644" on="0"/>
      </contour>
      <contour>
        <pt x="111" y="89" on="1"/>
        <pt x="111" y="63" on="0"/>
        <pt x="172" y="63" on="0"/>
        <pt x="195" y="99" on="1"/>
        <pt x="164" y="116" on="0"/>
        <pt x="131" y="116" on="0"/>
        <pt x="111" y="101" on="0"/>
      </contour>
    </TTGlyph>
    <TTGlyph name="Euro" xMin="9" yMin="-12" xMax="659" yMax="710">
      <contour>
        <pt x="330" y="-12" on="1"/>
        <pt x="234" y="-12" on="0"/>
        <pt x="104" y="119" on="0"/>
        <pt x="93" y="233" on="1"/>
        <pt x="33" y="228" on="0"/>
        <pt x="11" y="224" on="1"/>
        <pt x="9" y="249" on="0"/>
        <pt x="9" y="288" on="0"/>
        <pt x="12" y="310" on="1"/>
        <pt x="92" y="310" on="1"/>
        <pt x="93" y="326" on="0"/>
        <pt x="97" y="363" on="1"/>
        <pt x="69" y="361" on="0"/>
        <pt x="32" y="356" on="1"/>
        <pt x="29" y="370" on="0"/>
        <pt x="29" y="412" on="0"/>
        <pt x="33" y="442" on="1"/>
        <pt x="116" y="442" on="1"/>
        <pt x="154" y="562" on="0"/>
        <pt x="326" y="710" on="0"/>
        <pt x="535" y="710" on="0"/>
        <pt x="659" y="632" on="0"/>
        <pt x="659" y="511" on="0"/>
        <pt x="625" y="475" on="1"/>
        <pt x="585" y="475" on="0"/>
        <pt x="481" y="507" on="0"/>
        <pt x="455" y="530" on="1"/>
        <pt x="474" y="627" on="1"/>
        <pt x="456" y="637" on="0"/>
        <pt x="430" y="637" on="1"/>
        <pt x="391" y="637" on="0"/>
        <pt x="320" y="529" on="0"/>
        <pt x="302" y="442" on="1"/>
        <pt x="516" y="442" on="1"/>
        <pt x="514" y="413" on="0"/>
        <pt x="502" y="378" on="1"/>
        <pt x="497" y="365" on="1"/>
        <pt x="442" y="370" on="0"/>
        <pt x="342" y="370" on="0"/>
        <pt x="290" y="368" on="1"/>
        <pt x="287" y="339" on="0"/>
        <pt x="287" y="310" on="1"/>
        <pt x="499" y="310" on="1"/>
        <pt x="497" y="288" on="0"/>
        <pt x="481" y="246" on="1"/>
        <pt x="476" y="233" on="1"/>
        <pt x="423" y="238" on="0"/>
        <pt x="339" y="238" on="0"/>
        <pt x="300" y="237" on="0"/>
        <pt x="290" y="237" on="1"/>
        <pt x="299" y="167" on="0"/>
        <pt x="357" y="99" on="0"/>
        <pt x="399" y="99" on="1"/>
        <pt x="469" y="99" on="0"/>
        <pt x="553" y="173" on="1"/>
        <pt x="600" y="126" on="1"/>
        <pt x="590" y="111" on="0"/>
        <pt x="526" y="54" on="0"/>
        <pt x="467" y="18" on="0"/>
        <pt x="376" y="-12" on="0"/>
      </contour>
    </TTGlyph>
    <TTGlyph name="F" xMin="-13" yMin="-51" xMax="733" yMax="749">
      <contour>
        <pt x="438" y="301" on="1"/>
        <pt x="423" y="301" on="0"/>
        <pt x="415" y="300" on="1"/>
        <pt x="390" y="151" on="0"/>
        <pt x="229" y="-51" on="0"/>
        <pt x="129" y="-51" on="1"/>
        <pt x="67" y="-51" on="0"/>
        <pt x="-13" y="26" on="0"/>
        <pt x="-13" y="85" on="1"/>
        <pt x="-13" y="163" on="0"/>
        <pt x="126" y="302" on="0"/>
        <pt x="233" y="340" on="1"/>
        <pt x="237" y="382" on="0"/>
        <pt x="237" y="481" on="0"/>
        <pt x="233" y="512" on="1"/>
        <pt x="221" y="510" on="0"/>
        <pt x="197" y="510" on="1"/>
        <pt x="126" y="510" on="0"/>
        <pt x="50" y="569" on="0"/>
        <pt x="50" y="655" on="0"/>
        <pt x="129" y="722" on="0"/>
        <pt x="196" y="722" on="1"/>
        <pt x="300" y="722" on="0"/>
        <pt x="362" y="642" on="1"/>
        <pt x="378" y="649" on="0"/>
        <pt x="432" y="678" on="1"/>
        <pt x="561" y="749" on="0"/>
        <pt x="673" y="749" on="0"/>
        <pt x="733" y="641" on="0"/>
        <pt x="733" y="573" on="1"/>
        <pt x="729" y="565" on="0"/>
        <pt x="697" y="547" on="1"/>
        <pt x="650" y="587" on="0"/>
        <pt x="510" y="587" on="0"/>
        <pt x="405" y="559" on="1"/>
        <pt x="425" y="499" on="0"/>
        <pt x="425" y="414" on="1"/>
        <pt x="425" y="408" on="0"/>
        <pt x="424" y="386" on="0"/>
        <pt x="424" y="380" on="1"/>
        <pt x="469" y="386" on="0"/>
        <pt x="558" y="386" on="0"/>
        <pt x="591" y="382" on="1"/>
        <pt x="592" y="378" on="0"/>
        <pt x="592" y="347" on="0"/>
        <pt x="576" y="294" on="0"/>
        <pt x="567" y="282" on="1"/>
        <pt x="510" y="301" on="0"/>
      </contour>
      <contour>
        <pt x="65" y="96" on="1"/>
        <pt x="65" y="71" on="0"/>
        <pt x="91" y="47" on="0"/>
        <pt x="108" y="47" on="1"/>
        <pt x="143" y="47" on="0"/>
        <pt x="209" y="156" on="0"/>
        <pt x="224" y="262" on="1"/>
        <pt x="150" y="233" on="0"/>
        <pt x="65" y="139" on="0"/>
      </contour>
      <contour>
        <pt x="131" y="600" on="0"/>
        <pt x="160" y="576" on="0"/>
        <pt x="204" y="576" on="0"/>
        <pt x="220" y="580" on="1"/>
        <pt x="201" y="642" on="0"/>
        <pt x="162" y="642" on="1"/>
        <pt x="146" y="642" on="0"/>
        <pt x="131" y="625" on="0"/>
      </contour>
    </TTGlyph>
    <TTGlyph name="G" xMin="49" yMin="-379" xMax="849" yMax="746">
      <contour>
        <pt x="689" y="-379" on="1"/>
        <pt x="612" y="-379" on="0"/>
        <pt x="526" y="-310" on="1"/>
        <pt x="487" y="-279" on="0"/>
        <pt x="397" y="-193" on="0"/>
        <pt x="384" y="-181" on="1"/>
        <pt x="317" y="-240" on="0"/>
        <pt x="235" y="-240" on="1"/>
        <pt x="182" y="-240" on="0"/>
        <pt x="113" y="-186" on="0"/>
        <pt x="113" y="-100" on="0"/>
        <pt x="184" y="-41" on="0"/>
        <pt x="245" y="-41" on="1"/>
        <pt x="281" y="-41" on="0"/>
        <pt x="320" y="-52" on="1"/>
        <pt x="335" y="-7" on="0"/>
        <pt x="342" y="60" on="1"/>
        <pt x="305" y="40" on="0"/>
        <pt x="258" y="40" on="1"/>
        <pt x="165" y="40" on="0"/>
        <pt x="49" y="181" on="0"/>
        <pt x="49" y="298" on="1"/>
        <pt x="49" y="376" on="0"/>
        <pt x="104" y="526" on="0"/>
        <pt x="198" y="640" on="0"/>
        <pt x="333" y="709" on="0"/>
        <pt x="407" y="709" on="1"/>
        <pt x="442" y="709" on="0"/>
        <pt x="470" y="700" on="1"/>
        <pt x="539" y="746" on="0"/>
        <pt x="613" y="746" on="1"/>
        <pt x="650" y="746" on="0"/>
        <pt x="713" y="725" on="0"/>
        <pt x="728" y="710" on="1"/>
        <pt x="720" y="672" on="0"/>
        <pt x="706" y="645" on="1"/>
        <pt x="702" y="636" on="1"/>
        <pt x="655" y="671" on="0"/>
        <pt x="601" y="671" on="1"/>
        <pt x="569" y="671" on="0"/>
        <pt x="539" y="659" on="1"/>
        <pt x="586" y="611" on="0"/>
        <pt x="586" y="430" on="0"/>
        <pt x="492" y="278" on="0"/>
        <pt x="418" y="278" on="1"/>
        <pt x="368" y="278" on="0"/>
        <pt x="310" y="355" on="0"/>
        <pt x="310" y="420" on="1"/>
        <pt x="310" y="531" on="0"/>
        <pt x="395" y="632" on="1"/>
        <pt x="329" y="625" on="0"/>
        <pt x="246" y="456" on="0"/>
        <pt x="246" y="234" on="0"/>
        <pt x="303" y="150" on="0"/>
        <pt x="378" y="150" on="0"/>
        <pt x="449" y="203" on="0"/>
        <pt x="473" y="247" on="1"/>
        <pt x="546" y="232" on="1"/>
        <pt x="518" y="19" on="0"/>
        <pt x="445" y="-104" on="1"/>
        <pt x="462" y="-113" on="0"/>
        <pt x="546" y="-158" on="0"/>
        <pt x="591" y="-180" on="0"/>
        <pt x="626" y="-195" on="1"/>
        <pt x="691" y="-223" on="0"/>
        <pt x="752" y="-223" on="1"/>
        <pt x="805" y="-220" on="1"/>
        <pt x="835" y="-254" on="0"/>
        <pt x="849" y="-286" on="1"/>
        <pt x="830" y="-322" on="0"/>
        <pt x="742" y="-379" on="0"/>
      </contour>
      <contour>
        <pt x="450" y="353" on="0"/>
        <pt x="490" y="453" on="0"/>
        <pt x="490" y="579" on="0"/>
        <pt x="463" y="609" on="1"/>
        <pt x="425" y="572" on="0"/>
        <pt x="380" y="471" on="0"/>
        <pt x="380" y="424" on="1"/>
        <pt x="380" y="353" on="0"/>
        <pt x="417" y="353" on="1"/>
      </contour>
      <contour>
        <pt x="224" y="-157" on="1"/>
        <pt x="265" y="-157" on="0"/>
        <pt x="293" y="-112" on="1"/>
        <pt x="266" y="-97" on="0"/>
        <pt x="217" y="-97" on="0"/>
        <pt x="190" y="-117" on="0"/>
        <pt x="190" y="-143" on="0"/>
        <pt x="211" y="-157" on="0"/>
      </contour>
    </TTGlyph>
    <TTGlyph name="H" xMin="16" yMin="-37" xMax="887" yMax="710">
      <contour>
        <pt x="459" y="483" on="1"/>
        <pt x="459" y="446" on="0"/>
        <pt x="454" y="399" on="1"/>
        <pt x="527" y="409" on="0"/>
        <pt x="567" y="412" on="1"/>
        <pt x="600" y="575" on="0"/>
        <pt x="600" y="665" on="1"/>
        <pt x="599" y="679" on="1"/>
        <pt x="697" y="710" on="0"/>
        <pt x="794" y="710" on="1"/>
        <pt x="798" y="704" on="0"/>
        <pt x="798" y="681" on="1"/>
        <pt x="798" y="624" on="0"/>
        <pt x="751" y="414" on="1"/>
        <pt x="819" y="410" on="0"/>
        <pt x="887" y="396" on="1"/>
        <pt x="887" y="384" on="1"/>
        <pt x="887" y="359" on="0"/>
        <pt x="881" y="340" on="0"/>
        <pt x="879" y="330" on="0"/>
        <pt x="871" y="317" on="0"/>
        <pt x="870" y="314" on="1"/>
        <pt x="866" y="304" on="0"/>
        <pt x="859" y="297" on="1"/>
        <pt x="789" y="317" on="0"/>
        <pt x="732" y="325" on="1"/>
        <pt x="702" y="182" on="0"/>
        <pt x="702" y="123" on="1"/>
        <pt x="702" y="106" on="0"/>
        <pt x="708" y="93" on="0"/>
        <pt x="737" y="93" on="0"/>
        <pt x="764" y="103" on="1"/>
        <pt x="786" y="52" on="1"/>
        <pt x="684" y="-12" on="0"/>
        <pt x="605" y="-12" on="1"/>
        <pt x="506" y="-12" on="0"/>
        <pt x="506" y="87" on="1"/>
        <pt x="506" y="138" on="0"/>
        <pt x="550" y="333" on="1"/>
        <pt x="497" y="330" on="0"/>
        <pt x="443" y="321" on="1"/>
        <pt x="414" y="175" on="0"/>
        <pt x="345" y="74" on="1"/>
        <pt x="310" y="22" on="0"/>
        <pt x="213" y="-37" on="0"/>
        <pt x="92" y="-37" on="0"/>
        <pt x="16" y="42" on="0"/>
        <pt x="16" y="168" on="0"/>
        <pt x="140" y="311" on="0"/>
        <pt x="265" y="359" on="1"/>
        <pt x="275" y="419" on="0"/>
        <pt x="275" y="544" on="0"/>
        <pt x="257" y="590" on="0"/>
        <pt x="230" y="590" on="1"/>
        <pt x="188" y="590" on="0"/>
        <pt x="105" y="531" on="1"/>
        <pt x="67" y="583" on="1"/>
        <pt x="195" y="697" on="0"/>
        <pt x="313" y="697" on="1"/>
        <pt x="395" y="697" on="0"/>
        <pt x="459" y="584" on="0"/>
      </contour>
      <contour>
        <pt x="93" y="114" on="1"/>
        <pt x="93" y="93" on="0"/>
        <pt x="118" y="61" on="0"/>
        <pt x="138" y="61" on="1"/>
        <pt x="175" y="61" on="0"/>
        <pt x="239" y="183" on="0"/>
        <pt x="256" y="279" on="1"/>
        <pt x="182" y="252" on="0"/>
        <pt x="93" y="154" on="0"/>
      </contour>
    </TTGlyph>
    <TTGlyph name="I" xMin="7" yMin="-37" xMax="450" yMax="697">
      <contour>
        <pt x="386" y="697" on="0"/>
        <pt x="450" y="584" on="0"/>
        <pt x="450" y="395" on="0"/>
        <pt x="411" y="215" on="0"/>
        <pt x="338" y="61" on="0"/>
        <pt x="220" y="-37" on="0"/>
        <pt x="83" y="-37" on="0"/>
        <pt x="7" y="42" on="0"/>
        <pt x="7" y="168" on="0"/>
        <pt x="131" y="311" on="0"/>
        <pt x="256" y="359" on="1"/>
        <pt x="266" y="419" on="0"/>
        <pt x="266" y="544" on="0"/>
        <pt x="248" y="590" on="0"/>
        <pt x="221" y="590" on="1"/>
        <pt x="179" y="590" on="0"/>
        <pt x="96" y="531" on="1"/>
        <pt x="58" y="583" on="1"/>
        <pt x="186" y="697" on="0"/>
        <pt x="304" y="697" on="1"/>
      </contour>
      <contour>
        <pt x="84" y="114" on="1"/>
        <pt x="84" y="93" on="0"/>
        <pt x="109" y="61" on="0"/>
        <pt x="129" y="61" on="1"/>
        <pt x="166" y="61" on="0"/>
        <pt x="230" y="183" on="0"/>
        <pt x="247" y="279" on="1"/>
        <pt x="173" y="252" on="0"/>
        <pt x="84" y="154" on="0"/>
      </contour>
    </TTGlyph>
    <TTGlyph name="IJ" xMin="7" yMin="-186" xMax="958" yMax="697">
      <contour>
        <pt x="614" y="213" on="1"/>
        <pt x="623" y="246" on="0"/>
        <pt x="651" y="443" on="0"/>
        <pt x="651" y="548" on="0"/>
        <pt x="631" y="589" on="0"/>
        <pt x="606" y="589" on="1"/>
        <pt x="559" y="589" on="0"/>
        <pt x="480" y="531" on="1"/>
        <pt x="441" y="583" on="1"/>
        <pt x="571" y="697" on="0"/>
        <pt x="693" y="697" on="1"/>
        <pt x="768" y="697" on="0"/>
        <pt x="835" y="590" on="0"/>
        <pt x="835" y="352" on="0"/>
        <pt x="818" y="256" on="1"/>
        <pt x="884" y="262" on="0"/>
        <pt x="955" y="262" on="1"/>
        <pt x="958" y="250" on="0"/>
        <pt x="958" y="204" on="0"/>
        <pt x="938" y="161" on="1"/>
        <pt x="897" y="168" on="0"/>
        <pt x="833" y="168" on="0"/>
        <pt x="799" y="166" on="1"/>
        <pt x="756" y="8" on="0"/>
        <pt x="595" y="-186" on="0"/>
        <pt x="499" y="-186" on="1"/>
        <pt x="437" y="-186" on="0"/>
        <pt x="360" y="-109" on="0"/>
        <pt x="360" y="21" on="0"/>
        <pt x="484" y="162" on="0"/>
      </contour>
      <contour>
        <pt x="386" y="697" on="0"/>
        <pt x="450" y="584" on="0"/>
        <pt x="450" y="395" on="0"/>
        <pt x="411" y="215" on="0"/>
        <pt x="338" y="61" on="0"/>
        <pt x="220" y="-37" on="0"/>
        <pt x="83" y="-37" on="0"/>
        <pt x="7" y="42" on="0"/>
        <pt x="7" y="168" on="0"/>
        <pt x="131" y="311" on="0"/>
        <pt x="256" y="359" on="1"/>
        <pt x="266" y="419" on="0"/>
        <pt x="266" y="544" on="0"/>
        <pt x="248" y="590" on="0"/>
        <pt x="221" y="590" on="1"/>
        <pt x="179" y="590" on="0"/>
        <pt x="96" y="531" on="1"/>
        <pt x="58" y="583" on="1"/>
        <pt x="186" y="697" on="0"/>
        <pt x="304" y="697" on="1"/>
      </contour>
      <contour>
        <pt x="437" y="-36" on="1"/>
        <pt x="437" y="-60" on="0"/>
        <pt x="463" y="-88" on="0"/>
        <pt x="481" y="-88" on="1"/>
        <pt x="519" y="-88" on="0"/>
        <pt x="585" y="35" on="0"/>
        <pt x="602" y="131" on="1"/>
        <pt x="528" y="105" on="0"/>
        <pt x="437" y="9" on="0"/>
      </contour>
      <contour>
        <pt x="84" y="114" on="1"/>
        <pt x="84" y="93" on="0"/>
        <pt x="109" y="61" on="0"/>
        <pt x="129" y="61" on="1"/>
        <pt x="166" y="61" on="0"/>
        <pt x="230" y="183" on="0"/>
        <pt x="247" y="279" on="1"/>
        <pt x="173" y="252" on="0"/>
        <pt x="84" y="154" on="0"/>
      </contour>
    </TTGlyph>
    <TTGlyph name="Iacute" xMin="7" yMin="-37" xMax="450" yMax="974">
      <contour>
        <pt x="386" y="697" on="0"/>
        <pt x="450" y="584" on="0"/>
        <pt x="450" y="395" on="0"/>
        <pt x="411" y="215" on="0"/>
        <pt x="338" y="61" on="0"/>
        <pt x="220" y="-37" on="0"/>
        <pt x="83" y="-37" on="0"/>
        <pt x="7" y="42" on="0"/>
        <pt x="7" y="168" on="0"/>
        <pt x="131" y="311" on="0"/>
        <pt x="256" y="359" on="1"/>
        <pt x="266" y="419" on="0"/>
        <pt x="266" y="544" on="0"/>
        <pt x="248" y="590" on="0"/>
        <pt x="221" y="590" on="1"/>
        <pt x="179" y="590" on="0"/>
        <pt x="96" y="531" on="1"/>
        <pt x="58" y="583" on="1"/>
        <pt x="186" y="697" on="0"/>
        <pt x="304" y="697" on="1"/>
      </contour>
      <contour>
        <pt x="84" y="114" on="1"/>
        <pt x="84" y="93" on="0"/>
        <pt x="109" y="61" on="0"/>
        <pt x="129" y="61" on="1"/>
        <pt x="166" y="61" on="0"/>
        <pt x="230" y="183" on="0"/>
        <pt x="247" y="279" on="1"/>
        <pt x="173" y="252" on="0"/>
        <pt x="84" y="154" on="0"/>
      </contour>
      <contour>
        <pt x="437" y="881" on="1"/>
        <pt x="437" y="846" on="0"/>
        <pt x="400" y="830" on="1"/>
        <pt x="344" y="804" on="0"/>
        <pt x="140" y="768" on="1"/>
        <pt x="123" y="818" on="1"/>
        <pt x="246" y="878" on="0"/>
        <pt x="397" y="974" on="1"/>
        <pt x="408" y="959" on="0"/>
        <pt x="437" y="895" on="0"/>
      </contour>
    </TTGlyph>
    <TTGlyph name="Icircumflex" xMin="7" yMin="-37" xMax="471" yMax="971">
      <contour>
        <pt x="386" y="697" on="0"/>
        <pt x="450" y="584" on="0"/>
        <pt x="450" y="395" on="0"/>
        <pt x="411" y="215" on="0"/>
        <pt x="338" y="61" on="0"/>
        <pt x="220" y="-37" on="0"/>
        <pt x="83" y="-37" on="0"/>
        <pt x="7" y="42" on="0"/>
        <pt x="7" y="168" on="0"/>
        <pt x="131" y="311" on="0"/>
        <pt x="256" y="359" on="1"/>
        <pt x="266" y="419" on="0"/>
        <pt x="266" y="544" on="0"/>
        <pt x="248" y="590" on="0"/>
        <pt x="221" y="590" on="1"/>
        <pt x="179" y="590" on="0"/>
        <pt x="96" y="531" on="1"/>
        <pt x="58" y="583" on="1"/>
        <pt x="186" y="697" on="0"/>
        <pt x="304" y="697" on="1"/>
      </contour>
      <contour>
        <pt x="84" y="114" on="1"/>
        <pt x="84" y="93" on="0"/>
        <pt x="109" y="61" on="0"/>
        <pt x="129" y="61" on="1"/>
        <pt x="166" y="61" on="0"/>
        <pt x="230" y="183" on="0"/>
        <pt x="247" y="279" on="1"/>
        <pt x="173" y="252" on="0"/>
        <pt x="84" y="154" on="0"/>
      </contour>
      <contour>
        <pt x="127" y="868" on="0"/>
        <pt x="292" y="971" on="0"/>
        <pt x="359" y="971" on="0"/>
        <pt x="449" y="851" on="0"/>
        <pt x="471" y="806" on="1"/>
        <pt x="429" y="770" on="1"/>
        <pt x="339" y="829" on="0"/>
        <pt x="290" y="850" on="1"/>
        <pt x="212" y="827" on="0"/>
        <pt x="100" y="768" on="1"/>
        <pt x="68" y="815" on="1"/>
      </contour>
    </TTGlyph>
    <TTGlyph name="Idieresis" xMin="7" yMin="-37" xMax="473" yMax="943">
      <contour>
        <pt x="386" y="697" on="0"/>
        <pt x="450" y="584" on="0"/>
        <pt x="450" y="395" on="0"/>
        <pt x="411" y="215" on="0"/>
        <pt x="338" y="61" on="0"/>
        <pt x="220" y="-37" on="0"/>
        <pt x="83" y="-37" on="0"/>
        <pt x="7" y="42" on="0"/>
        <pt x="7" y="168" on="0"/>
        <pt x="131" y="311" on="0"/>
        <pt x="256" y="359" on="1"/>
        <pt x="266" y="419" on="0"/>
        <pt x="266" y="544" on="0"/>
        <pt x="248" y="590" on="0"/>
        <pt x="221" y="590" on="1"/>
        <pt x="179" y="590" on="0"/>
        <pt x="96" y="531" on="1"/>
        <pt x="58" y="583" on="1"/>
        <pt x="186" y="697" on="0"/>
        <pt x="304" y="697" on="1"/>
      </contour>
      <contour>
        <pt x="84" y="114" on="1"/>
        <pt x="84" y="93" on="0"/>
        <pt x="109" y="61" on="0"/>
        <pt x="129" y="61" on="1"/>
        <pt x="166" y="61" on="0"/>
        <pt x="230" y="183" on="0"/>
        <pt x="247" y="279" on="1"/>
        <pt x="173" y="252" on="0"/>
        <pt x="84" y="154" on="0"/>
      </contour>
      <contour>
        <pt x="137" y="797" on="0"/>
        <pt x="95" y="837" on="0"/>
        <pt x="95" y="900" on="0"/>
        <pt x="147" y="943" on="0"/>
        <pt x="221" y="943" on="0"/>
        <pt x="262" y="908" on="0"/>
        <pt x="262" y="844" on="0"/>
        <pt x="211" y="797" on="0"/>
      </contour>
      <contour>
        <pt x="348" y="797" on="0"/>
        <pt x="306" y="837" on="0"/>
        <pt x="306" y="900" on="0"/>
        <pt x="358" y="943" on="0"/>
        <pt x="432" y="943" on="0"/>
        <pt x="473" y="908" on="0"/>
        <pt x="473" y="844" on="0"/>
        <pt x="422" y="797" on="0"/>
      </contour>
    </TTGlyph>
    <TTGlyph name="Igrave" xMin="7" yMin="-37" xMax="465" yMax="963">
      <contour>
        <pt x="386" y="697" on="0"/>
        <pt x="450" y="584" on="0"/>
        <pt x="450" y="395" on="0"/>
        <pt x="411" y="215" on="0"/>
        <pt x="338" y="61" on="0"/>
        <pt x="220" y="-37" on="0"/>
        <pt x="83" y="-37" on="0"/>
        <pt x="7" y="42" on="0"/>
        <pt x="7" y="168" on="0"/>
        <pt x="131" y="311" on="0"/>
        <pt x="256" y="359" on="1"/>
        <pt x="266" y="419" on="0"/>
        <pt x="266" y="544" on="0"/>
        <pt x="248" y="590" on="0"/>
        <pt x="221" y="590" on="1"/>
        <pt x="179" y="590" on="0"/>
        <pt x="96" y="531" on="1"/>
        <pt x="58" y="583" on="1"/>
        <pt x="186" y="697" on="0"/>
        <pt x="304" y="697" on="1"/>
      </contour>
      <contour>
        <pt x="84" y="114" on="1"/>
        <pt x="84" y="93" on="0"/>
        <pt x="109" y="61" on="0"/>
        <pt x="129" y="61" on="1"/>
        <pt x="166" y="61" on="0"/>
        <pt x="230" y="183" on="0"/>
        <pt x="247" y="279" on="1"/>
        <pt x="173" y="252" on="0"/>
        <pt x="84" y="154" on="0"/>
      </contour>
      <contour>
        <pt x="206" y="963" on="1"/>
        <pt x="252" y="963" on="0"/>
        <pt x="465" y="814" on="1"/>
        <pt x="439" y="766" on="1"/>
        <pt x="293" y="818" on="0"/>
        <pt x="130" y="857" on="1"/>
        <pt x="166" y="963" on="0"/>
      </contour>
    </TTGlyph>
    <TTGlyph name="Itilde" xMin="7" yMin="-37" xMax="483" yMax="950">
      <contour>
        <pt x="386" y="697" on="0"/>
        <pt x="450" y="584" on="0"/>
        <pt x="450" y="395" on="0"/>
        <pt x="411" y="215" on="0"/>
        <pt x="338" y="61" on="0"/>
        <pt x="220" y="-37" on="0"/>
        <pt x="83" y="-37" on="0"/>
        <pt x="7" y="42" on="0"/>
        <pt x="7" y="168" on="0"/>
        <pt x="131" y="311" on="0"/>
        <pt x="256" y="359" on="1"/>
        <pt x="266" y="419" on="0"/>
        <pt x="266" y="544" on="0"/>
        <pt x="248" y="590" on="0"/>
        <pt x="221" y="590" on="1"/>
        <pt x="179" y="590" on="0"/>
        <pt x="96" y="531" on="1"/>
        <pt x="58" y="583" on="1"/>
        <pt x="186" y="697" on="0"/>
        <pt x="304" y="697" on="1"/>
      </contour>
      <contour>
        <pt x="84" y="114" on="1"/>
        <pt x="84" y="93" on="0"/>
        <pt x="109" y="61" on="0"/>
        <pt x="129" y="61" on="1"/>
        <pt x="166" y="61" on="0"/>
        <pt x="230" y="183" on="0"/>
        <pt x="247" y="279" on="1"/>
        <pt x="173" y="252" on="0"/>
        <pt x="84" y="154" on="0"/>
      </contour>
      <contour>
        <pt x="373" y="795" on="1"/>
        <pt x="352" y="795" on="0"/>
        <pt x="220" y="827" on="0"/>
        <pt x="177" y="827" on="0"/>
        <pt x="149" y="808" on="0"/>
        <pt x="135" y="782" on="1"/>
        <pt x="83" y="794" on="1"/>
        <pt x="97" y="945" on="0"/>
        <pt x="199" y="945" on="1"/>
        <pt x="221" y="945" on="0"/>
        <pt x="352" y="913" on="0"/>
        <pt x="398" y="913" on="0"/>
        <pt x="421" y="928" on="0"/>
        <pt x="433" y="950" on="1"/>
        <pt x="483" y="940" on="1"/>
        <pt x="469" y="795" on="0"/>
      </contour>
    </TTGlyph>
    <TTGlyph name="J" xMin="-79" yMin="-186" xMax="519" yMax="697">
      <contour>
        <pt x="175" y="213" on="1"/>
        <pt x="184" y="246" on="0"/>
        <pt x="212" y="443" on="0"/>
        <pt x="212" y="548" on="0"/>
        <pt x="192" y="589" on="0"/>
        <pt x="167" y="589" on="1"/>
        <pt x="120" y="589" on="0"/>
        <pt x="41" y="531" on="1"/>
        <pt x="2" y="583" on="1"/>
        <pt x="132" y="697" on="0"/>
        <pt x="254" y="697" on="1"/>
        <pt x="329" y="697" on="0"/>
        <pt x="396" y="590" on="0"/>
        <pt x="396" y="352" on="0"/>
        <pt x="379" y="256" on="1"/>
        <pt x="445" y="262" on="0"/>
        <pt x="516" y="262" on="1"/>
        <pt x="519" y="250" on="0"/>
        <pt x="519" y="204" on="0"/>
        <pt x="499" y="161" on="1"/>
        <pt x="458" y="168" on="0"/>
        <pt x="394" y="168" on="0"/>
        <pt x="360" y="166" on="1"/>
        <pt x="317" y="8" on="0"/>
        <pt x="156" y="-186" on="0"/>
        <pt x="60" y="-186" on="1"/>
        <pt x="-2" y="-186" on="0"/>
        <pt x="-79" y="-109" on="0"/>
        <pt x="-79" y="21" on="0"/>
        <pt x="45" y="162" on="0"/>
      </contour>
      <contour>
        <pt x="-2" y="-36" on="1"/>
        <pt x="-2" y="-60" on="0"/>
        <pt x="24" y="-88" on="0"/>
        <pt x="42" y="-88" on="1"/>
        <pt x="80" y="-88" on="0"/>
        <pt x="146" y="35" on="0"/>
        <pt x="163" y="131" on="1"/>
        <pt x="89" y="105" on="0"/>
        <pt x="-2" y="9" on="0"/>
      </contour>
    </TTGlyph>
    <TTGlyph name="Jcircumflex" xMin="-79" yMin="-186" xMax="519" yMax="971">
      <contour>
        <pt x="175" y="213" on="1"/>
        <pt x="184" y="246" on="0"/>
        <pt x="212" y="443" on="0"/>
        <pt x="212" y="548" on="0"/>
        <pt x="192" y="589" on="0"/>
        <pt x="167" y="589" on="1"/>
        <pt x="120" y="589" on="0"/>
        <pt x="41" y="531" on="1"/>
        <pt x="2" y="583" on="1"/>
        <pt x="132" y="697" on="0"/>
        <pt x="254" y="697" on="1"/>
        <pt x="329" y="697" on="0"/>
        <pt x="396" y="590" on="0"/>
        <pt x="396" y="352" on="0"/>
        <pt x="379" y="256" on="1"/>
        <pt x="445" y="262" on="0"/>
        <pt x="516" y="262" on="1"/>
        <pt x="519" y="250" on="0"/>
        <pt x="519" y="204" on="0"/>
        <pt x="499" y="161" on="1"/>
        <pt x="458" y="168" on="0"/>
        <pt x="394" y="168" on="0"/>
        <pt x="360" y="166" on="1"/>
        <pt x="317" y="8" on="0"/>
        <pt x="156" y="-186" on="0"/>
        <pt x="60" y="-186" on="1"/>
        <pt x="-2" y="-186" on="0"/>
        <pt x="-79" y="-109" on="0"/>
        <pt x="-79" y="21" on="0"/>
        <pt x="45" y="162" on="0"/>
      </contour>
      <contour>
        <pt x="83" y="868" on="0"/>
        <pt x="248" y="971" on="0"/>
        <pt x="315" y="971" on="0"/>
        <pt x="405" y="851" on="0"/>
        <pt x="427" y="806" on="1"/>
        <pt x="385" y="770" on="1"/>
        <pt x="295" y="829" on="0"/>
        <pt x="246" y="850" on="1"/>
        <pt x="168" y="827" on="0"/>
        <pt x="56" y="768" on="1"/>
        <pt x="24" y="815" on="1"/>
      </contour>
      <contour>
        <pt x="-2" y="-36" on="1"/>
        <pt x="-2" y="-60" on="0"/>
        <pt x="24" y="-88" on="0"/>
        <pt x="42" y="-88" on="1"/>
        <pt x="80" y="-88" on="0"/>
        <pt x="146" y="35" on="0"/>
        <pt x="163" y="131" on="1"/>
        <pt x="89" y="105" on="0"/>
        <pt x="-2" y="9" on="0"/>
      </contour>
    </TTGlyph>
    <TTGlyph name="K" xMin="44" yMin="-127" xMax="733" yMax="709">
      <contour>
        <pt x="726" y="638" on="1"/>
        <pt x="726" y="561" on="0"/>
        <pt x="597" y="407" on="0"/>
        <pt x="492" y="343" on="1"/>
        <pt x="515" y="317" on="0"/>
        <pt x="581" y="149" on="0"/>
        <pt x="613" y="81" on="0"/>
        <pt x="630" y="45" on="0"/>
        <pt x="646" y="15" on="1"/>
        <pt x="674" y="-38" on="0"/>
        <pt x="695" y="-38" on="1"/>
        <pt x="706" y="-38" on="0"/>
        <pt x="714" y="-34" on="1"/>
        <pt x="733" y="-87" on="1"/>
        <pt x="679" y="-127" on="0"/>
        <pt x="525" y="-127" on="0"/>
        <pt x="462" y="-64" on="0"/>
        <pt x="439" y="37" on="1"/>
        <pt x="438" y="41" on="0"/>
        <pt x="398" y="245" on="0"/>
        <pt x="385" y="283" on="1"/>
        <pt x="378" y="283" on="1"/>
        <pt x="352" y="283" on="0"/>
        <pt x="334" y="304" on="1"/>
        <pt x="326" y="310" on="0"/>
        <pt x="326" y="361" on="0"/>
        <pt x="333" y="384" on="0"/>
        <pt x="361" y="400" on="0"/>
        <pt x="404" y="400" on="0"/>
        <pt x="420" y="392" on="1"/>
        <pt x="472" y="434" on="0"/>
        <pt x="504" y="479" on="1"/>
        <pt x="530" y="526" on="0"/>
        <pt x="530" y="587" on="1"/>
        <pt x="530" y="616" on="0"/>
        <pt x="524" y="647" on="1"/>
        <pt x="564" y="671" on="0"/>
        <pt x="647" y="698" on="0"/>
        <pt x="668" y="700" on="1"/>
        <pt x="689" y="702" on="1"/>
        <pt x="705" y="695" on="0"/>
        <pt x="726" y="656" on="0"/>
      </contour>
      <contour>
        <pt x="165" y="616" on="1"/>
        <pt x="165" y="632" on="0"/>
        <pt x="156" y="649" on="0"/>
        <pt x="143" y="664" on="1"/>
        <pt x="143" y="678" on="1"/>
        <pt x="163" y="690" on="0"/>
        <pt x="252" y="709" on="0"/>
        <pt x="286" y="709" on="1"/>
        <pt x="331" y="709" on="0"/>
        <pt x="358" y="704" on="1"/>
        <pt x="364" y="693" on="0"/>
        <pt x="364" y="673" on="1"/>
        <pt x="364" y="594" on="0"/>
        <pt x="247" y="103" on="0"/>
        <pt x="239" y="11" on="1"/>
        <pt x="165" y="-6" on="0"/>
        <pt x="75" y="-6" on="1"/>
        <pt x="53" y="-6" on="0"/>
        <pt x="44" y="-3" on="1"/>
        <pt x="49" y="60" on="0"/>
        <pt x="165" y="550" on="0"/>
      </contour>
    </TTGlyph>
    <TTGlyph name="L" xMin="-26" yMin="-166" xMax="616" yMax="710">
      <contour>
        <pt x="421" y="15" on="0"/>
        <pt x="486" y="-12" on="0"/>
        <pt x="555" y="-12" on="0"/>
        <pt x="583" y="-4" on="1"/>
        <pt x="605" y="-35" on="0"/>
        <pt x="616" y="-65" on="1"/>
        <pt x="597" y="-105" on="0"/>
        <pt x="517" y="-166" on="0"/>
        <pt x="417" y="-166" on="0"/>
        <pt x="321" y="-91" on="0"/>
        <pt x="261" y="-25" on="1"/>
        <pt x="218" y="24" on="1"/>
        <pt x="162" y="-20" on="0"/>
        <pt x="40" y="-20" on="0"/>
        <pt x="-26" y="39" on="0"/>
        <pt x="-26" y="121" on="0"/>
        <pt x="38" y="179" on="0"/>
        <pt x="119" y="179" on="0"/>
        <pt x="155" y="168" on="1"/>
        <pt x="170" y="232" on="0"/>
        <pt x="176" y="311" on="1"/>
        <pt x="36" y="343" on="0"/>
        <pt x="36" y="475" on="1"/>
        <pt x="42" y="529" on="1"/>
        <pt x="52" y="530" on="0"/>
        <pt x="108" y="530" on="0"/>
        <pt x="134" y="517" on="1"/>
        <pt x="128" y="490" on="0"/>
        <pt x="128" y="475" on="1"/>
        <pt x="128" y="396" on="0"/>
        <pt x="181" y="387" on="1"/>
        <pt x="185" y="469" on="0"/>
        <pt x="188" y="500" on="1"/>
        <pt x="199" y="608" on="0"/>
        <pt x="328" y="710" on="0"/>
        <pt x="499" y="710" on="0"/>
        <pt x="589" y="627" on="0"/>
        <pt x="589" y="490" on="0"/>
        <pt x="438" y="340" on="0"/>
        <pt x="327" y="310" on="1"/>
        <pt x="306" y="214" on="0"/>
        <pt x="275" y="109" on="1"/>
        <pt x="352" y="56" on="0"/>
      </contour>
      <contour>
        <pt x="490" y="561" on="1"/>
        <pt x="490" y="586" on="0"/>
        <pt x="469" y="616" on="0"/>
        <pt x="451" y="616" on="1"/>
        <pt x="417" y="616" on="0"/>
        <pt x="377" y="545" on="0"/>
        <pt x="360" y="468" on="1"/>
        <pt x="345" y="396" on="1"/>
        <pt x="416" y="418" on="0"/>
        <pt x="490" y="513" on="0"/>
      </contour>
      <contour>
        <pt x="135" y="106" on="1"/>
        <pt x="112" y="123" on="0"/>
        <pt x="74" y="123" on="0"/>
        <pt x="54" y="103" on="0"/>
        <pt x="54" y="92" on="1"/>
        <pt x="54" y="66" on="0"/>
        <pt x="107" y="66" on="0"/>
      </contour>
    </TTGlyph>
    <TTGlyph name="Ldotaccent" xMin="-26" yMin="-166" xMax="616" yMax="710">
      <contour>
        <pt x="218" y="24" on="1"/>
        <pt x="159" y="-20" on="0"/>
        <pt x="40" y="-20" on="0"/>
        <pt x="-26" y="39" on="0"/>
        <pt x="-26" y="116" on="0"/>
        <pt x="22" y="169" on="0"/>
        <pt x="60" y="176" on="1"/>
        <pt x="84" y="184" on="0"/>
        <pt x="133" y="184" on="0"/>
        <pt x="158" y="178" on="1"/>
        <pt x="168" y="226" on="0"/>
        <pt x="175" y="305" on="1"/>
        <pt x="121" y="320" on="0"/>
        <pt x="87" y="354" on="1"/>
        <pt x="36" y="397" on="0"/>
        <pt x="36" y="475" on="1"/>
        <pt x="42" y="529" on="1"/>
        <pt x="52" y="530" on="0"/>
        <pt x="108" y="530" on="0"/>
        <pt x="134" y="517" on="1"/>
        <pt x="133" y="515" on="0"/>
        <pt x="133" y="514" on="1"/>
        <pt x="141" y="511" on="1"/>
        <pt x="135" y="484" on="0"/>
        <pt x="135" y="428" on="0"/>
        <pt x="148" y="404" on="1"/>
        <pt x="160" y="390" on="0"/>
        <pt x="181" y="387" on="1"/>
        <pt x="185" y="469" on="0"/>
        <pt x="188" y="500" on="1"/>
        <pt x="199" y="606" on="0"/>
        <pt x="324" y="708" on="0"/>
        <pt x="416" y="710" on="1"/>
        <pt x="430" y="710" on="1"/>
        <pt x="506" y="709" on="0"/>
        <pt x="596" y="626" on="0"/>
        <pt x="596" y="565" on="1"/>
        <pt x="596" y="490" on="0"/>
        <pt x="444" y="338" on="0"/>
        <pt x="334" y="308" on="1"/>
        <pt x="305" y="174" on="0"/>
        <pt x="287" y="118" on="1"/>
        <pt x="308" y="104" on="0"/>
        <pt x="379" y="52" on="0"/>
        <pt x="400" y="37" on="1"/>
        <pt x="471" y="-12" on="0"/>
        <pt x="555" y="-12" on="0"/>
        <pt x="583" y="-4" on="1"/>
        <pt x="586" y="-8" on="1"/>
        <pt x="587" y="-8" on="1"/>
        <pt x="608" y="-33" on="0"/>
        <pt x="616" y="-52" on="1"/>
        <pt x="613" y="-57" on="1"/>
        <pt x="616" y="-65" on="1"/>
        <pt x="597" y="-105" on="0"/>
        <pt x="517" y="-166" on="0"/>
        <pt x="417" y="-166" on="0"/>
        <pt x="321" y="-91" on="0"/>
        <pt x="261" y="-25" on="1"/>
      </contour>
      <contour>
        <pt x="432" y="115" on="0"/>
        <pt x="393" y="158" on="0"/>
        <pt x="393" y="227" on="0"/>
        <pt x="446" y="278" on="0"/>
        <pt x="517" y="278" on="0"/>
        <pt x="554" y="236" on="0"/>
        <pt x="554" y="169" on="0"/>
        <pt x="499" y="115" on="0"/>
      </contour>
      <contour>
        <pt x="454" y="616" on="1"/>
        <pt x="450" y="616" on="1"/>
        <pt x="402" y="616" on="0"/>
        <pt x="373" y="480" on="1"/>
        <pt x="368" y="464" on="0"/>
        <pt x="354" y="399" on="1"/>
        <pt x="421" y="422" on="0"/>
        <pt x="490" y="514" on="0"/>
        <pt x="490" y="561" on="1"/>
        <pt x="490" y="584" on="0"/>
        <pt x="471" y="615" on="0"/>
      </contour>
      <contour>
        <pt x="91" y="123" on="1"/>
        <pt x="85" y="122" on="1"/>
        <pt x="65" y="114" on="0"/>
        <pt x="65" y="72" on="0"/>
        <pt x="79" y="66" on="1"/>
        <pt x="107" y="66" on="0"/>
        <pt x="135" y="106" on="1"/>
        <pt x="112" y="123" on="0"/>
      </contour>
    </TTGlyph>
    <TTGlyph name="Lslash" xMin="-26" yMin="-166" xMax="616" yMax="710">
      <contour>
        <pt x="421" y="15" on="0"/>
        <pt x="486" y="-12" on="0"/>
        <pt x="555" y="-12" on="0"/>
        <pt x="583" y="-4" on="1"/>
        <pt x="605" y="-35" on="0"/>
        <pt x="616" y="-65" on="1"/>
        <pt x="597" y="-105" on="0"/>
        <pt x="517" y="-166" on="0"/>
        <pt x="417" y="-166" on="0"/>
        <pt x="321" y="-91" on="0"/>
        <pt x="261" y="-25" on="1"/>
        <pt x="218" y="24" on="1"/>
        <pt x="162" y="-20" on="0"/>
        <pt x="40" y="-20" on="0"/>
        <pt x="-26" y="39" on="0"/>
        <pt x="-26" y="121" on="0"/>
        <pt x="38" y="179" on="0"/>
        <pt x="119" y="179" on="0"/>
        <pt x="155" y="168" on="1"/>
        <pt x="158" y="180" on="0"/>
        <pt x="162" y="204" on="1"/>
        <pt x="126" y="200" on="0"/>
        <pt x="83" y="192" on="1"/>
        <pt x="79" y="243" on="1"/>
        <pt x="143" y="255" on="0"/>
        <pt x="170" y="259" on="1"/>
        <pt x="176" y="311" on="1"/>
        <pt x="36" y="343" on="0"/>
        <pt x="36" y="475" on="1"/>
        <pt x="42" y="529" on="1"/>
        <pt x="52" y="530" on="0"/>
        <pt x="108" y="530" on="0"/>
        <pt x="134" y="517" on="1"/>
        <pt x="128" y="490" on="0"/>
        <pt x="128" y="475" on="1"/>
        <pt x="128" y="396" on="0"/>
        <pt x="181" y="387" on="1"/>
        <pt x="185" y="469" on="0"/>
        <pt x="188" y="500" on="1"/>
        <pt x="199" y="608" on="0"/>
        <pt x="328" y="710" on="0"/>
        <pt x="499" y="710" on="0"/>
        <pt x="589" y="627" on="0"/>
        <pt x="589" y="490" on="0"/>
        <pt x="438" y="340" on="0"/>
        <pt x="327" y="310" on="1"/>
        <pt x="318" y="271" on="1"/>
        <pt x="335" y="272" on="0"/>
        <pt x="421" y="272" on="0"/>
        <pt x="451" y="266" on="1"/>
        <pt x="454" y="257" on="0"/>
        <pt x="454" y="248" on="1"/>
        <pt x="454" y="227" on="0"/>
        <pt x="439" y="199" on="1"/>
        <pt x="396" y="211" on="0"/>
        <pt x="321" y="211" on="1"/>
        <pt x="303" y="211" on="1"/>
        <pt x="289" y="155" on="0"/>
        <pt x="275" y="109" on="1"/>
        <pt x="352" y="56" on="0"/>
      </contour>
      <contour>
        <pt x="490" y="561" on="1"/>
        <pt x="490" y="586" on="0"/>
        <pt x="469" y="616" on="0"/>
        <pt x="451" y="616" on="1"/>
        <pt x="417" y="616" on="0"/>
        <pt x="377" y="545" on="0"/>
        <pt x="360" y="468" on="1"/>
        <pt x="345" y="396" on="1"/>
        <pt x="416" y="418" on="0"/>
        <pt x="490" y="513" on="0"/>
      </contour>
      <contour>
        <pt x="135" y="106" on="1"/>
        <pt x="112" y="123" on="0"/>
        <pt x="74" y="123" on="0"/>
        <pt x="54" y="103" on="0"/>
        <pt x="54" y="92" on="1"/>
        <pt x="54" y="66" on="0"/>
        <pt x="107" y="66" on="0"/>
      </contour>
    </TTGlyph>
    <TTGlyph name="M" xMin="17" yMin="-37" xMax="1058" yMax="710">
      <contour>
        <pt x="319" y="697" on="1"/>
        <pt x="408" y="697" on="0"/>
        <pt x="436" y="619" on="1"/>
        <pt x="561" y="710" on="0"/>
        <pt x="727" y="710" on="0"/>
        <pt x="754" y="643" on="1"/>
        <pt x="854" y="710" on="0"/>
        <pt x="929" y="710" on="1"/>
        <pt x="986" y="710" on="0"/>
        <pt x="1058" y="647" on="0"/>
        <pt x="1058" y="528" on="0"/>
        <pt x="971" y="190" on="0"/>
        <pt x="971" y="119" on="1"/>
        <pt x="971" y="93" on="0"/>
        <pt x="982" y="93" on="1"/>
        <pt x="1003" y="93" on="0"/>
        <pt x="1033" y="105" on="1"/>
        <pt x="1054" y="54" on="1"/>
        <pt x="961" y="-12" on="0"/>
        <pt x="870" y="-12" on="1"/>
        <pt x="827" y="-12" on="0"/>
        <pt x="775" y="40" on="0"/>
        <pt x="775" y="141" on="0"/>
        <pt x="859" y="480" on="0"/>
        <pt x="859" y="579" on="0"/>
        <pt x="817" y="579" on="1"/>
        <pt x="794" y="579" on="0"/>
        <pt x="762" y="560" on="1"/>
        <pt x="757" y="520" on="0"/>
        <pt x="734" y="422" on="1"/>
        <pt x="669" y="151" on="0"/>
        <pt x="664" y="13" on="1"/>
        <pt x="613" y="-4" on="0"/>
        <pt x="478" y="-4" on="1"/>
        <pt x="461" y="-4" on="1"/>
        <pt x="461" y="56" on="0"/>
        <pt x="564" y="482" on="0"/>
        <pt x="564" y="518" on="1"/>
        <pt x="564" y="579" on="0"/>
        <pt x="527" y="579" on="1"/>
        <pt x="506" y="579" on="0"/>
        <pt x="452" y="542" on="1"/>
        <pt x="454" y="506" on="0"/>
        <pt x="454" y="485" on="1"/>
        <pt x="454" y="341" on="0"/>
        <pt x="375" y="101" on="0"/>
        <pt x="237" y="-37" on="0"/>
        <pt x="154" y="-37" on="1"/>
        <pt x="92" y="-37" on="0"/>
        <pt x="17" y="43" on="0"/>
        <pt x="17" y="193" on="0"/>
        <pt x="147" y="397" on="0"/>
        <pt x="269" y="503" on="1"/>
        <pt x="269" y="553" on="0"/>
        <pt x="252" y="591" on="0"/>
        <pt x="234" y="591" on="1"/>
        <pt x="191" y="591" on="0"/>
        <pt x="105" y="529" on="1"/>
        <pt x="65" y="579" on="1"/>
        <pt x="112" y="624" on="0"/>
        <pt x="253" y="697" on="0"/>
      </contour>
      <contour>
        <pt x="95" y="122" on="1"/>
        <pt x="95" y="95" on="0"/>
        <pt x="119" y="61" on="0"/>
        <pt x="138" y="61" on="1"/>
        <pt x="186" y="61" on="0"/>
        <pt x="263" y="258" on="0"/>
        <pt x="270" y="409" on="1"/>
        <pt x="197" y="347" on="0"/>
        <pt x="95" y="180" on="0"/>
      </contour>
    </TTGlyph>
    <TTGlyph name="N" xMin="17" yMin="-37" xMax="799" yMax="710">
      <contour>
        <pt x="319" y="697" on="1"/>
        <pt x="413" y="697" on="0"/>
        <pt x="440" y="607" on="1"/>
        <pt x="485" y="640" on="0"/>
        <pt x="531" y="670" on="0"/>
        <pt x="628" y="710" on="0"/>
        <pt x="729" y="710" on="0"/>
        <pt x="799" y="647" on="0"/>
        <pt x="799" y="531" on="0"/>
        <pt x="713" y="188" on="0"/>
        <pt x="713" y="122" on="1"/>
        <pt x="713" y="93" on="0"/>
        <pt x="728" y="93" on="1"/>
        <pt x="745" y="93" on="0"/>
        <pt x="775" y="105" on="1"/>
        <pt x="796" y="54" on="1"/>
        <pt x="704" y="-12" on="0"/>
        <pt x="615" y="-12" on="1"/>
        <pt x="568" y="-12" on="0"/>
        <pt x="517" y="40" on="0"/>
        <pt x="517" y="140" on="0"/>
        <pt x="600" y="481" on="0"/>
        <pt x="600" y="578" on="0"/>
        <pt x="526" y="578" on="0"/>
        <pt x="452" y="528" on="1"/>
        <pt x="454" y="500" on="0"/>
        <pt x="454" y="485" on="1"/>
        <pt x="454" y="341" on="0"/>
        <pt x="375" y="101" on="0"/>
        <pt x="237" y="-37" on="0"/>
        <pt x="154" y="-37" on="1"/>
        <pt x="92" y="-37" on="0"/>
        <pt x="17" y="43" on="0"/>
        <pt x="17" y="193" on="0"/>
        <pt x="147" y="397" on="0"/>
        <pt x="269" y="503" on="1"/>
        <pt x="269" y="553" on="0"/>
        <pt x="252" y="591" on="0"/>
        <pt x="234" y="591" on="1"/>
        <pt x="191" y="591" on="0"/>
        <pt x="105" y="529" on="1"/>
        <pt x="65" y="579" on="1"/>
        <pt x="112" y="624" on="0"/>
        <pt x="253" y="697" on="0"/>
      </contour>
      <contour>
        <pt x="95" y="122" on="1"/>
        <pt x="95" y="95" on="0"/>
        <pt x="119" y="61" on="0"/>
        <pt x="138" y="61" on="1"/>
        <pt x="186" y="61" on="0"/>
        <pt x="263" y="258" on="0"/>
        <pt x="270" y="409" on="1"/>
        <pt x="197" y="347" on="0"/>
        <pt x="95" y="180" on="0"/>
      </contour>
    </TTGlyph>
    <TTGlyph name="Nacute" xMin="17" yMin="-37" xMax="799" yMax="974">
      <contour>
        <pt x="319" y="697" on="1"/>
        <pt x="413" y="697" on="0"/>
        <pt x="440" y="607" on="1"/>
        <pt x="485" y="640" on="0"/>
        <pt x="531" y="670" on="0"/>
        <pt x="628" y="710" on="0"/>
        <pt x="729" y="710" on="0"/>
        <pt x="799" y="647" on="0"/>
        <pt x="799" y="531" on="0"/>
        <pt x="713" y="188" on="0"/>
        <pt x="713" y="122" on="1"/>
        <pt x="713" y="93" on="0"/>
        <pt x="728" y="93" on="1"/>
        <pt x="745" y="93" on="0"/>
        <pt x="775" y="105" on="1"/>
        <pt x="796" y="54" on="1"/>
        <pt x="704" y="-12" on="0"/>
        <pt x="615" y="-12" on="1"/>
        <pt x="568" y="-12" on="0"/>
        <pt x="517" y="40" on="0"/>
        <pt x="517" y="140" on="0"/>
        <pt x="600" y="481" on="0"/>
        <pt x="600" y="578" on="0"/>
        <pt x="526" y="578" on="0"/>
        <pt x="452" y="528" on="1"/>
        <pt x="454" y="500" on="0"/>
        <pt x="454" y="485" on="1"/>
        <pt x="454" y="341" on="0"/>
        <pt x="375" y="101" on="0"/>
        <pt x="237" y="-37" on="0"/>
        <pt x="154" y="-37" on="1"/>
        <pt x="92" y="-37" on="0"/>
        <pt x="17" y="43" on="0"/>
        <pt x="17" y="193" on="0"/>
        <pt x="147" y="397" on="0"/>
        <pt x="269" y="503" on="1"/>
        <pt x="269" y="553" on="0"/>
        <pt x="252" y="591" on="0"/>
        <pt x="234" y="591" on="1"/>
        <pt x="191" y="591" on="0"/>
        <pt x="105" y="529" on="1"/>
        <pt x="65" y="579" on="1"/>
        <pt x="112" y="624" on="0"/>
        <pt x="253" y="697" on="0"/>
      </contour>
      <contour>
        <pt x="95" y="122" on="1"/>
        <pt x="95" y="95" on="0"/>
        <pt x="119" y="61" on="0"/>
        <pt x="138" y="61" on="1"/>
        <pt x="186" y="61" on="0"/>
        <pt x="263" y="258" on="0"/>
        <pt x="270" y="409" on="1"/>
        <pt x="197" y="347" on="0"/>
        <pt x="95" y="180" on="0"/>
      </contour>
      <contour>
        <pt x="734" y="881" on="1"/>
        <pt x="734" y="846" on="0"/>
        <pt x="697" y="830" on="1"/>
        <pt x="641" y="804" on="0"/>
        <pt x="437" y="768" on="1"/>
        <pt x="420" y="818" on="1"/>
        <pt x="543" y="878" on="0"/>
        <pt x="694" y="974" on="1"/>
        <pt x="705" y="959" on="0"/>
        <pt x="734" y="895" on="0"/>
      </contour>
    </TTGlyph>
    <TTGlyph name="Ntilde" xMin="17" yMin="-37" xMax="799" yMax="950">
      <contour>
        <pt x="319" y="697" on="1"/>
        <pt x="413" y="697" on="0"/>
        <pt x="440" y="607" on="1"/>
        <pt x="485" y="640" on="0"/>
        <pt x="531" y="670" on="0"/>
        <pt x="628" y="710" on="0"/>
        <pt x="729" y="710" on="0"/>
        <pt x="799" y="647" on="0"/>
        <pt x="799" y="531" on="0"/>
        <pt x="713" y="188" on="0"/>
        <pt x="713" y="122" on="1"/>
        <pt x="713" y="93" on="0"/>
        <pt x="728" y="93" on="1"/>
        <pt x="745" y="93" on="0"/>
        <pt x="775" y="105" on="1"/>
        <pt x="796" y="54" on="1"/>
        <pt x="704" y="-12" on="0"/>
        <pt x="615" y="-12" on="1"/>
        <pt x="568" y="-12" on="0"/>
        <pt x="517" y="40" on="0"/>
        <pt x="517" y="140" on="0"/>
        <pt x="600" y="481" on="0"/>
        <pt x="600" y="578" on="0"/>
        <pt x="526" y="578" on="0"/>
        <pt x="452" y="528" on="1"/>
        <pt x="454" y="500" on="0"/>
        <pt x="454" y="485" on="1"/>
        <pt x="454" y="341" on="0"/>
        <pt x="375" y="101" on="0"/>
        <pt x="237" y="-37" on="0"/>
        <pt x="154" y="-37" on="1"/>
        <pt x="92" y="-37" on="0"/>
        <pt x="17" y="43" on="0"/>
        <pt x="17" y="193" on="0"/>
        <pt x="147" y="397" on="0"/>
        <pt x="269" y="503" on="1"/>
        <pt x="269" y="553" on="0"/>
        <pt x="252" y="591" on="0"/>
        <pt x="234" y="591" on="1"/>
        <pt x="191" y="591" on="0"/>
        <pt x="105" y="529" on="1"/>
        <pt x="65" y="579" on="1"/>
        <pt x="112" y="624" on="0"/>
        <pt x="253" y="697" on="0"/>
      </contour>
      <contour>
        <pt x="650" y="795" on="1"/>
        <pt x="629" y="795" on="0"/>
        <pt x="497" y="827" on="0"/>
        <pt x="454" y="827" on="0"/>
        <pt x="426" y="808" on="0"/>
        <pt x="412" y="782" on="1"/>
        <pt x="360" y="794" on="1"/>
        <pt x="374" y="945" on="0"/>
        <pt x="476" y="945" on="1"/>
        <pt x="498" y="945" on="0"/>
        <pt x="629" y="913" on="0"/>
        <pt x="675" y="913" on="0"/>
        <pt x="698" y="928" on="0"/>
        <pt x="710" y="950" on="1"/>
        <pt x="760" y="940" on="1"/>
        <pt x="746" y="795" on="0"/>
      </contour>
      <contour>
        <pt x="95" y="122" on="1"/>
        <pt x="95" y="95" on="0"/>
        <pt x="119" y="61" on="0"/>
        <pt x="138" y="61" on="1"/>
        <pt x="186" y="61" on="0"/>
        <pt x="263" y="258" on="0"/>
        <pt x="270" y="409" on="1"/>
        <pt x="197" y="347" on="0"/>
        <pt x="95" y="180" on="0"/>
      </contour>
    </TTGlyph>
    <TTGlyph name="O" xMin="32" yMin="-12" xMax="768" yMax="709">
      <contour>
        <pt x="312" y="62" on="1"/>
        <pt x="354" y="62" on="0"/>
        <pt x="420" y="153" on="0"/>
        <pt x="437" y="226" on="1"/>
        <pt x="283" y="253" on="0"/>
        <pt x="283" y="428" on="1"/>
        <pt x="283" y="535" on="0"/>
        <pt x="394" y="685" on="0"/>
        <pt x="563" y="685" on="0"/>
        <pt x="657" y="550" on="0"/>
        <pt x="657" y="443" on="1"/>
        <pt x="657" y="385" on="0"/>
        <pt x="634" y="301" on="1"/>
        <pt x="681" y="307" on="0"/>
        <pt x="728" y="333" on="1"/>
        <pt x="745" y="342" on="1"/>
        <pt x="764" y="312" on="0"/>
        <pt x="767" y="274" on="1"/>
        <pt x="768" y="260" on="1"/>
        <pt x="746" y="247" on="0"/>
        <pt x="652" y="219" on="0"/>
        <pt x="609" y="216" on="1"/>
        <pt x="564" y="113" on="0"/>
        <pt x="401" y="-12" on="0"/>
        <pt x="159" y="-12" on="0"/>
        <pt x="32" y="143" on="0"/>
        <pt x="32" y="416" on="0"/>
        <pt x="166" y="645" on="0"/>
        <pt x="293" y="709" on="1"/>
        <pt x="327" y="655" on="1"/>
        <pt x="269" y="578" on="0"/>
        <pt x="229" y="402" on="0"/>
        <pt x="229" y="278" on="1"/>
        <pt x="229" y="62" on="0"/>
      </contour>
      <contour>
        <pt x="432" y="578" on="1"/>
        <pt x="409" y="578" on="0"/>
        <pt x="364" y="498" on="0"/>
        <pt x="364" y="382" on="0"/>
        <pt x="411" y="312" on="0"/>
        <pt x="451" y="307" on="1"/>
        <pt x="464" y="391" on="0"/>
        <pt x="464" y="578" on="0"/>
      </contour>
    </TTGlyph>
    <TTGlyph name="OE" xMin="32" yMin="-12" xMax="1043" yMax="747">
      <contour>
        <pt x="907" y="680" on="1"/>
        <pt x="874" y="680" on="0"/>
        <pt x="845" y="671" on="1"/>
        <pt x="890" y="636" on="0"/>
        <pt x="890" y="528" on="0"/>
        <pt x="829" y="444" on="0"/>
        <pt x="739" y="444" on="0"/>
        <pt x="685" y="500" on="0"/>
        <pt x="685" y="591" on="0"/>
        <pt x="707" y="630" on="1"/>
        <pt x="634" y="604" on="0"/>
        <pt x="634" y="489" on="1"/>
        <pt x="634" y="436" on="0"/>
        <pt x="650" y="394" on="1"/>
        <pt x="688" y="398" on="0"/>
        <pt x="705" y="398" on="1"/>
        <pt x="766" y="398" on="0"/>
        <pt x="833" y="357" on="0"/>
        <pt x="833" y="287" on="0"/>
        <pt x="780" y="236" on="0"/>
        <pt x="671" y="236" on="0"/>
        <pt x="605" y="275" on="1"/>
        <pt x="569" y="230" on="0"/>
        <pt x="569" y="146" on="0"/>
        <pt x="620" y="96" on="0"/>
        <pt x="707" y="96" on="0"/>
        <pt x="810" y="159" on="0"/>
        <pt x="845" y="199" on="1"/>
        <pt x="888" y="163" on="1"/>
        <pt x="761" y="-11" on="0"/>
        <pt x="598" y="-12" on="1"/>
        <pt x="494" y="-12" on="0"/>
        <pt x="430" y="39" on="1"/>
        <pt x="365" y="-12" on="0"/>
        <pt x="284" y="-12" on="1"/>
        <pt x="169" y="-12" on="0"/>
        <pt x="32" y="141" on="0"/>
        <pt x="32" y="264" on="1"/>
        <pt x="32" y="391" on="0"/>
        <pt x="96" y="506" on="1"/>
        <pt x="168" y="634" on="0"/>
        <pt x="276" y="684" on="1"/>
        <pt x="335" y="711" on="0"/>
        <pt x="402" y="711" on="1"/>
        <pt x="490" y="711" on="0"/>
        <pt x="549" y="661" on="1"/>
        <pt x="617" y="710" on="0"/>
        <pt x="714" y="710" on="1"/>
        <pt x="742" y="710" on="0"/>
        <pt x="777" y="703" on="1"/>
        <pt x="844" y="747" on="0"/>
        <pt x="1009" y="747" on="0"/>
        <pt x="1043" y="706" on="1"/>
        <pt x="1041" y="671" on="0"/>
        <pt x="1021" y="648" on="1"/>
        <pt x="1014" y="640" on="1"/>
        <pt x="977" y="680" on="0"/>
      </contour>
      <contour>
        <pt x="515" y="355" on="1"/>
        <pt x="466" y="422" on="0"/>
        <pt x="466" y="561" on="0"/>
        <pt x="495" y="605" on="1"/>
        <pt x="466" y="636" on="0"/>
        <pt x="374" y="636" on="0"/>
        <pt x="296" y="547" on="0"/>
        <pt x="274" y="480" on="1"/>
        <pt x="229" y="343" on="0"/>
        <pt x="229" y="215" on="1"/>
        <pt x="229" y="63" on="0"/>
        <pt x="311" y="63" on="1"/>
        <pt x="353" y="63" on="0"/>
        <pt x="386" y="96" on="1"/>
        <pt x="372" y="126" on="0"/>
        <pt x="372" y="164" on="1"/>
        <pt x="372" y="288" on="0"/>
      </contour>
      <contour>
        <pt x="811" y="564" on="1"/>
        <pt x="811" y="610" on="0"/>
        <pt x="778" y="627" on="1"/>
        <pt x="756" y="597" on="0"/>
        <pt x="756" y="509" on="0"/>
        <pt x="779" y="509" on="1"/>
        <pt x="793" y="509" on="0"/>
        <pt x="811" y="540" on="0"/>
      </contour>
      <contour>
        <pt x="757" y="327" on="0"/>
        <pt x="736" y="340" on="0"/>
        <pt x="701" y="340" on="0"/>
        <pt x="680" y="331" on="1"/>
        <pt x="703" y="299" on="0"/>
        <pt x="757" y="299" on="0"/>
        <pt x="757" y="317" on="1"/>
      </contour>
    </TTGlyph>
    <TTGlyph name="Oacute" xMin="32" yMin="-12" xMax="768" yMax="974">
      <contour>
        <pt x="312" y="62" on="1"/>
        <pt x="354" y="62" on="0"/>
        <pt x="420" y="153" on="0"/>
        <pt x="437" y="226" on="1"/>
        <pt x="283" y="253" on="0"/>
        <pt x="283" y="428" on="1"/>
        <pt x="283" y="535" on="0"/>
        <pt x="394" y="685" on="0"/>
        <pt x="563" y="685" on="0"/>
        <pt x="657" y="550" on="0"/>
        <pt x="657" y="443" on="1"/>
        <pt x="657" y="385" on="0"/>
        <pt x="634" y="301" on="1"/>
        <pt x="681" y="307" on="0"/>
        <pt x="728" y="333" on="1"/>
        <pt x="745" y="342" on="1"/>
        <pt x="764" y="312" on="0"/>
        <pt x="767" y="274" on="1"/>
        <pt x="768" y="260" on="1"/>
        <pt x="746" y="247" on="0"/>
        <pt x="652" y="219" on="0"/>
        <pt x="609" y="216" on="1"/>
        <pt x="564" y="113" on="0"/>
        <pt x="401" y="-12" on="0"/>
        <pt x="159" y="-12" on="0"/>
        <pt x="32" y="143" on="0"/>
        <pt x="32" y="416" on="0"/>
        <pt x="166" y="645" on="0"/>
        <pt x="293" y="709" on="1"/>
        <pt x="327" y="655" on="1"/>
        <pt x="269" y="578" on="0"/>
        <pt x="229" y="402" on="0"/>
        <pt x="229" y="278" on="1"/>
        <pt x="229" y="62" on="0"/>
      </contour>
      <contour>
        <pt x="432" y="578" on="1"/>
        <pt x="409" y="578" on="0"/>
        <pt x="364" y="498" on="0"/>
        <pt x="364" y="382" on="0"/>
        <pt x="411" y="312" on="0"/>
        <pt x="451" y="307" on="1"/>
        <pt x="464" y="391" on="0"/>
        <pt x="464" y="578" on="0"/>
      </contour>
      <contour>
        <pt x="601" y="881" on="1"/>
        <pt x="601" y="846" on="0"/>
        <pt x="564" y="830" on="1"/>
        <pt x="508" y="804" on="0"/>
        <pt x="304" y="768" on="1"/>
        <pt x="287" y="818" on="1"/>
        <pt x="410" y="878" on="0"/>
        <pt x="561" y="974" on="1"/>
        <pt x="572" y="959" on="0"/>
        <pt x="601" y="895" on="0"/>
      </contour>
    </TTGlyph>
    <TTGlyph name="Ocircumflex" xMin="32" yMin="-12" xMax="768" yMax="964">
      <contour>
        <pt x="312" y="62" on="1"/>
        <pt x="354" y="62" on="0"/>
        <pt x="420" y="153" on="0"/>
        <pt x="437" y="226" on="1"/>
        <pt x="283" y="253" on="0"/>
        <pt x="283" y="428" on="1"/>
        <pt x="283" y="535" on="0"/>
        <pt x="394" y="685" on="0"/>
        <pt x="563" y="685" on="0"/>
        <pt x="657" y="550" on="0"/>
        <pt x="657" y="443" on="1"/>
        <pt x="657" y="385" on="0"/>
        <pt x="634" y="301" on="1"/>
        <pt x="681" y="307" on="0"/>
        <pt x="728" y="333" on="1"/>
        <pt x="745" y="342" on="1"/>
        <pt x="764" y="312" on="0"/>
        <pt x="767" y="274" on="1"/>
        <pt x="768" y="260" on="1"/>
        <pt x="746" y="247" on="0"/>
        <pt x="652" y="219" on="0"/>
        <pt x="609" y="216" on="1"/>
        <pt x="564" y="113" on="0"/>
        <pt x="401" y="-12" on="0"/>
        <pt x="159" y="-12" on="0"/>
        <pt x="32" y="143" on="0"/>
        <pt x="32" y="416" on="0"/>
        <pt x="166" y="645" on="0"/>
        <pt x="293" y="709" on="1"/>
        <pt x="327" y="655" on="1"/>
        <pt x="269" y="578" on="0"/>
        <pt x="229" y="402" on="0"/>
        <pt x="229" y="278" on="1"/>
        <pt x="229" y="62" on="0"/>
      </contour>
      <contour>
        <pt x="432" y="578" on="1"/>
        <pt x="409" y="578" on="0"/>
        <pt x="364" y="498" on="0"/>
        <pt x="364" y="382" on="0"/>
        <pt x="411" y="312" on="0"/>
        <pt x="451" y="307" on="1"/>
        <pt x="464" y="391" on="0"/>
        <pt x="464" y="578" on="0"/>
      </contour>
      <contour>
        <pt x="273" y="861" on="0"/>
        <pt x="438" y="964" on="0"/>
        <pt x="505" y="964" on="0"/>
        <pt x="595" y="844" on="0"/>
        <pt x="617" y="799" on="1"/>
        <pt x="575" y="763" on="1"/>
        <pt x="485" y="822" on="0"/>
        <pt x="436" y="843" on="1"/>
        <pt x="358" y="820" on="0"/>
        <pt x="246" y="761" on="1"/>
        <pt x="214" y="808" on="1"/>
      </contour>
    </TTGlyph>
    <TTGlyph name="Odieresis" xMin="32" yMin="-12" xMax="768" yMax="943">
      <contour>
        <pt x="312" y="62" on="1"/>
        <pt x="354" y="62" on="0"/>
        <pt x="420" y="153" on="0"/>
        <pt x="437" y="226" on="1"/>
        <pt x="283" y="253" on="0"/>
        <pt x="283" y="428" on="1"/>
        <pt x="283" y="535" on="0"/>
        <pt x="394" y="685" on="0"/>
        <pt x="563" y="685" on="0"/>
        <pt x="657" y="550" on="0"/>
        <pt x="657" y="443" on="1"/>
        <pt x="657" y="385" on="0"/>
        <pt x="634" y="301" on="1"/>
        <pt x="681" y="307" on="0"/>
        <pt x="728" y="333" on="1"/>
        <pt x="745" y="342" on="1"/>
        <pt x="764" y="312" on="0"/>
        <pt x="767" y="274" on="1"/>
        <pt x="768" y="260" on="1"/>
        <pt x="746" y="247" on="0"/>
        <pt x="652" y="219" on="0"/>
        <pt x="609" y="216" on="1"/>
        <pt x="564" y="113" on="0"/>
        <pt x="401" y="-12" on="0"/>
        <pt x="159" y="-12" on="0"/>
        <pt x="32" y="143" on="0"/>
        <pt x="32" y="416" on="0"/>
        <pt x="166" y="645" on="0"/>
        <pt x="293" y="709" on="1"/>
        <pt x="327" y="655" on="1"/>
        <pt x="269" y="578" on="0"/>
        <pt x="229" y="402" on="0"/>
        <pt x="229" y="278" on="1"/>
        <pt x="229" y="62" on="0"/>
      </contour>
      <contour>
        <pt x="432" y="578" on="1"/>
        <pt x="409" y="578" on="0"/>
        <pt x="364" y="498" on="0"/>
        <pt x="364" y="382" on="0"/>
        <pt x="411" y="312" on="0"/>
        <pt x="451" y="307" on="1"/>
        <pt x="464" y="391" on="0"/>
        <pt x="464" y="578" on="0"/>
      </contour>
      <contour>
        <pt x="284" y="797" on="0"/>
        <pt x="242" y="837" on="0"/>
        <pt x="242" y="900" on="0"/>
        <pt x="294" y="943" on="0"/>
        <pt x="368" y="943" on="0"/>
        <pt x="409" y="908" on="0"/>
        <pt x="409" y="844" on="0"/>
        <pt x="358" y="797" on="0"/>
      </contour>
      <contour>
        <pt x="495" y="797" on="0"/>
        <pt x="453" y="837" on="0"/>
        <pt x="453" y="900" on="0"/>
        <pt x="505" y="943" on="0"/>
        <pt x="579" y="943" on="0"/>
        <pt x="620" y="908" on="0"/>
        <pt x="620" y="844" on="0"/>
        <pt x="569" y="797" on="0"/>
      </contour>
    </TTGlyph>
    <TTGlyph name="Ograve" xMin="32" yMin="-12" xMax="768" yMax="963">
      <contour>
        <pt x="312" y="62" on="1"/>
        <pt x="354" y="62" on="0"/>
        <pt x="420" y="153" on="0"/>
        <pt x="437" y="226" on="1"/>
        <pt x="283" y="253" on="0"/>
        <pt x="283" y="428" on="1"/>
        <pt x="283" y="535" on="0"/>
        <pt x="394" y="685" on="0"/>
        <pt x="563" y="685" on="0"/>
        <pt x="657" y="550" on="0"/>
        <pt x="657" y="443" on="1"/>
        <pt x="657" y="385" on="0"/>
        <pt x="634" y="301" on="1"/>
        <pt x="681" y="307" on="0"/>
        <pt x="728" y="333" on="1"/>
        <pt x="745" y="342" on="1"/>
        <pt x="764" y="312" on="0"/>
        <pt x="767" y="274" on="1"/>
        <pt x="768" y="260" on="1"/>
        <pt x="746" y="247" on="0"/>
        <pt x="652" y="219" on="0"/>
        <pt x="609" y="216" on="1"/>
        <pt x="564" y="113" on="0"/>
        <pt x="401" y="-12" on="0"/>
        <pt x="159" y="-12" on="0"/>
        <pt x="32" y="143" on="0"/>
        <pt x="32" y="416" on="0"/>
        <pt x="166" y="645" on="0"/>
        <pt x="293" y="709" on="1"/>
        <pt x="327" y="655" on="1"/>
        <pt x="269" y="578" on="0"/>
        <pt x="229" y="402" on="0"/>
        <pt x="229" y="278" on="1"/>
        <pt x="229" y="62" on="0"/>
      </contour>
      <contour>
        <pt x="432" y="578" on="1"/>
        <pt x="409" y="578" on="0"/>
        <pt x="364" y="498" on="0"/>
        <pt x="364" y="382" on="0"/>
        <pt x="411" y="312" on="0"/>
        <pt x="451" y="307" on="1"/>
        <pt x="464" y="391" on="0"/>
        <pt x="464" y="578" on="0"/>
      </contour>
      <contour>
        <pt x="296" y="963" on="1"/>
        <pt x="342" y="963" on="0"/>
        <pt x="555" y="814" on="1"/>
        <pt x="529" y="766" on="1"/>
        <pt x="383" y="818" on="0"/>
        <pt x="220" y="857" on="1"/>
        <pt x="256" y="963" on="0"/>
      </contour>
    </TTGlyph>
    <TTGlyph name="Oslash" xMin="31" yMin="-104" xMax="656" yMax="802">
      <contour>
        <pt x="561" y="776" on="1"/>
        <pt x="554" y="760" on="0"/>
        <pt x="524" y="682" on="1"/>
        <pt x="591" y="648" on="0"/>
        <pt x="656" y="516" on="0"/>
        <pt x="656" y="367" on="0"/>
        <pt x="613" y="215" on="0"/>
        <pt x="528" y="76" on="0"/>
        <pt x="378" y="-12" on="0"/>
        <pt x="282" y="-12" on="1"/>
        <pt x="269" y="-12" on="0"/>
        <pt x="249" y="-10" on="1"/>
        <pt x="215" y="-104" on="1"/>
        <pt x="201" y="-103" on="0"/>
        <pt x="175" y="-94" on="1"/>
        <pt x="148" y="-86" on="0"/>
        <pt x="132" y="-76" on="1"/>
        <pt x="147" y="-31" on="0"/>
        <pt x="165" y="14" on="1"/>
        <pt x="100" y="46" on="0"/>
        <pt x="31" y="182" on="0"/>
        <pt x="31" y="386" on="0"/>
        <pt x="122" y="585" on="0"/>
        <pt x="291" y="710" on="0"/>
        <pt x="395" y="710" on="1"/>
        <pt x="418" y="710" on="0"/>
        <pt x="437" y="707" on="1"/>
        <pt x="442" y="719" on="0"/>
        <pt x="474" y="802" on="1"/>
        <pt x="500" y="800" on="0"/>
        <pt x="554" y="782" on="0"/>
      </contour>
      <contour>
        <pt x="311" y="64" on="1"/>
        <pt x="351" y="64" on="0"/>
        <pt x="412" y="145" on="0"/>
        <pt x="428" y="209" on="1"/>
        <pt x="461" y="335" on="0"/>
        <pt x="461" y="470" on="1"/>
        <pt x="461" y="485" on="0"/>
        <pt x="459" y="521" on="1"/>
        <pt x="336" y="217" on="0"/>
        <pt x="279" y="70" on="1"/>
        <pt x="292" y="64" on="0"/>
      </contour>
      <contour>
        <pt x="228" y="181" on="1"/>
        <pt x="406" y="629" on="1"/>
        <pt x="394" y="634" on="0"/>
        <pt x="381" y="634" on="1"/>
        <pt x="343" y="634" on="0"/>
        <pt x="282" y="563" on="0"/>
        <pt x="264" y="506" on="1"/>
        <pt x="227" y="390" on="0"/>
        <pt x="227" y="257" on="1"/>
        <pt x="227" y="192" on="0"/>
      </contour>
    </TTGlyph>
    <TTGlyph name="Otilde" xMin="32" yMin="-12" xMax="768" yMax="950">
      <contour>
        <pt x="312" y="62" on="1"/>
        <pt x="354" y="62" on="0"/>
        <pt x="420" y="153" on="0"/>
        <pt x="437" y="226" on="1"/>
        <pt x="283" y="253" on="0"/>
        <pt x="283" y="428" on="1"/>
        <pt x="283" y="535" on="0"/>
        <pt x="394" y="685" on="0"/>
        <pt x="563" y="685" on="0"/>
        <pt x="657" y="550" on="0"/>
        <pt x="657" y="443" on="1"/>
        <pt x="657" y="385" on="0"/>
        <pt x="634" y="301" on="1"/>
        <pt x="681" y="307" on="0"/>
        <pt x="728" y="333" on="1"/>
        <pt x="745" y="342" on="1"/>
        <pt x="764" y="312" on="0"/>
        <pt x="767" y="274" on="1"/>
        <pt x="768" y="260" on="1"/>
        <pt x="746" y="247" on="0"/>
        <pt x="652" y="219" on="0"/>
        <pt x="609" y="216" on="1"/>
        <pt x="564" y="113" on="0"/>
        <pt x="401" y="-12" on="0"/>
        <pt x="159" y="-12" on="0"/>
        <pt x="32" y="143" on="0"/>
        <pt x="32" y="416" on="0"/>
        <pt x="166" y="645" on="0"/>
        <pt x="293" y="709" on="1"/>
        <pt x="327" y="655" on="1"/>
        <pt x="269" y="578" on="0"/>
        <pt x="229" y="402" on="0"/>
        <pt x="229" y="278" on="1"/>
        <pt x="229" y="62" on="0"/>
      </contour>
      <contour>
        <pt x="432" y="578" on="1"/>
        <pt x="409" y="578" on="0"/>
        <pt x="364" y="498" on="0"/>
        <pt x="364" y="382" on="0"/>
        <pt x="411" y="312" on="0"/>
        <pt x="451" y="307" on="1"/>
        <pt x="464" y="391" on="0"/>
        <pt x="464" y="578" on="0"/>
      </contour>
      <contour>
        <pt x="523" y="795" on="1"/>
        <pt x="502" y="795" on="0"/>
        <pt x="370" y="827" on="0"/>
        <pt x="327" y="827" on="0"/>
        <pt x="299" y="808" on="0"/>
        <pt x="285" y="782" on="1"/>
        <pt x="233" y="794" on="1"/>
        <pt x="247" y="945" on="0"/>
        <pt x="349" y="945" on="1"/>
        <pt x="371" y="945" on="0"/>
        <pt x="502" y="913" on="0"/>
        <pt x="548" y="913" on="0"/>
        <pt x="571" y="928" on="0"/>
        <pt x="583" y="950" on="1"/>
        <pt x="633" y="940" on="1"/>
        <pt x="619" y="795" on="0"/>
      </contour>
    </TTGlyph>
    <TTGlyph name="P" xMin="-43" yMin="-6" xMax="676" yMax="722">
      <contour>
        <pt x="168" y="485" on="1"/>
        <pt x="168" y="504" on="0"/>
        <pt x="159" y="522" on="0"/>
        <pt x="144" y="539" on="1"/>
        <pt x="144" y="553" on="1"/>
        <pt x="164" y="565" on="0"/>
        <pt x="254" y="584" on="0"/>
        <pt x="288" y="584" on="1"/>
        <pt x="343" y="584" on="0"/>
        <pt x="361" y="579" on="1"/>
        <pt x="367" y="569" on="0"/>
        <pt x="367" y="511" on="0"/>
        <pt x="323" y="341" on="1"/>
        <pt x="349" y="335" on="0"/>
        <pt x="377" y="335" on="1"/>
        <pt x="432" y="335" on="0"/>
        <pt x="485" y="446" on="0"/>
        <pt x="485" y="516" on="1"/>
        <pt x="485" y="644" on="0"/>
        <pt x="325" y="644" on="1"/>
        <pt x="203" y="644" on="0"/>
        <pt x="37" y="567" on="0"/>
        <pt x="37" y="511" on="1"/>
        <pt x="37" y="468" on="0"/>
        <pt x="97" y="456" on="1"/>
        <pt x="98" y="448" on="0"/>
        <pt x="98" y="437" on="1"/>
        <pt x="98" y="382" on="0"/>
        <pt x="80" y="354" on="1"/>
        <pt x="33" y="360" on="0"/>
        <pt x="-43" y="428" on="0"/>
        <pt x="-43" y="496" on="1"/>
        <pt x="-43" y="601" on="0"/>
        <pt x="184" y="722" on="0"/>
        <pt x="507" y="722" on="0"/>
        <pt x="676" y="623" on="0"/>
        <pt x="676" y="422" on="0"/>
        <pt x="528" y="268" on="0"/>
        <pt x="400" y="268" on="1"/>
        <pt x="345" y="268" on="0"/>
        <pt x="308" y="283" on="1"/>
        <pt x="263" y="105" on="0"/>
        <pt x="255" y="11" on="1"/>
        <pt x="183" y="-6" on="0"/>
        <pt x="93" y="-6" on="1"/>
        <pt x="69" y="-6" on="0"/>
        <pt x="60" y="-3" on="1"/>
        <pt x="65" y="59" on="0"/>
        <pt x="168" y="427" on="0"/>
      </contour>
    </TTGlyph>
    <TTGlyph name="Q" xMin="29" yMin="-315" xMax="718" yMax="709">
      <contour>
        <pt x="312" y="392" on="1"/>
        <pt x="350" y="404" on="0"/>
        <pt x="389" y="404" on="0"/>
        <pt x="395" y="404" on="1"/>
        <pt x="397" y="386" on="0"/>
        <pt x="397" y="369" on="1"/>
        <pt x="397" y="236" on="0"/>
        <pt x="297" y="72" on="0"/>
        <pt x="199" y="72" on="1"/>
        <pt x="130" y="72" on="0"/>
        <pt x="53" y="184" on="0"/>
        <pt x="53" y="397" on="0"/>
        <pt x="144" y="590" on="0"/>
        <pt x="316" y="709" on="0"/>
        <pt x="424" y="709" on="1"/>
        <pt x="493" y="709" on="0"/>
        <pt x="592" y="660" on="0"/>
        <pt x="618" y="618" on="1"/>
        <pt x="667" y="539" on="0"/>
        <pt x="667" y="431" on="1"/>
        <pt x="667" y="286" on="0"/>
        <pt x="518" y="19" on="0"/>
        <pt x="404" y="-69" on="1"/>
        <pt x="456" y="-98" on="0"/>
        <pt x="518" y="-129" on="0"/>
        <pt x="613" y="-159" on="0"/>
        <pt x="654" y="-159" on="1"/>
        <pt x="685" y="-156" on="1"/>
        <pt x="706" y="-182" on="0"/>
        <pt x="718" y="-222" on="1"/>
        <pt x="699" y="-260" on="0"/>
        <pt x="626" y="-315" on="0"/>
        <pt x="579" y="-315" on="1"/>
        <pt x="508" y="-315" on="0"/>
        <pt x="400" y="-215" on="1"/>
        <pt x="358" y="-176" on="0"/>
        <pt x="311" y="-129" on="1"/>
        <pt x="224" y="-174" on="0"/>
        <pt x="97" y="-174" on="0"/>
        <pt x="29" y="-118" on="0"/>
        <pt x="29" y="-35" on="0"/>
        <pt x="98" y="25" on="0"/>
        <pt x="222" y="25" on="0"/>
        <pt x="303" y="-14" on="1"/>
        <pt x="376" y="54" on="0"/>
        <pt x="470" y="282" on="0"/>
        <pt x="470" y="438" on="1"/>
        <pt x="470" y="631" on="0"/>
        <pt x="391" y="631" on="1"/>
        <pt x="347" y="631" on="0"/>
        <pt x="277" y="525" on="0"/>
        <pt x="240" y="362" on="0"/>
        <pt x="240" y="170" on="0"/>
        <pt x="259" y="170" on="1"/>
        <pt x="282" y="170" on="0"/>
        <pt x="315" y="271" on="0"/>
        <pt x="315" y="344" on="1"/>
        <pt x="315" y="347" on="0"/>
      </contour>
      <contour>
        <pt x="109" y="-63" on="1"/>
        <pt x="109" y="-91" on="0"/>
        <pt x="186" y="-91" on="0"/>
        <pt x="235" y="-65" on="1"/>
        <pt x="188" y="-31" on="0"/>
        <pt x="153" y="-31" on="1"/>
        <pt x="133" y="-31" on="0"/>
        <pt x="109" y="-50" on="0"/>
      </contour>
    </TTGlyph>
    <TTGlyph name="R" xMin="-45" yMin="-127" xMax="733" yMax="722">
      <contour>
        <pt x="327" y="356" on="0"/>
        <pt x="355" y="372" on="0"/>
        <pt x="397" y="372" on="0"/>
        <pt x="413" y="364" on="1"/>
        <pt x="485" y="420" on="0"/>
        <pt x="485" y="521" on="1"/>
        <pt x="485" y="585" on="0"/>
        <pt x="409" y="644" on="0"/>
        <pt x="329" y="644" on="1"/>
        <pt x="205" y="644" on="0"/>
        <pt x="35" y="567" on="0"/>
        <pt x="35" y="511" on="1"/>
        <pt x="35" y="488" on="0"/>
        <pt x="74" y="460" on="0"/>
        <pt x="95" y="456" on="1"/>
        <pt x="96" y="447" on="0"/>
        <pt x="96" y="434" on="1"/>
        <pt x="96" y="380" on="0"/>
        <pt x="78" y="354" on="1"/>
        <pt x="31" y="360" on="0"/>
        <pt x="-45" y="430" on="0"/>
        <pt x="-45" y="496" on="1"/>
        <pt x="-45" y="600" on="0"/>
        <pt x="186" y="722" on="0"/>
        <pt x="365" y="722" on="1"/>
        <pt x="508" y="722" on="0"/>
        <pt x="674" y="622" on="0"/>
        <pt x="674" y="526" on="1"/>
        <pt x="674" y="458" on="0"/>
        <pt x="569" y="350" on="0"/>
        <pt x="495" y="315" on="1"/>
        <pt x="531" y="280" on="0"/>
        <pt x="659" y="-38" on="0"/>
        <pt x="695" y="-38" on="1"/>
        <pt x="702" y="-38" on="0"/>
        <pt x="714" y="-34" on="1"/>
        <pt x="733" y="-87" on="1"/>
        <pt x="674" y="-127" on="0"/>
        <pt x="527" y="-127" on="0"/>
        <pt x="462" y="-63" on="0"/>
        <pt x="439" y="37" on="1"/>
        <pt x="435" y="54" on="0"/>
        <pt x="426" y="100" on="1"/>
        <pt x="403" y="209" on="0"/>
        <pt x="389" y="255" on="1"/>
        <pt x="372" y="255" on="1"/>
        <pt x="346" y="255" on="0"/>
        <pt x="328" y="276" on="1"/>
        <pt x="320" y="282" on="0"/>
        <pt x="320" y="333" on="0"/>
      </contour>
      <contour>
        <pt x="151" y="487" on="1"/>
        <pt x="151" y="506" on="0"/>
        <pt x="142" y="524" on="0"/>
        <pt x="127" y="541" on="1"/>
        <pt x="127" y="553" on="1"/>
        <pt x="147" y="565" on="0"/>
        <pt x="237" y="584" on="0"/>
        <pt x="271" y="584" on="1"/>
        <pt x="326" y="584" on="0"/>
        <pt x="344" y="579" on="1"/>
        <pt x="350" y="569" on="0"/>
        <pt x="350" y="507" on="0"/>
        <pt x="247" y="110" on="0"/>
        <pt x="238" y="11" on="1"/>
        <pt x="166" y="-6" on="0"/>
        <pt x="76" y="-6" on="1"/>
        <pt x="52" y="-6" on="0"/>
        <pt x="43" y="-3" on="1"/>
        <pt x="48" y="59" on="0"/>
        <pt x="151" y="429" on="0"/>
      </contour>
    </TTGlyph>
    <TTGlyph name="Racute" xMin="-45" yMin="-127" xMax="733" yMax="974">
      <contour>
        <pt x="327" y="356" on="0"/>
        <pt x="355" y="372" on="0"/>
        <pt x="397" y="372" on="0"/>
        <pt x="413" y="364" on="1"/>
        <pt x="485" y="420" on="0"/>
        <pt x="485" y="521" on="1"/>
        <pt x="485" y="585" on="0"/>
        <pt x="409" y="644" on="0"/>
        <pt x="329" y="644" on="1"/>
        <pt x="205" y="644" on="0"/>
        <pt x="35" y="567" on="0"/>
        <pt x="35" y="511" on="1"/>
        <pt x="35" y="488" on="0"/>
        <pt x="74" y="460" on="0"/>
        <pt x="95" y="456" on="1"/>
        <pt x="96" y="447" on="0"/>
        <pt x="96" y="434" on="1"/>
        <pt x="96" y="380" on="0"/>
        <pt x="78" y="354" on="1"/>
        <pt x="31" y="360" on="0"/>
        <pt x="-45" y="430" on="0"/>
        <pt x="-45" y="496" on="1"/>
        <pt x="-45" y="600" on="0"/>
        <pt x="186" y="722" on="0"/>
        <pt x="365" y="722" on="1"/>
        <pt x="508" y="722" on="0"/>
        <pt x="674" y="622" on="0"/>
        <pt x="674" y="526" on="1"/>
        <pt x="674" y="458" on="0"/>
        <pt x="569" y="350" on="0"/>
        <pt x="495" y="315" on="1"/>
        <pt x="531" y="280" on="0"/>
        <pt x="659" y="-38" on="0"/>
        <pt x="695" y="-38" on="1"/>
        <pt x="702" y="-38" on="0"/>
        <pt x="714" y="-34" on="1"/>
        <pt x="733" y="-87" on="1"/>
        <pt x="674" y="-127" on="0"/>
        <pt x="527" y="-127" on="0"/>
        <pt x="462" y="-63" on="0"/>
        <pt x="439" y="37" on="1"/>
        <pt x="435" y="54" on="0"/>
        <pt x="426" y="100" on="1"/>
        <pt x="403" y="209" on="0"/>
        <pt x="389" y="255" on="1"/>
        <pt x="372" y="255" on="1"/>
        <pt x="346" y="255" on="0"/>
        <pt x="328" y="276" on="1"/>
        <pt x="320" y="282" on="0"/>
        <pt x="320" y="333" on="0"/>
      </contour>
      <contour>
        <pt x="151" y="487" on="1"/>
        <pt x="151" y="506" on="0"/>
        <pt x="142" y="524" on="0"/>
        <pt x="127" y="541" on="1"/>
        <pt x="127" y="553" on="1"/>
        <pt x="147" y="565" on="0"/>
        <pt x="237" y="584" on="0"/>
        <pt x="271" y="584" on="1"/>
        <pt x="326" y="584" on="0"/>
        <pt x="344" y="579" on="1"/>
        <pt x="350" y="569" on="0"/>
        <pt x="350" y="507" on="0"/>
        <pt x="247" y="110" on="0"/>
        <pt x="238" y="11" on="1"/>
        <pt x="166" y="-6" on="0"/>
        <pt x="76" y="-6" on="1"/>
        <pt x="52" y="-6" on="0"/>
        <pt x="43" y="-3" on="1"/>
        <pt x="48" y="59" on="0"/>
        <pt x="151" y="429" on="0"/>
      </contour>
      <contour>
        <pt x="531" y="881" on="1"/>
        <pt x="531" y="846" on="0"/>
        <pt x="494" y="830" on="1"/>
        <pt x="438" y="804" on="0"/>
        <pt x="234" y="768" on="1"/>
        <pt x="217" y="818" on="1"/>
        <pt x="340" y="878" on="0"/>
        <pt x="491" y="974" on="1"/>
        <pt x="502" y="959" on="0"/>
        <pt x="531" y="895" on="0"/>
      </contour>
    </TTGlyph>
    <TTGlyph name="Rcaron" xMin="-45" yMin="-127" xMax="733" yMax="974">
      <contour>
        <pt x="327" y="356" on="0"/>
        <pt x="355" y="372" on="0"/>
        <pt x="397" y="372" on="0"/>
        <pt x="413" y="364" on="1"/>
        <pt x="485" y="420" on="0"/>
        <pt x="485" y="521" on="1"/>
        <pt x="485" y="585" on="0"/>
        <pt x="409" y="644" on="0"/>
        <pt x="329" y="644" on="1"/>
        <pt x="205" y="644" on="0"/>
        <pt x="35" y="567" on="0"/>
        <pt x="35" y="511" on="1"/>
        <pt x="35" y="488" on="0"/>
        <pt x="74" y="460" on="0"/>
        <pt x="95" y="456" on="1"/>
        <pt x="96" y="447" on="0"/>
        <pt x="96" y="434" on="1"/>
        <pt x="96" y="380" on="0"/>
        <pt x="78" y="354" on="1"/>
        <pt x="31" y="360" on="0"/>
        <pt x="-45" y="430" on="0"/>
        <pt x="-45" y="496" on="1"/>
        <pt x="-45" y="600" on="0"/>
        <pt x="186" y="722" on="0"/>
        <pt x="365" y="722" on="1"/>
        <pt x="508" y="722" on="0"/>
        <pt x="674" y="622" on="0"/>
        <pt x="674" y="526" on="1"/>
        <pt x="674" y="458" on="0"/>
        <pt x="569" y="350" on="0"/>
        <pt x="495" y="315" on="1"/>
        <pt x="531" y="280" on="0"/>
        <pt x="659" y="-38" on="0"/>
        <pt x="695" y="-38" on="1"/>
        <pt x="702" y="-38" on="0"/>
        <pt x="714" y="-34" on="1"/>
        <pt x="733" y="-87" on="1"/>
        <pt x="674" y="-127" on="0"/>
        <pt x="527" y="-127" on="0"/>
        <pt x="462" y="-63" on="0"/>
        <pt x="439" y="37" on="1"/>
        <pt x="435" y="54" on="0"/>
        <pt x="426" y="100" on="1"/>
        <pt x="403" y="209" on="0"/>
        <pt x="389" y="255" on="1"/>
        <pt x="372" y="255" on="1"/>
        <pt x="346" y="255" on="0"/>
        <pt x="328" y="276" on="1"/>
        <pt x="320" y="282" on="0"/>
        <pt x="320" y="333" on="0"/>
      </contour>
      <contour>
        <pt x="151" y="487" on="1"/>
        <pt x="151" y="506" on="0"/>
        <pt x="142" y="524" on="0"/>
        <pt x="127" y="541" on="1"/>
        <pt x="127" y="553" on="1"/>
        <pt x="147" y="565" on="0"/>
        <pt x="237" y="584" on="0"/>
        <pt x="271" y="584" on="1"/>
        <pt x="326" y="584" on="0"/>
        <pt x="344" y="579" on="1"/>
        <pt x="350" y="569" on="0"/>
        <pt x="350" y="507" on="0"/>
        <pt x="247" y="110" on="0"/>
        <pt x="238" y="11" on="1"/>
        <pt x="166" y="-6" on="0"/>
        <pt x="76" y="-6" on="1"/>
        <pt x="52" y="-6" on="0"/>
        <pt x="43" y="-3" on="1"/>
        <pt x="48" y="59" on="0"/>
        <pt x="151" y="429" on="0"/>
      </contour>
      <contour>
        <pt x="550" y="872" on="0"/>
        <pt x="371" y="773" on="0"/>
        <pt x="315" y="773" on="0"/>
        <pt x="217" y="888" on="0"/>
        <pt x="195" y="925" on="1"/>
        <pt x="244" y="972" on="1"/>
        <pt x="322" y="918" on="0"/>
        <pt x="376" y="896" on="1"/>
        <pt x="485" y="931" on="0"/>
        <pt x="566" y="974" on="1"/>
        <pt x="603" y="918" on="1"/>
      </contour>
    </TTGlyph>
    <TTGlyph name="Rcommaaccent" xMin="-45" yMin="-277" xMax="733" yMax="722">
      <contour>
        <pt x="327" y="356" on="0"/>
        <pt x="355" y="372" on="0"/>
        <pt x="397" y="372" on="0"/>
        <pt x="413" y="364" on="1"/>
        <pt x="485" y="420" on="0"/>
        <pt x="485" y="521" on="1"/>
        <pt x="485" y="585" on="0"/>
        <pt x="409" y="644" on="0"/>
        <pt x="329" y="644" on="1"/>
        <pt x="205" y="644" on="0"/>
        <pt x="35" y="567" on="0"/>
        <pt x="35" y="511" on="1"/>
        <pt x="35" y="488" on="0"/>
        <pt x="74" y="460" on="0"/>
        <pt x="95" y="456" on="1"/>
        <pt x="96" y="447" on="0"/>
        <pt x="96" y="434" on="1"/>
        <pt x="96" y="380" on="0"/>
        <pt x="78" y="354" on="1"/>
        <pt x="31" y="360" on="0"/>
        <pt x="-45" y="430" on="0"/>
        <pt x="-45" y="496" on="1"/>
        <pt x="-45" y="600" on="0"/>
        <pt x="186" y="722" on="0"/>
        <pt x="365" y="722" on="1"/>
        <pt x="508" y="722" on="0"/>
        <pt x="674" y="622" on="0"/>
        <pt x="674" y="526" on="1"/>
        <pt x="674" y="458" on="0"/>
        <pt x="569" y="350" on="0"/>
        <pt x="495" y="315" on="1"/>
        <pt x="531" y="280" on="0"/>
        <pt x="659" y="-38" on="0"/>
        <pt x="695" y="-38" on="1"/>
        <pt x="702" y="-38" on="0"/>
        <pt x="714" y="-34" on="1"/>
        <pt x="733" y="-87" on="1"/>
        <pt x="674" y="-127" on="0"/>
        <pt x="527" y="-127" on="0"/>
        <pt x="462" y="-63" on="0"/>
        <pt x="439" y="37" on="1"/>
        <pt x="435" y="54" on="0"/>
        <pt x="426" y="100" on="1"/>
        <pt x="403" y="209" on="0"/>
        <pt x="389" y="255" on="1"/>
        <pt x="372" y="255" on="1"/>
        <pt x="346" y="255" on="0"/>
        <pt x="328" y="276" on="1"/>
        <pt x="320" y="282" on="0"/>
        <pt x="320" y="333" on="0"/>
      </contour>
      <contour>
        <pt x="151" y="487" on="1"/>
        <pt x="151" y="506" on="0"/>
        <pt x="142" y="524" on="0"/>
        <pt x="127" y="541" on="1"/>
        <pt x="127" y="553" on="1"/>
        <pt x="147" y="565" on="0"/>
        <pt x="237" y="584" on="0"/>
        <pt x="271" y="584" on="1"/>
        <pt x="326" y="584" on="0"/>
        <pt x="344" y="579" on="1"/>
        <pt x="350" y="569" on="0"/>
        <pt x="350" y="507" on="0"/>
        <pt x="247" y="110" on="0"/>
        <pt x="238" y="11" on="1"/>
        <pt x="166" y="-6" on="0"/>
        <pt x="76" y="-6" on="1"/>
        <pt x="52" y="-6" on="0"/>
        <pt x="43" y="-3" on="1"/>
        <pt x="48" y="59" on="0"/>
        <pt x="151" y="429" on="0"/>
      </contour>
      <contour>
        <pt x="409" y="-104" on="1"/>
        <pt x="409" y="-188" on="0"/>
        <pt x="308" y="-277" on="1"/>
        <pt x="257" y="-252" on="1"/>
        <pt x="277" y="-208" on="0"/>
        <pt x="282" y="-168" on="1"/>
        <pt x="219" y="-113" on="1"/>
        <pt x="231" y="-82" on="0"/>
        <pt x="280" y="-24" on="0"/>
        <pt x="301" y="-20" on="1"/>
        <pt x="341" y="-20" on="0"/>
        <pt x="409" y="-70" on="0"/>
      </contour>
    </TTGlyph>
    <TTGlyph name="S" xMin="-37" yMin="-20" xMax="678" yMax="710">
      <contour>
        <pt x="238" y="-20" on="0"/>
        <pt x="153" y="41" on="0"/>
        <pt x="153" y="148" on="0"/>
        <pt x="234" y="218" on="0"/>
        <pt x="295" y="236" on="1"/>
        <pt x="274" y="273" on="0"/>
        <pt x="220" y="355" on="1"/>
        <pt x="183" y="348" on="0"/>
        <pt x="155" y="348" on="1"/>
        <pt x="65" y="348" on="0"/>
        <pt x="-37" y="438" on="0"/>
        <pt x="-37" y="514" on="1"/>
        <pt x="-37" y="554" on="0"/>
        <pt x="-26" y="587" on="1"/>
        <pt x="-22" y="599" on="1"/>
        <pt x="32" y="598" on="0"/>
        <pt x="61" y="587" on="1"/>
        <pt x="44" y="550" on="0"/>
        <pt x="44" y="471" on="0"/>
        <pt x="107" y="418" on="0"/>
        <pt x="151" y="418" on="1"/>
        <pt x="166" y="418" on="0"/>
        <pt x="181" y="421" on="1"/>
        <pt x="140" y="496" on="0"/>
        <pt x="140" y="548" on="1"/>
        <pt x="140" y="623" on="0"/>
        <pt x="273" y="710" on="0"/>
        <pt x="442" y="710" on="0"/>
        <pt x="534" y="639" on="0"/>
        <pt x="534" y="534" on="0"/>
        <pt x="458" y="445" on="0"/>
        <pt x="411" y="417" on="1"/>
        <pt x="472" y="336" on="0"/>
        <pt x="500" y="250" on="1"/>
        <pt x="571" y="247" on="0"/>
        <pt x="678" y="215" on="1"/>
        <pt x="675" y="168" on="0"/>
        <pt x="640" y="120" on="1"/>
        <pt x="589" y="158" on="0"/>
        <pt x="514" y="170" on="1"/>
        <pt x="513" y="92" on="0"/>
        <pt x="385" y="-20" on="0"/>
        <pt x="302" y="-20" on="1"/>
      </contour>
      <contour>
        <pt x="400" y="495" on="0"/>
        <pt x="441" y="552" on="0"/>
        <pt x="441" y="606" on="0"/>
        <pt x="405" y="633" on="0"/>
        <pt x="349" y="633" on="0"/>
        <pt x="313" y="606" on="0"/>
        <pt x="313" y="584" on="1"/>
        <pt x="313" y="551" on="0"/>
        <pt x="369" y="481" on="1"/>
      </contour>
      <contour>
        <pt x="303" y="64" on="0"/>
        <pt x="328" y="108" on="0"/>
        <pt x="328" y="152" on="0"/>
        <pt x="322" y="176" on="1"/>
        <pt x="241" y="162" on="0"/>
        <pt x="241" y="111" on="1"/>
        <pt x="241" y="92" on="0"/>
        <pt x="264" y="64" on="0"/>
      </contour>
    </TTGlyph>
    <TTGlyph name="T" xMin="-33" yMin="-20" xMax="717" yMax="749">
      <contour>
        <pt x="591" y="103" on="0"/>
        <pt x="465" y="-20" on="0"/>
        <pt x="259" y="-20" on="0"/>
        <pt x="201" y="42" on="1"/>
        <pt x="139" y="108" on="0"/>
        <pt x="139" y="200" on="1"/>
        <pt x="139" y="211" on="0"/>
        <pt x="140" y="228" on="1"/>
        <pt x="89" y="185" on="0"/>
        <pt x="45" y="95" on="1"/>
        <pt x="-12" y="121" on="0"/>
        <pt x="-33" y="161" on="1"/>
        <pt x="45" y="280" on="0"/>
        <pt x="165" y="326" on="1"/>
        <pt x="215" y="448" on="0"/>
        <pt x="344" y="575" on="1"/>
        <pt x="280" y="601" on="0"/>
        <pt x="147" y="601" on="0"/>
        <pt x="90" y="560" on="1"/>
        <pt x="57" y="576" on="0"/>
        <pt x="52" y="586" on="1"/>
        <pt x="52" y="649" on="0"/>
        <pt x="114" y="749" on="0"/>
        <pt x="175" y="749" on="1"/>
        <pt x="237" y="749" on="0"/>
        <pt x="370" y="680" on="1"/>
        <pt x="419" y="655" on="0"/>
        <pt x="434" y="651" on="1"/>
        <pt x="477" y="682" on="0"/>
        <pt x="578" y="722" on="0"/>
        <pt x="656" y="722" on="0"/>
        <pt x="717" y="679" on="0"/>
        <pt x="717" y="589" on="0"/>
        <pt x="652" y="522" on="0"/>
        <pt x="594" y="522" on="1"/>
        <pt x="564" y="522" on="0"/>
        <pt x="495" y="540" on="1"/>
        <pt x="423" y="462" on="0"/>
        <pt x="375" y="356" on="1"/>
        <pt x="456" y="354" on="0"/>
        <pt x="591" y="262" on="0"/>
      </contour>
      <contour>
        <pt x="375" y="286" on="1"/>
        <pt x="365" y="286" on="0"/>
        <pt x="347" y="284" on="1"/>
        <pt x="333" y="234" on="0"/>
        <pt x="333" y="138" on="0"/>
        <pt x="378" y="73" on="0"/>
        <pt x="446" y="73" on="0"/>
        <pt x="490" y="143" on="0"/>
        <pt x="490" y="231" on="0"/>
        <pt x="421" y="286" on="0"/>
      </contour>
      <contour>
        <pt x="646" y="624" on="1"/>
        <pt x="646" y="646" on="0"/>
        <pt x="622" y="646" on="1"/>
        <pt x="586" y="646" on="0"/>
        <pt x="546" y="600" on="1"/>
        <pt x="563" y="588" on="0"/>
        <pt x="592" y="588" on="1"/>
        <pt x="646" y="588" on="0"/>
      </contour>
    </TTGlyph>
    <TTGlyph name="Thorn" xMin="41" yMin="-3" xMax="607" yMax="710">
      <contour>
        <pt x="54" y="-3" on="1"/>
        <pt x="41" y="-3" on="1"/>
        <pt x="41" y="46" on="0"/>
        <pt x="157" y="538" on="0"/>
        <pt x="157" y="589" on="1"/>
        <pt x="157" y="605" on="0"/>
        <pt x="136" y="647" on="0"/>
        <pt x="126" y="660" on="1"/>
        <pt x="116" y="673" on="1"/>
        <pt x="119" y="693" on="1"/>
        <pt x="175" y="710" on="0"/>
        <pt x="339" y="710" on="1"/>
        <pt x="357" y="694" on="0"/>
        <pt x="357" y="637" on="1"/>
        <pt x="357" y="629" on="0"/>
        <pt x="353" y="597" on="1"/>
        <pt x="363" y="598" on="0"/>
        <pt x="382" y="598" on="1"/>
        <pt x="607" y="598" on="0"/>
        <pt x="607" y="428" on="1"/>
        <pt x="607" y="316" on="0"/>
        <pt x="444" y="161" on="0"/>
        <pt x="290" y="161" on="1"/>
        <pt x="258" y="161" on="1"/>
        <pt x="242" y="75" on="0"/>
        <pt x="242" y="17" on="1"/>
        <pt x="196" y="-3" on="0"/>
      </contour>
      <contour>
        <pt x="412" y="477" on="0"/>
        <pt x="387" y="524" on="0"/>
        <pt x="350" y="524" on="0"/>
        <pt x="337" y="519" on="1"/>
        <pt x="276" y="255" on="0"/>
        <pt x="274" y="245" on="1"/>
        <pt x="278" y="245" on="1"/>
        <pt x="340" y="245" on="0"/>
        <pt x="412" y="354" on="0"/>
        <pt x="412" y="440" on="1"/>
      </contour>
    </TTGlyph>
    <TTGlyph name="U" xMin="3" yMin="-13" xMax="812" yMax="710">
      <contour>
        <pt x="415" y="517" on="0"/>
        <pt x="309" y="192" on="0"/>
        <pt x="309" y="110" on="0"/>
        <pt x="378" y="110" on="0"/>
        <pt x="434" y="162" on="1"/>
        <pt x="438" y="218" on="0"/>
        <pt x="452" y="287" on="1"/>
        <pt x="496" y="510" on="0"/>
        <pt x="622" y="710" on="0"/>
        <pt x="706" y="710" on="1"/>
        <pt x="759" y="710" on="0"/>
        <pt x="812" y="655" on="0"/>
        <pt x="812" y="610" on="1"/>
        <pt x="812" y="531" on="0"/>
        <pt x="701" y="328" on="0"/>
        <pt x="625" y="238" on="1"/>
        <pt x="623" y="198" on="0"/>
        <pt x="623" y="135" on="0"/>
        <pt x="633" y="81" on="0"/>
        <pt x="651" y="81" on="1"/>
        <pt x="666" y="81" on="0"/>
        <pt x="690" y="89" on="1"/>
        <pt x="708" y="37" on="1"/>
        <pt x="631" y="-12" on="0"/>
        <pt x="560" y="-12" on="1"/>
        <pt x="461" y="-12" on="0"/>
        <pt x="439" y="73" on="1"/>
        <pt x="325" y="-13" on="0"/>
        <pt x="228" y="-13" on="1"/>
        <pt x="174" y="-13" on="0"/>
        <pt x="113" y="51" on="0"/>
        <pt x="113" y="153" on="0"/>
        <pt x="163" y="318" on="1"/>
        <pt x="3" y="393" on="0"/>
        <pt x="3" y="502" on="1"/>
        <pt x="3" y="563" on="0"/>
        <pt x="88" y="662" on="0"/>
        <pt x="201" y="710" on="0"/>
        <pt x="329" y="710" on="0"/>
        <pt x="415" y="645" on="0"/>
      </contour>
      <contour>
        <pt x="219" y="569" on="1"/>
        <pt x="219" y="620" on="0"/>
        <pt x="182" y="620" on="1"/>
        <pt x="148" y="620" on="0"/>
        <pt x="84" y="556" on="0"/>
        <pt x="84" y="514" on="1"/>
        <pt x="84" y="435" on="0"/>
        <pt x="185" y="396" on="1"/>
        <pt x="219" y="504" on="0"/>
      </contour>
      <contour>
        <pt x="726" y="626" on="1"/>
        <pt x="705" y="626" on="0"/>
        <pt x="657" y="462" on="0"/>
        <pt x="640" y="354" on="1"/>
        <pt x="677" y="412" on="0"/>
        <pt x="736" y="572" on="0"/>
        <pt x="736" y="626" on="0"/>
      </contour>
    </TTGlyph>
    <TTGlyph name="Uacute" xMin="3" yMin="-13" xMax="812" yMax="974">
      <contour>
        <pt x="415" y="517" on="0"/>
        <pt x="309" y="192" on="0"/>
        <pt x="309" y="110" on="0"/>
        <pt x="378" y="110" on="0"/>
        <pt x="434" y="162" on="1"/>
        <pt x="438" y="218" on="0"/>
        <pt x="452" y="287" on="1"/>
        <pt x="496" y="510" on="0"/>
        <pt x="622" y="710" on="0"/>
        <pt x="706" y="710" on="1"/>
        <pt x="759" y="710" on="0"/>
        <pt x="812" y="655" on="0"/>
        <pt x="812" y="610" on="1"/>
        <pt x="812" y="531" on="0"/>
        <pt x="701" y="328" on="0"/>
        <pt x="625" y="238" on="1"/>
        <pt x="623" y="198" on="0"/>
        <pt x="623" y="135" on="0"/>
        <pt x="633" y="81" on="0"/>
        <pt x="651" y="81" on="1"/>
        <pt x="666" y="81" on="0"/>
        <pt x="690" y="89" on="1"/>
        <pt x="708" y="37" on="1"/>
        <pt x="631" y="-12" on="0"/>
        <pt x="560" y="-12" on="1"/>
        <pt x="461" y="-12" on="0"/>
        <pt x="439" y="73" on="1"/>
        <pt x="325" y="-13" on="0"/>
        <pt x="228" y="-13" on="1"/>
        <pt x="174" y="-13" on="0"/>
        <pt x="113" y="51" on="0"/>
        <pt x="113" y="153" on="0"/>
        <pt x="163" y="318" on="1"/>
        <pt x="3" y="393" on="0"/>
        <pt x="3" y="502" on="1"/>
        <pt x="3" y="563" on="0"/>
        <pt x="88" y="662" on="0"/>
        <pt x="201" y="710" on="0"/>
        <pt x="329" y="710" on="0"/>
        <pt x="415" y="645" on="0"/>
      </contour>
      <contour>
        <pt x="706" y="881" on="1"/>
        <pt x="706" y="846" on="0"/>
        <pt x="669" y="830" on="1"/>
        <pt x="613" y="804" on="0"/>
        <pt x="409" y="768" on="1"/>
        <pt x="392" y="818" on="1"/>
        <pt x="515" y="878" on="0"/>
        <pt x="666" y="974" on="1"/>
        <pt x="677" y="959" on="0"/>
        <pt x="706" y="895" on="0"/>
      </contour>
      <contour>
        <pt x="219" y="569" on="1"/>
        <pt x="219" y="620" on="0"/>
        <pt x="182" y="620" on="1"/>
        <pt x="148" y="620" on="0"/>
        <pt x="84" y="556" on="0"/>
        <pt x="84" y="514" on="1"/>
        <pt x="84" y="435" on="0"/>
        <pt x="185" y="396" on="1"/>
        <pt x="219" y="504" on="0"/>
      </contour>
      <contour>
        <pt x="726" y="626" on="1"/>
        <pt x="705" y="626" on="0"/>
        <pt x="657" y="462" on="0"/>
        <pt x="640" y="354" on="1"/>
        <pt x="677" y="412" on="0"/>
        <pt x="736" y="572" on="0"/>
        <pt x="736" y="626" on="0"/>
      </contour>
    </TTGlyph>
    <TTGlyph name="Ucircumflex" xMin="3" yMin="-13" xMax="812" yMax="971">
      <contour>
        <pt x="415" y="517" on="0"/>
        <pt x="309" y="192" on="0"/>
        <pt x="309" y="110" on="0"/>
        <pt x="378" y="110" on="0"/>
        <pt x="434" y="162" on="1"/>
        <pt x="438" y="218" on="0"/>
        <pt x="452" y="287" on="1"/>
        <pt x="496" y="510" on="0"/>
        <pt x="622" y="710" on="0"/>
        <pt x="706" y="710" on="1"/>
        <pt x="759" y="710" on="0"/>
        <pt x="812" y="655" on="0"/>
        <pt x="812" y="610" on="1"/>
        <pt x="812" y="531" on="0"/>
        <pt x="701" y="328" on="0"/>
        <pt x="625" y="238" on="1"/>
        <pt x="623" y="198" on="0"/>
        <pt x="623" y="135" on="0"/>
        <pt x="633" y="81" on="0"/>
        <pt x="651" y="81" on="1"/>
        <pt x="666" y="81" on="0"/>
        <pt x="690" y="89" on="1"/>
        <pt x="708" y="37" on="1"/>
        <pt x="631" y="-12" on="0"/>
        <pt x="560" y="-12" on="1"/>
        <pt x="461" y="-12" on="0"/>
        <pt x="439" y="73" on="1"/>
        <pt x="325" y="-13" on="0"/>
        <pt x="228" y="-13" on="1"/>
        <pt x="174" y="-13" on="0"/>
        <pt x="113" y="51" on="0"/>
        <pt x="113" y="153" on="0"/>
        <pt x="163" y="318" on="1"/>
        <pt x="3" y="393" on="0"/>
        <pt x="3" y="502" on="1"/>
        <pt x="3" y="563" on="0"/>
        <pt x="88" y="662" on="0"/>
        <pt x="201" y="710" on="0"/>
        <pt x="329" y="710" on="0"/>
        <pt x="415" y="645" on="0"/>
      </contour>
      <contour>
        <pt x="348" y="868" on="0"/>
        <pt x="513" y="971" on="0"/>
        <pt x="580" y="971" on="0"/>
        <pt x="670" y="851" on="0"/>
        <pt x="692" y="806" on="1"/>
        <pt x="650" y="770" on="1"/>
        <pt x="560" y="829" on="0"/>
        <pt x="511" y="850" on="1"/>
        <pt x="433" y="827" on="0"/>
        <pt x="321" y="768" on="1"/>
        <pt x="289" y="815" on="1"/>
      </contour>
      <contour>
        <pt x="219" y="569" on="1"/>
        <pt x="219" y="620" on="0"/>
        <pt x="182" y="620" on="1"/>
        <pt x="148" y="620" on="0"/>
        <pt x="84" y="556" on="0"/>
        <pt x="84" y="514" on="1"/>
        <pt x="84" y="435" on="0"/>
        <pt x="185" y="396" on="1"/>
        <pt x="219" y="504" on="0"/>
      </contour>
      <contour>
        <pt x="726" y="626" on="1"/>
        <pt x="705" y="626" on="0"/>
        <pt x="657" y="462" on="0"/>
        <pt x="640" y="354" on="1"/>
        <pt x="677" y="412" on="0"/>
        <pt x="736" y="572" on="0"/>
        <pt x="736" y="626" on="0"/>
      </contour>
    </TTGlyph>
    <TTGlyph name="Udieresis" xMin="3" yMin="-13" xMax="812" yMax="943">
      <contour>
        <pt x="415" y="517" on="0"/>
        <pt x="309" y="192" on="0"/>
        <pt x="309" y="110" on="0"/>
        <pt x="378" y="110" on="0"/>
        <pt x="434" y="162" on="1"/>
        <pt x="438" y="218" on="0"/>
        <pt x="452" y="287" on="1"/>
        <pt x="496" y="510" on="0"/>
        <pt x="622" y="710" on="0"/>
        <pt x="706" y="710" on="1"/>
        <pt x="759" y="710" on="0"/>
        <pt x="812" y="655" on="0"/>
        <pt x="812" y="610" on="1"/>
        <pt x="812" y="531" on="0"/>
        <pt x="701" y="328" on="0"/>
        <pt x="625" y="238" on="1"/>
        <pt x="623" y="198" on="0"/>
        <pt x="623" y="135" on="0"/>
        <pt x="633" y="81" on="0"/>
        <pt x="651" y="81" on="1"/>
        <pt x="666" y="81" on="0"/>
        <pt x="690" y="89" on="1"/>
        <pt x="708" y="37" on="1"/>
        <pt x="631" y="-12" on="0"/>
        <pt x="560" y="-12" on="1"/>
        <pt x="461" y="-12" on="0"/>
        <pt x="439" y="73" on="1"/>
        <pt x="325" y="-13" on="0"/>
        <pt x="228" y="-13" on="1"/>
        <pt x="174" y="-13" on="0"/>
        <pt x="113" y="51" on="0"/>
        <pt x="113" y="153" on="0"/>
        <pt x="163" y="318" on="1"/>
        <pt x="3" y="393" on="0"/>
        <pt x="3" y="502" on="1"/>
        <pt x="3" y="563" on="0"/>
        <pt x="88" y="662" on="0"/>
        <pt x="201" y="710" on="0"/>
        <pt x="329" y="710" on="0"/>
        <pt x="415" y="645" on="0"/>
      </contour>
      <contour>
        <pt x="219" y="569" on="1"/>
        <pt x="219" y="620" on="0"/>
        <pt x="182" y="620" on="1"/>
        <pt x="148" y="620" on="0"/>
        <pt x="84" y="556" on="0"/>
        <pt x="84" y="514" on="1"/>
        <pt x="84" y="435" on="0"/>
        <pt x="185" y="396" on="1"/>
        <pt x="219" y="504" on="0"/>
      </contour>
      <contour>
        <pt x="576" y="797" on="0"/>
        <pt x="534" y="837" on="0"/>
        <pt x="534" y="900" on="0"/>
        <pt x="586" y="943" on="0"/>
        <pt x="660" y="943" on="0"/>
        <pt x="701" y="908" on="0"/>
        <pt x="701" y="844" on="0"/>
        <pt x="650" y="797" on="0"/>
      </contour>
      <contour>
        <pt x="365" y="797" on="0"/>
        <pt x="323" y="837" on="0"/>
        <pt x="323" y="900" on="0"/>
        <pt x="375" y="943" on="0"/>
        <pt x="449" y="943" on="0"/>
        <pt x="490" y="908" on="0"/>
        <pt x="490" y="844" on="0"/>
        <pt x="439" y="797" on="0"/>
      </contour>
      <contour>
        <pt x="726" y="626" on="1"/>
        <pt x="705" y="626" on="0"/>
        <pt x="657" y="462" on="0"/>
        <pt x="640" y="354" on="1"/>
        <pt x="677" y="412" on="0"/>
        <pt x="736" y="572" on="0"/>
        <pt x="736" y="626" on="0"/>
      </contour>
    </TTGlyph>
    <TTGlyph name="Ugrave" xMin="3" yMin="-13" xMax="812" yMax="963">
      <contour>
        <pt x="415" y="517" on="0"/>
        <pt x="309" y="192" on="0"/>
        <pt x="309" y="110" on="0"/>
        <pt x="378" y="110" on="0"/>
        <pt x="434" y="162" on="1"/>
        <pt x="438" y="218" on="0"/>
        <pt x="452" y="287" on="1"/>
        <pt x="496" y="510" on="0"/>
        <pt x="622" y="710" on="0"/>
        <pt x="706" y="710" on="1"/>
        <pt x="759" y="710" on="0"/>
        <pt x="812" y="655" on="0"/>
        <pt x="812" y="610" on="1"/>
        <pt x="812" y="531" on="0"/>
        <pt x="701" y="328" on="0"/>
        <pt x="625" y="238" on="1"/>
        <pt x="623" y="198" on="0"/>
        <pt x="623" y="135" on="0"/>
        <pt x="633" y="81" on="0"/>
        <pt x="651" y="81" on="1"/>
        <pt x="666" y="81" on="0"/>
        <pt x="690" y="89" on="1"/>
        <pt x="708" y="37" on="1"/>
        <pt x="631" y="-12" on="0"/>
        <pt x="560" y="-12" on="1"/>
        <pt x="461" y="-12" on="0"/>
        <pt x="439" y="73" on="1"/>
        <pt x="325" y="-13" on="0"/>
        <pt x="228" y="-13" on="1"/>
        <pt x="174" y="-13" on="0"/>
        <pt x="113" y="51" on="0"/>
        <pt x="113" y="153" on="0"/>
        <pt x="163" y="318" on="1"/>
        <pt x="3" y="393" on="0"/>
        <pt x="3" y="502" on="1"/>
        <pt x="3" y="563" on="0"/>
        <pt x="88" y="662" on="0"/>
        <pt x="201" y="710" on="0"/>
        <pt x="329" y="710" on="0"/>
        <pt x="415" y="645" on="0"/>
      </contour>
      <contour>
        <pt x="312" y="963" on="1"/>
        <pt x="358" y="963" on="0"/>
        <pt x="571" y="814" on="1"/>
        <pt x="545" y="766" on="1"/>
        <pt x="399" y="818" on="0"/>
        <pt x="236" y="857" on="1"/>
        <pt x="272" y="963" on="0"/>
      </contour>
      <contour>
        <pt x="219" y="569" on="1"/>
        <pt x="219" y="620" on="0"/>
        <pt x="182" y="620" on="1"/>
        <pt x="148" y="620" on="0"/>
        <pt x="84" y="556" on="0"/>
        <pt x="84" y="514" on="1"/>
        <pt x="84" y="435" on="0"/>
        <pt x="185" y="396" on="1"/>
        <pt x="219" y="504" on="0"/>
      </contour>
      <contour>
        <pt x="726" y="626" on="1"/>
        <pt x="705" y="626" on="0"/>
        <pt x="657" y="462" on="0"/>
        <pt x="640" y="354" on="1"/>
        <pt x="677" y="412" on="0"/>
        <pt x="736" y="572" on="0"/>
        <pt x="736" y="626" on="0"/>
      </contour>
    </TTGlyph>
    <TTGlyph name="V" xMin="-11" yMin="-12" xMax="733" yMax="771">
      <contour>
        <pt x="397" y="391" on="1"/>
        <pt x="423" y="399" on="0"/>
        <pt x="458" y="420" on="1"/>
        <pt x="488" y="385" on="0"/>
        <pt x="489" y="341" on="1"/>
        <pt x="451" y="322" on="0"/>
        <pt x="386" y="303" on="1"/>
        <pt x="374" y="212" on="0"/>
        <pt x="374" y="120" on="0"/>
        <pt x="390" y="120" on="1"/>
        <pt x="415" y="120" on="0"/>
        <pt x="491" y="210" on="0"/>
        <pt x="559" y="368" on="0"/>
        <pt x="567" y="448" on="1"/>
        <pt x="567" y="546" on="0"/>
        <pt x="482" y="631" on="1"/>
        <pt x="504" y="674" on="0"/>
        <pt x="575" y="744" on="0"/>
        <pt x="599" y="758" on="1"/>
        <pt x="623" y="771" on="1"/>
        <pt x="668" y="771" on="0"/>
        <pt x="733" y="668" on="0"/>
        <pt x="733" y="521" on="0"/>
        <pt x="649" y="303" on="0"/>
        <pt x="525" y="117" on="0"/>
        <pt x="369" y="-12" on="0"/>
        <pt x="231" y="-12" on="0"/>
        <pt x="178" y="68" on="0"/>
        <pt x="178" y="139" on="1"/>
        <pt x="178" y="174" on="0"/>
        <pt x="189" y="295" on="1"/>
        <pt x="97" y="300" on="0"/>
        <pt x="-11" y="415" on="0"/>
        <pt x="-11" y="488" on="1"/>
        <pt x="-11" y="582" on="0"/>
        <pt x="159" y="710" on="0"/>
        <pt x="255" y="710" on="1"/>
        <pt x="323" y="710" on="0"/>
        <pt x="411" y="623" on="0"/>
        <pt x="411" y="532" on="1"/>
        <pt x="411" y="495" on="0"/>
      </contour>
      <contour>
        <pt x="212" y="527" on="1"/>
        <pt x="212" y="617" on="0"/>
        <pt x="165" y="617" on="1"/>
        <pt x="133" y="617" on="0"/>
        <pt x="70" y="539" on="0"/>
        <pt x="70" y="437" on="0"/>
        <pt x="143" y="376" on="0"/>
        <pt x="198" y="376" on="1"/>
        <pt x="212" y="486" on="0"/>
      </contour>
    </TTGlyph>
    <TTGlyph name="W" xMin="-10" yMin="-12" xMax="1050" yMax="800">
      <contour>
        <pt x="884" y="477" on="1"/>
        <pt x="884" y="575" on="0"/>
        <pt x="799" y="660" on="1"/>
        <pt x="821" y="703" on="0"/>
        <pt x="892" y="773" on="0"/>
        <pt x="916" y="786" on="1"/>
        <pt x="940" y="800" on="1"/>
        <pt x="985" y="800" on="0"/>
        <pt x="1050" y="697" on="0"/>
        <pt x="1050" y="633" on="1"/>
        <pt x="1050" y="520" on="0"/>
        <pt x="918" y="215" on="0"/>
        <pt x="717" y="-12" on="0"/>
        <pt x="631" y="-12" on="1"/>
        <pt x="523" y="-12" on="0"/>
        <pt x="508" y="89" on="1"/>
        <pt x="466" y="42" on="0"/>
        <pt x="370" y="-12" on="0"/>
        <pt x="270" y="-12" on="0"/>
        <pt x="201" y="57" on="0"/>
        <pt x="201" y="133" on="1"/>
        <pt x="201" y="186" on="0"/>
        <pt x="206" y="296" on="1"/>
        <pt x="112" y="301" on="0"/>
        <pt x="-10" y="417" on="0"/>
        <pt x="-10" y="488" on="1"/>
        <pt x="-10" y="582" on="0"/>
        <pt x="160" y="710" on="0"/>
        <pt x="256" y="710" on="1"/>
        <pt x="324" y="710" on="0"/>
        <pt x="411" y="623" on="0"/>
        <pt x="411" y="532" on="1"/>
        <pt x="411" y="475" on="0"/>
        <pt x="397" y="255" on="0"/>
        <pt x="397" y="121" on="0"/>
        <pt x="416" y="121" on="1"/>
        <pt x="431" y="121" on="0"/>
        <pt x="486" y="170" on="0"/>
        <pt x="507" y="201" on="1"/>
        <pt x="509" y="230" on="0"/>
        <pt x="516" y="291" on="1"/>
        <pt x="531" y="422" on="0"/>
        <pt x="531" y="612" on="0"/>
        <pt x="509" y="668" on="1"/>
        <pt x="627" y="707" on="0"/>
        <pt x="720" y="708" on="1"/>
        <pt x="731" y="669" on="0"/>
        <pt x="731" y="498" on="0"/>
        <pt x="701" y="226" on="0"/>
        <pt x="701" y="119" on="0"/>
        <pt x="731" y="119" on="0"/>
        <pt x="782" y="184" on="0"/>
        <pt x="834" y="283" on="0"/>
        <pt x="878" y="416" on="0"/>
      </contour>
      <contour>
        <pt x="210" y="376" on="1"/>
        <pt x="215" y="426" on="0"/>
        <pt x="215" y="539" on="0"/>
        <pt x="197" y="615" on="0"/>
        <pt x="136" y="615" on="0"/>
        <pt x="71" y="538" on="0"/>
        <pt x="71" y="437" on="0"/>
        <pt x="153" y="376" on="0"/>
      </contour>
    </TTGlyph>
    <TTGlyph name="X" xMin="-6" yMin="-12" xMax="688" yMax="722">
      <contour>
        <pt x="611" y="75" on="1"/>
        <pt x="620" y="75" on="0"/>
        <pt x="643" y="82" on="1"/>
        <pt x="664" y="37" on="1"/>
        <pt x="633" y="15" on="0"/>
        <pt x="545" y="-12" on="0"/>
        <pt x="508" y="-12" on="1"/>
        <pt x="416" y="-12" on="0"/>
        <pt x="375" y="60" on="1"/>
        <pt x="355" y="95" on="0"/>
        <pt x="309" y="229" on="1"/>
        <pt x="231" y="130" on="0"/>
        <pt x="153" y="5" on="1"/>
        <pt x="141" y="-12" on="0"/>
        <pt x="105" y="-12" on="0"/>
        <pt x="48" y="16" on="0"/>
        <pt x="32" y="42" on="1"/>
        <pt x="75" y="108" on="0"/>
        <pt x="152" y="199" on="0"/>
        <pt x="168" y="218" on="1"/>
        <pt x="199" y="253" on="0"/>
        <pt x="273" y="333" on="1"/>
        <pt x="260" y="372" on="0"/>
        <pt x="234" y="442" on="1"/>
        <pt x="182" y="416" on="0"/>
        <pt x="70" y="416" on="0"/>
        <pt x="-6" y="491" on="0"/>
        <pt x="-6" y="549" on="1"/>
        <pt x="-6" y="623" on="0"/>
        <pt x="115" y="722" on="0"/>
        <pt x="192" y="722" on="1"/>
        <pt x="238" y="722" on="0"/>
        <pt x="322" y="679" on="0"/>
        <pt x="367" y="598" on="0"/>
        <pt x="415" y="467" on="1"/>
        <pt x="496" y="572" on="0"/>
        <pt x="567" y="693" on="1"/>
        <pt x="578" y="710" on="0"/>
        <pt x="598" y="710" on="1"/>
        <pt x="649" y="710" on="0"/>
        <pt x="688" y="655" on="1"/>
        <pt x="656" y="601" on="0"/>
        <pt x="576" y="509" on="0"/>
        <pt x="549" y="479" on="0"/>
        <pt x="458" y="383" on="0"/>
        <pt x="448" y="372" on="1"/>
        <pt x="512" y="197" on="0"/>
        <pt x="578" y="75" on="0"/>
      </contour>
      <contour>
        <pt x="82" y="522" on="0"/>
        <pt x="119" y="484" on="0"/>
        <pt x="181" y="484" on="0"/>
        <pt x="208" y="505" on="1"/>
        <pt x="197" y="530" on="1"/>
        <pt x="179" y="568" on="0"/>
        <pt x="148" y="600" on="0"/>
        <pt x="107" y="600" on="0"/>
        <pt x="82" y="569" on="0"/>
      </contour>
    </TTGlyph>
    <TTGlyph name="Y" xMin="8" yMin="-224" xMax="826" yMax="710">
      <contour>
        <pt x="826" y="606" on="1"/>
        <pt x="826" y="538" on="0"/>
        <pt x="722" y="337" on="0"/>
        <pt x="644" y="262" on="1"/>
        <pt x="618" y="136" on="0"/>
        <pt x="588" y="53" on="1"/>
        <pt x="672" y="53" on="0"/>
        <pt x="754" y="40" on="1"/>
        <pt x="754" y="-5" on="0"/>
        <pt x="724" y="-56" on="1"/>
        <pt x="639" y="-34" on="0"/>
        <pt x="553" y="-30" on="1"/>
        <pt x="458" y="-224" on="0"/>
        <pt x="288" y="-224" on="1"/>
        <pt x="225" y="-224" on="0"/>
        <pt x="152" y="-174" on="0"/>
        <pt x="152" y="-129" on="1"/>
        <pt x="152" y="-72" on="0"/>
        <pt x="278" y="22" on="0"/>
        <pt x="409" y="50" on="1"/>
        <pt x="425" y="106" on="1"/>
        <pt x="322" y="48" on="0"/>
        <pt x="239" y="48" on="1"/>
        <pt x="190" y="48" on="0"/>
        <pt x="133" y="98" on="0"/>
        <pt x="133" y="186" on="0"/>
        <pt x="171" y="318" on="1"/>
        <pt x="8" y="393" on="0"/>
        <pt x="8" y="504" on="1"/>
        <pt x="8" y="564" on="0"/>
        <pt x="92" y="661" on="0"/>
        <pt x="210" y="710" on="0"/>
        <pt x="334" y="710" on="0"/>
        <pt x="424" y="645" on="0"/>
        <pt x="424" y="527" on="0"/>
        <pt x="329" y="230" on="0"/>
        <pt x="329" y="205" on="1"/>
        <pt x="329" y="173" on="0"/>
        <pt x="394" y="173" on="0"/>
        <pt x="449" y="210" on="1"/>
        <pt x="459" y="263" on="1"/>
        <pt x="487" y="419" on="0"/>
        <pt x="515" y="508" on="0"/>
        <pt x="540" y="580" on="0"/>
        <pt x="565" y="621" on="0"/>
        <pt x="600" y="669" on="0"/>
        <pt x="619" y="681" on="1"/>
        <pt x="665" y="710" on="0"/>
        <pt x="770" y="710" on="0"/>
        <pt x="826" y="653" on="0"/>
      </contour>
      <contour>
        <pt x="192" y="396" on="1"/>
        <pt x="228" y="510" on="0"/>
        <pt x="228" y="620" on="0"/>
        <pt x="154" y="620" on="0"/>
        <pt x="89" y="560" on="0"/>
        <pt x="89" y="513" on="1"/>
        <pt x="89" y="437" on="0"/>
      </contour>
      <contour>
        <pt x="255" y="-111" on="1"/>
        <pt x="255" y="-131" on="0"/>
        <pt x="309" y="-131" on="0"/>
        <pt x="367" y="-74" on="0"/>
        <pt x="389" y="-29" on="1"/>
        <pt x="329" y="-40" on="0"/>
        <pt x="255" y="-89" on="0"/>
      </contour>
      <contour>
        <pt x="738" y="626" on="1"/>
        <pt x="722" y="626" on="0"/>
        <pt x="709" y="578" on="1"/>
        <pt x="689" y="501" on="0"/>
        <pt x="671" y="396" on="1"/>
        <pt x="700" y="440" on="0"/>
        <pt x="748" y="571" on="0"/>
        <pt x="748" y="626" on="0"/>
      </contour>
    </TTGlyph>
    <TTGlyph name="Yacute" xMin="8" yMin="-224" xMax="826" yMax="974">
      <contour>
        <pt x="826" y="606" on="1"/>
        <pt x="826" y="538" on="0"/>
        <pt x="722" y="337" on="0"/>
        <pt x="644" y="262" on="1"/>
        <pt x="618" y="136" on="0"/>
        <pt x="588" y="53" on="1"/>
        <pt x="672" y="53" on="0"/>
        <pt x="754" y="40" on="1"/>
        <pt x="754" y="-5" on="0"/>
        <pt x="724" y="-56" on="1"/>
        <pt x="639" y="-34" on="0"/>
        <pt x="553" y="-30" on="1"/>
        <pt x="458" y="-224" on="0"/>
        <pt x="288" y="-224" on="1"/>
        <pt x="225" y="-224" on="0"/>
        <pt x="152" y="-174" on="0"/>
        <pt x="152" y="-129" on="1"/>
        <pt x="152" y="-72" on="0"/>
        <pt x="278" y="22" on="0"/>
        <pt x="409" y="50" on="1"/>
        <pt x="425" y="106" on="1"/>
        <pt x="322" y="48" on="0"/>
        <pt x="239" y="48" on="1"/>
        <pt x="190" y="48" on="0"/>
        <pt x="133" y="98" on="0"/>
        <pt x="133" y="186" on="0"/>
        <pt x="171" y="318" on="1"/>
        <pt x="8" y="393" on="0"/>
        <pt x="8" y="504" on="1"/>
        <pt x="8" y="564" on="0"/>
        <pt x="92" y="661" on="0"/>
        <pt x="210" y="710" on="0"/>
        <pt x="334" y="710" on="0"/>
        <pt x="424" y="645" on="0"/>
        <pt x="424" y="527" on="0"/>
        <pt x="329" y="230" on="0"/>
        <pt x="329" y="205" on="1"/>
        <pt x="329" y="173" on="0"/>
        <pt x="394" y="173" on="0"/>
        <pt x="449" y="210" on="1"/>
        <pt x="459" y="263" on="1"/>
        <pt x="487" y="419" on="0"/>
        <pt x="515" y="508" on="0"/>
        <pt x="540" y="580" on="0"/>
        <pt x="565" y="621" on="0"/>
        <pt x="600" y="669" on="0"/>
        <pt x="619" y="681" on="1"/>
        <pt x="665" y="710" on="0"/>
        <pt x="770" y="710" on="0"/>
        <pt x="826" y="653" on="0"/>
      </contour>
      <contour>
        <pt x="701" y="881" on="1"/>
        <pt x="701" y="846" on="0"/>
        <pt x="664" y="830" on="1"/>
        <pt x="608" y="804" on="0"/>
        <pt x="404" y="768" on="1"/>
        <pt x="387" y="818" on="1"/>
        <pt x="510" y="878" on="0"/>
        <pt x="661" y="974" on="1"/>
        <pt x="672" y="959" on="0"/>
        <pt x="701" y="895" on="0"/>
      </contour>
      <contour>
        <pt x="192" y="396" on="1"/>
        <pt x="228" y="510" on="0"/>
        <pt x="228" y="620" on="0"/>
        <pt x="154" y="620" on="0"/>
        <pt x="89" y="560" on="0"/>
        <pt x="89" y="513" on="1"/>
        <pt x="89" y="437" on="0"/>
      </contour>
      <contour>
        <pt x="255" y="-111" on="1"/>
        <pt x="255" y="-131" on="0"/>
        <pt x="309" y="-131" on="0"/>
        <pt x="367" y="-74" on="0"/>
        <pt x="389" y="-29" on="1"/>
        <pt x="329" y="-40" on="0"/>
        <pt x="255" y="-89" on="0"/>
      </contour>
      <contour>
        <pt x="738" y="626" on="1"/>
        <pt x="722" y="626" on="0"/>
        <pt x="709" y="578" on="1"/>
        <pt x="689" y="501" on="0"/>
        <pt x="671" y="396" on="1"/>
        <pt x="700" y="440" on="0"/>
        <pt x="748" y="571" on="0"/>
        <pt x="748" y="626" on="0"/>
      </contour>
    </TTGlyph>
    <TTGlyph name="Z" xMin="-35" yMin="-80" xMax="603" yMax="851">
      <contour>
        <pt x="402" y="695" on="1"/>
        <pt x="448" y="687" on="0"/>
        <pt x="520" y="687" on="0"/>
        <pt x="551" y="698" on="1"/>
        <pt x="565" y="677" on="0"/>
        <pt x="565" y="655" on="1"/>
        <pt x="565" y="571" on="0"/>
        <pt x="408" y="267" on="0"/>
        <pt x="308" y="133" on="1"/>
        <pt x="343" y="113" on="0"/>
        <pt x="445" y="77" on="0"/>
        <pt x="517" y="77" on="0"/>
        <pt x="532" y="98" on="1"/>
        <pt x="576" y="91" on="0"/>
        <pt x="603" y="60" on="1"/>
        <pt x="582" y="-13" on="0"/>
        <pt x="497" y="-80" on="0"/>
        <pt x="450" y="-80" on="1"/>
        <pt x="422" y="-80" on="0"/>
        <pt x="352" y="-52" on="0"/>
        <pt x="313" y="-28" on="0"/>
        <pt x="227" y="34" on="0"/>
        <pt x="220" y="39" on="1"/>
        <pt x="140" y="-20" on="0"/>
        <pt x="30" y="-20" on="0"/>
        <pt x="-35" y="33" on="0"/>
        <pt x="-35" y="121" on="0"/>
        <pt x="52" y="190" on="0"/>
        <pt x="117" y="190" on="1"/>
        <pt x="152" y="190" on="0"/>
        <pt x="186" y="180" on="1"/>
        <pt x="254" y="264" on="0"/>
        <pt x="358" y="463" on="0"/>
        <pt x="371" y="539" on="1"/>
        <pt x="335" y="547" on="0"/>
        <pt x="333" y="548" on="1"/>
        <pt x="224" y="429" on="0"/>
        <pt x="114" y="429" on="1"/>
        <pt x="51" y="429" on="0"/>
        <pt x="-34" y="510" on="0"/>
        <pt x="-34" y="641" on="0"/>
        <pt x="75" y="734" on="0"/>
        <pt x="164" y="734" on="1"/>
        <pt x="206" y="734" on="0"/>
        <pt x="329" y="709" on="1"/>
        <pt x="350" y="764" on="0"/>
        <pt x="356" y="848" on="1"/>
        <pt x="374" y="851" on="0"/>
        <pt x="413" y="851" on="0"/>
        <pt x="440" y="839" on="1"/>
        <pt x="429" y="764" on="0"/>
      </contour>
      <contour>
        <pt x="119" y="498" on="1"/>
        <pt x="197" y="498" on="0"/>
        <pt x="260" y="571" on="1"/>
        <pt x="122" y="614" on="0"/>
        <pt x="84" y="582" on="1"/>
        <pt x="67" y="567" on="0"/>
        <pt x="67" y="524" on="0"/>
        <pt x="94" y="498" on="0"/>
      </contour>
      <contour>
        <pt x="44" y="86" on="1"/>
        <pt x="44" y="66" on="0"/>
        <pt x="105" y="66" on="0"/>
        <pt x="136" y="104" on="1"/>
        <pt x="117" y="119" on="0"/>
        <pt x="94" y="119" on="1"/>
        <pt x="44" y="119" on="0"/>
      </contour>
    </TTGlyph>
    <TTGlyph name="a" xMin="29" yMin="-12" xMax="546" yMax="443">
      <contour>
        <pt x="497" y="340" on="0"/>
        <pt x="467" y="161" on="0"/>
        <pt x="467" y="90" on="0"/>
        <pt x="478" y="90" on="1"/>
        <pt x="528" y="104" on="1"/>
        <pt x="546" y="54" on="1"/>
        <pt x="514" y="29" on="0"/>
        <pt x="415" y="-12" on="0"/>
        <pt x="377" y="-12" on="1"/>
        <pt x="312" y="-12" on="0"/>
        <pt x="295" y="44" on="1"/>
        <pt x="216" y="-12" on="0"/>
        <pt x="95" y="-12" on="0"/>
        <pt x="29" y="76" on="0"/>
        <pt x="29" y="158" on="1"/>
        <pt x="29" y="271" on="0"/>
        <pt x="145" y="443" on="0"/>
        <pt x="240" y="443" on="1"/>
        <pt x="292" y="443" on="0"/>
        <pt x="346" y="414" on="1"/>
        <pt x="354" y="432" on="0"/>
        <pt x="359" y="440" on="1"/>
        <pt x="431" y="440" on="0"/>
        <pt x="518" y="405" on="1"/>
      </contour>
      <contour>
        <pt x="217" y="120" on="0"/>
        <pt x="231" y="94" on="0"/>
        <pt x="269" y="94" on="0"/>
        <pt x="287" y="109" on="1"/>
        <pt x="291" y="225" on="0"/>
        <pt x="325" y="352" on="1"/>
        <pt x="310" y="361" on="0"/>
        <pt x="271" y="361" on="0"/>
        <pt x="240" y="317" on="0"/>
        <pt x="232" y="284" on="1"/>
        <pt x="217" y="221" on="0"/>
      </contour>
    </TTGlyph>
    <TTGlyph name="aacute" xMin="29" yMin="-12" xMax="546" yMax="707">
      <contour>
        <pt x="516" y="614" on="1"/>
        <pt x="516" y="579" on="0"/>
        <pt x="479" y="563" on="1"/>
        <pt x="423" y="537" on="0"/>
        <pt x="219" y="501" on="1"/>
        <pt x="202" y="551" on="1"/>
        <pt x="325" y="611" on="0"/>
        <pt x="476" y="707" on="1"/>
        <pt x="487" y="692" on="0"/>
        <pt x="516" y="628" on="0"/>
      </contour>
      <contour>
        <pt x="497" y="340" on="0"/>
        <pt x="467" y="161" on="0"/>
        <pt x="467" y="90" on="0"/>
        <pt x="478" y="90" on="1"/>
        <pt x="528" y="104" on="1"/>
        <pt x="546" y="54" on="1"/>
        <pt x="514" y="29" on="0"/>
        <pt x="415" y="-12" on="0"/>
        <pt x="377" y="-12" on="1"/>
        <pt x="312" y="-12" on="0"/>
        <pt x="295" y="44" on="1"/>
        <pt x="216" y="-12" on="0"/>
        <pt x="95" y="-12" on="0"/>
        <pt x="29" y="76" on="0"/>
        <pt x="29" y="158" on="1"/>
        <pt x="29" y="271" on="0"/>
        <pt x="145" y="443" on="0"/>
        <pt x="240" y="443" on="1"/>
        <pt x="292" y="443" on="0"/>
        <pt x="346" y="414" on="1"/>
        <pt x="354" y="432" on="0"/>
        <pt x="359" y="440" on="1"/>
        <pt x="431" y="440" on="0"/>
        <pt x="518" y="405" on="1"/>
      </contour>
      <contour>
        <pt x="217" y="120" on="0"/>
        <pt x="231" y="94" on="0"/>
        <pt x="269" y="94" on="0"/>
        <pt x="287" y="109" on="1"/>
        <pt x="291" y="225" on="0"/>
        <pt x="325" y="352" on="1"/>
        <pt x="310" y="361" on="0"/>
        <pt x="271" y="361" on="0"/>
        <pt x="240" y="317" on="0"/>
        <pt x="232" y="284" on="1"/>
        <pt x="217" y="221" on="0"/>
      </contour>
    </TTGlyph>
    <TTGlyph name="acircumflex" xMin="29" yMin="-12" xMax="546" yMax="704">
      <contour>
        <pt x="201" y="601" on="0"/>
        <pt x="366" y="704" on="0"/>
        <pt x="433" y="704" on="0"/>
        <pt x="523" y="584" on="0"/>
        <pt x="545" y="539" on="1"/>
        <pt x="503" y="503" on="1"/>
        <pt x="413" y="562" on="0"/>
        <pt x="364" y="583" on="1"/>
        <pt x="286" y="560" on="0"/>
        <pt x="174" y="501" on="1"/>
        <pt x="142" y="548" on="1"/>
      </contour>
      <contour>
        <pt x="497" y="340" on="0"/>
        <pt x="467" y="161" on="0"/>
        <pt x="467" y="90" on="0"/>
        <pt x="478" y="90" on="1"/>
        <pt x="528" y="104" on="1"/>
        <pt x="546" y="54" on="1"/>
        <pt x="514" y="29" on="0"/>
        <pt x="415" y="-12" on="0"/>
        <pt x="377" y="-12" on="1"/>
        <pt x="312" y="-12" on="0"/>
        <pt x="295" y="44" on="1"/>
        <pt x="216" y="-12" on="0"/>
        <pt x="95" y="-12" on="0"/>
        <pt x="29" y="76" on="0"/>
        <pt x="29" y="158" on="1"/>
        <pt x="29" y="271" on="0"/>
        <pt x="145" y="443" on="0"/>
        <pt x="240" y="443" on="1"/>
        <pt x="292" y="443" on="0"/>
        <pt x="346" y="414" on="1"/>
        <pt x="354" y="432" on="0"/>
        <pt x="359" y="440" on="1"/>
        <pt x="431" y="440" on="0"/>
        <pt x="518" y="405" on="1"/>
      </contour>
      <contour>
        <pt x="217" y="120" on="0"/>
        <pt x="231" y="94" on="0"/>
        <pt x="269" y="94" on="0"/>
        <pt x="287" y="109" on="1"/>
        <pt x="291" y="225" on="0"/>
        <pt x="325" y="352" on="1"/>
        <pt x="310" y="361" on="0"/>
        <pt x="271" y="361" on="0"/>
        <pt x="240" y="317" on="0"/>
        <pt x="232" y="284" on="1"/>
        <pt x="217" y="221" on="0"/>
      </contour>
    </TTGlyph>
    <TTGlyph name="acute" xMin="145" yMin="501" xMax="459" yMax="707">
      <contour>
        <pt x="459" y="614" on="1"/>
        <pt x="459" y="579" on="0"/>
        <pt x="422" y="563" on="1"/>
        <pt x="366" y="537" on="0"/>
        <pt x="162" y="501" on="1"/>
        <pt x="145" y="551" on="1"/>
        <pt x="268" y="611" on="0"/>
        <pt x="419" y="707" on="1"/>
        <pt x="430" y="692" on="0"/>
        <pt x="459" y="628" on="0"/>
      </contour>
    </TTGlyph>
    <TTGlyph name="acute.cap" xMin="121" yMin="740" xMax="457" yMax="933">
      <contour>
        <pt x="457" y="842" on="1"/>
        <pt x="457" y="810" on="0"/>
        <pt x="419" y="796" on="1"/>
        <pt x="370" y="775" on="0"/>
        <pt x="140" y="740" on="1"/>
        <pt x="121" y="794" on="1"/>
        <pt x="148" y="806" on="0"/>
        <pt x="248" y="850" on="0"/>
        <pt x="277" y="863" on="1"/>
        <pt x="360" y="900" on="0"/>
        <pt x="417" y="933" on="1"/>
        <pt x="428" y="917" on="0"/>
        <pt x="457" y="856" on="0"/>
      </contour>
    </TTGlyph>
    <TTGlyph name="adieresis" xMin="29" yMin="-12" xMax="546" yMax="676">
      <contour>
        <pt x="187" y="530" on="0"/>
        <pt x="145" y="570" on="0"/>
        <pt x="145" y="633" on="0"/>
        <pt x="197" y="676" on="0"/>
        <pt x="271" y="676" on="0"/>
        <pt x="312" y="641" on="0"/>
        <pt x="312" y="577" on="0"/>
        <pt x="261" y="530" on="0"/>
      </contour>
      <contour>
        <pt x="398" y="530" on="0"/>
        <pt x="356" y="570" on="0"/>
        <pt x="356" y="633" on="0"/>
        <pt x="408" y="676" on="0"/>
        <pt x="482" y="676" on="0"/>
        <pt x="523" y="641" on="0"/>
        <pt x="523" y="577" on="0"/>
        <pt x="472" y="530" on="0"/>
      </contour>
      <contour>
        <pt x="497" y="340" on="0"/>
        <pt x="467" y="161" on="0"/>
        <pt x="467" y="90" on="0"/>
        <pt x="478" y="90" on="1"/>
        <pt x="528" y="104" on="1"/>
        <pt x="546" y="54" on="1"/>
        <pt x="514" y="29" on="0"/>
        <pt x="415" y="-12" on="0"/>
        <pt x="377" y="-12" on="1"/>
        <pt x="312" y="-12" on="0"/>
        <pt x="295" y="44" on="1"/>
        <pt x="216" y="-12" on="0"/>
        <pt x="95" y="-12" on="0"/>
        <pt x="29" y="76" on="0"/>
        <pt x="29" y="158" on="1"/>
        <pt x="29" y="271" on="0"/>
        <pt x="145" y="443" on="0"/>
        <pt x="240" y="443" on="1"/>
        <pt x="292" y="443" on="0"/>
        <pt x="346" y="414" on="1"/>
        <pt x="354" y="432" on="0"/>
        <pt x="359" y="440" on="1"/>
        <pt x="431" y="440" on="0"/>
        <pt x="518" y="405" on="1"/>
      </contour>
      <contour>
        <pt x="217" y="120" on="0"/>
        <pt x="231" y="94" on="0"/>
        <pt x="269" y="94" on="0"/>
        <pt x="287" y="109" on="1"/>
        <pt x="291" y="225" on="0"/>
        <pt x="325" y="352" on="1"/>
        <pt x="310" y="361" on="0"/>
        <pt x="271" y="361" on="0"/>
        <pt x="240" y="317" on="0"/>
        <pt x="232" y="284" on="1"/>
        <pt x="217" y="221" on="0"/>
      </contour>
    </TTGlyph>
    <TTGlyph name="ae" xMin="29" yMin="-12" xMax="687" yMax="443">
      <contour>
        <pt x="223" y="443" on="1"/>
        <pt x="276" y="443" on="0"/>
        <pt x="328" y="413" on="1"/>
        <pt x="333" y="426" on="0"/>
        <pt x="341" y="440" on="1"/>
        <pt x="395" y="438" on="0"/>
        <pt x="440" y="425" on="1"/>
        <pt x="486" y="443" on="0"/>
        <pt x="609" y="443" on="0"/>
        <pt x="687" y="385" on="0"/>
        <pt x="687" y="296" on="0"/>
        <pt x="641" y="237" on="0"/>
        <pt x="608" y="221" on="1"/>
        <pt x="538" y="186" on="0"/>
        <pt x="489" y="180" on="1"/>
        <pt x="466" y="177" on="1"/>
        <pt x="466" y="133" on="0"/>
        <pt x="504" y="83" on="0"/>
        <pt x="560" y="83" on="0"/>
        <pt x="609" y="102" on="0"/>
        <pt x="622" y="112" on="1"/>
        <pt x="635" y="122" on="1"/>
        <pt x="664" y="73" on="1"/>
        <pt x="660" y="70" on="0"/>
        <pt x="647" y="58" on="0"/>
        <pt x="602" y="29" on="0"/>
        <pt x="578" y="18" on="1"/>
        <pt x="518" y="-12" on="0"/>
        <pt x="446" y="-12" on="1"/>
        <pt x="354" y="-12" on="0"/>
        <pt x="312" y="51" on="1"/>
        <pt x="227" y="-12" on="0"/>
        <pt x="152" y="-12" on="1"/>
        <pt x="104" y="-12" on="0"/>
        <pt x="29" y="69" on="0"/>
        <pt x="29" y="154" on="1"/>
        <pt x="29" y="288" on="0"/>
        <pt x="141" y="443" on="0"/>
      </contour>
      <contour>
        <pt x="283" y="173" on="1"/>
        <pt x="283" y="260" on="0"/>
        <pt x="309" y="353" on="1"/>
        <pt x="287" y="362" on="0"/>
        <pt x="274" y="362" on="1"/>
        <pt x="248" y="362" on="0"/>
        <pt x="214" y="242" on="0"/>
        <pt x="214" y="94" on="0"/>
        <pt x="246" y="94" on="1"/>
        <pt x="263" y="94" on="0"/>
        <pt x="290" y="110" on="1"/>
        <pt x="283" y="138" on="0"/>
      </contour>
      <contour>
        <pt x="494" y="244" on="0"/>
        <pt x="535" y="304" on="0"/>
        <pt x="535" y="379" on="0"/>
        <pt x="514" y="379" on="1"/>
        <pt x="489" y="379" on="0"/>
        <pt x="466" y="276" on="0"/>
        <pt x="466" y="236" on="1"/>
      </contour>
    </TTGlyph>
    <TTGlyph name="agrave" xMin="29" yMin="-12" xMax="546" yMax="696">
      <contour>
        <pt x="231" y="696" on="1"/>
        <pt x="277" y="696" on="0"/>
        <pt x="490" y="547" on="1"/>
        <pt x="464" y="499" on="1"/>
        <pt x="318" y="551" on="0"/>
        <pt x="155" y="590" on="1"/>
        <pt x="191" y="696" on="0"/>
      </contour>
      <contour>
        <pt x="497" y="340" on="0"/>
        <pt x="467" y="161" on="0"/>
        <pt x="467" y="90" on="0"/>
        <pt x="478" y="90" on="1"/>
        <pt x="528" y="104" on="1"/>
        <pt x="546" y="54" on="1"/>
        <pt x="514" y="29" on="0"/>
        <pt x="415" y="-12" on="0"/>
        <pt x="377" y="-12" on="1"/>
        <pt x="312" y="-12" on="0"/>
        <pt x="295" y="44" on="1"/>
        <pt x="216" y="-12" on="0"/>
        <pt x="95" y="-12" on="0"/>
        <pt x="29" y="76" on="0"/>
        <pt x="29" y="158" on="1"/>
        <pt x="29" y="271" on="0"/>
        <pt x="145" y="443" on="0"/>
        <pt x="240" y="443" on="1"/>
        <pt x="292" y="443" on="0"/>
        <pt x="346" y="414" on="1"/>
        <pt x="354" y="432" on="0"/>
        <pt x="359" y="440" on="1"/>
        <pt x="431" y="440" on="0"/>
        <pt x="518" y="405" on="1"/>
      </contour>
      <contour>
        <pt x="217" y="120" on="0"/>
        <pt x="231" y="94" on="0"/>
        <pt x="269" y="94" on="0"/>
        <pt x="287" y="109" on="1"/>
        <pt x="291" y="225" on="0"/>
        <pt x="325" y="352" on="1"/>
        <pt x="310" y="361" on="0"/>
        <pt x="271" y="361" on="0"/>
        <pt x="240" y="317" on="0"/>
        <pt x="232" y="284" on="1"/>
        <pt x="217" y="221" on="0"/>
      </contour>
    </TTGlyph>
    <TTGlyph name="ampersand" xMin="65" yMin="-20" xMax="806" yMax="710">
      <contour>
        <pt x="428" y="431" on="1"/>
        <pt x="431" y="420" on="0"/>
        <pt x="431" y="387" on="0"/>
        <pt x="424" y="368" on="1"/>
        <pt x="418" y="368" on="1"/>
        <pt x="352" y="368" on="0"/>
        <pt x="262" y="290" on="0"/>
        <pt x="262" y="155" on="0"/>
        <pt x="326" y="96" on="0"/>
        <pt x="428" y="96" on="0"/>
        <pt x="504" y="186" on="0"/>
        <pt x="515" y="246" on="1"/>
        <pt x="459" y="217" on="0"/>
        <pt x="391" y="217" on="0"/>
        <pt x="347" y="240" on="0"/>
        <pt x="338" y="257" on="1"/>
        <pt x="340" y="264" on="0"/>
        <pt x="363" y="292" on="0"/>
        <pt x="373" y="293" on="1"/>
        <pt x="391" y="282" on="0"/>
        <pt x="431" y="282" on="0"/>
        <pt x="501" y="322" on="0"/>
        <pt x="570" y="369" on="0"/>
        <pt x="658" y="409" on="0"/>
        <pt x="740" y="409" on="0"/>
        <pt x="806" y="358" on="0"/>
        <pt x="806" y="262" on="0"/>
        <pt x="739" y="196" on="0"/>
        <pt x="629" y="196" on="0"/>
        <pt x="578" y="236" on="1"/>
        <pt x="576" y="135" on="0"/>
        <pt x="424" y="-20" on="0"/>
        <pt x="314" y="-20" on="1"/>
        <pt x="247" y="-20" on="0"/>
        <pt x="186" y="8" on="1"/>
        <pt x="112" y="40" on="0"/>
        <pt x="82" y="106" on="1"/>
        <pt x="65" y="143" on="0"/>
        <pt x="65" y="256" on="0"/>
        <pt x="101" y="306" on="1"/>
        <pt x="167" y="396" on="0"/>
        <pt x="290" y="401" on="1"/>
        <pt x="236" y="415" on="0"/>
        <pt x="167" y="493" on="0"/>
        <pt x="167" y="548" on="1"/>
        <pt x="167" y="623" on="0"/>
        <pt x="293" y="710" on="0"/>
        <pt x="458" y="710" on="0"/>
        <pt x="571" y="638" on="0"/>
        <pt x="571" y="578" on="1"/>
        <pt x="571" y="537" on="0"/>
        <pt x="515" y="479" on="0"/>
        <pt x="437" y="479" on="0"/>
        <pt x="382" y="526" on="0"/>
        <pt x="382" y="609" on="0"/>
        <pt x="418" y="637" on="1"/>
        <pt x="372" y="634" on="0"/>
        <pt x="335" y="571" on="0"/>
        <pt x="335" y="493" on="0"/>
        <pt x="383" y="439" on="0"/>
        <pt x="427" y="431" on="1"/>
      </contour>
      <contour>
        <pt x="727" y="289" on="1"/>
        <pt x="727" y="301" on="0"/>
        <pt x="707" y="324" on="0"/>
        <pt x="659" y="324" on="0"/>
        <pt x="600" y="292" on="1"/>
        <pt x="652" y="253" on="0"/>
        <pt x="727" y="253" on="0"/>
      </contour>
      <contour>
        <pt x="480" y="547" on="0"/>
        <pt x="494" y="570" on="0"/>
        <pt x="494" y="607" on="0"/>
        <pt x="479" y="620" on="1"/>
        <pt x="447" y="601" on="0"/>
        <pt x="447" y="571" on="1"/>
        <pt x="447" y="560" on="0"/>
        <pt x="461" y="547" on="0"/>
      </contour>
    </TTGlyph>
    <TTGlyph name="aring" xMin="29" yMin="-12" xMax="546" yMax="737">
      <contour>
        <pt x="279" y="516" on="0"/>
        <pt x="217" y="579" on="0"/>
        <pt x="217" y="676" on="0"/>
        <pt x="279" y="737" on="0"/>
        <pt x="395" y="737" on="0"/>
        <pt x="457" y="676" on="0"/>
        <pt x="457" y="579" on="0"/>
        <pt x="395" y="516" on="0"/>
      </contour>
      <contour>
        <pt x="292" y="646" on="0"/>
        <pt x="292" y="608" on="0"/>
        <pt x="316" y="584" on="0"/>
        <pt x="337" y="584" on="1"/>
        <pt x="378" y="584" on="0"/>
        <pt x="378" y="670" on="0"/>
        <pt x="337" y="670" on="1"/>
        <pt x="316" y="670" on="0"/>
      </contour>
      <contour>
        <pt x="497" y="340" on="0"/>
        <pt x="467" y="161" on="0"/>
        <pt x="467" y="90" on="0"/>
        <pt x="478" y="90" on="1"/>
        <pt x="528" y="104" on="1"/>
        <pt x="546" y="54" on="1"/>
        <pt x="514" y="29" on="0"/>
        <pt x="415" y="-12" on="0"/>
        <pt x="377" y="-12" on="1"/>
        <pt x="312" y="-12" on="0"/>
        <pt x="295" y="44" on="1"/>
        <pt x="216" y="-12" on="0"/>
        <pt x="95" y="-12" on="0"/>
        <pt x="29" y="76" on="0"/>
        <pt x="29" y="158" on="1"/>
        <pt x="29" y="271" on="0"/>
        <pt x="145" y="443" on="0"/>
        <pt x="240" y="443" on="1"/>
        <pt x="292" y="443" on="0"/>
        <pt x="346" y="414" on="1"/>
        <pt x="354" y="432" on="0"/>
        <pt x="359" y="440" on="1"/>
        <pt x="431" y="440" on="0"/>
        <pt x="518" y="405" on="1"/>
      </contour>
      <contour>
        <pt x="217" y="120" on="0"/>
        <pt x="231" y="94" on="0"/>
        <pt x="269" y="94" on="0"/>
        <pt x="287" y="109" on="1"/>
        <pt x="291" y="225" on="0"/>
        <pt x="325" y="352" on="1"/>
        <pt x="310" y="361" on="0"/>
        <pt x="271" y="361" on="0"/>
        <pt x="240" y="317" on="0"/>
        <pt x="232" y="284" on="1"/>
        <pt x="217" y="221" on="0"/>
      </contour>
    </TTGlyph>
    <TTGlyph name="asciicircum" xMin="18" yMin="284" xMax="453" yMax="674">
      <contour>
        <pt x="453" y="291" on="1"/>
        <pt x="429" y="284" on="0"/>
        <pt x="362" y="284" on="0"/>
        <pt x="322" y="288" on="1"/>
        <pt x="237" y="523" on="1"/>
        <pt x="149" y="288" on="1"/>
        <pt x="109" y="284" on="0"/>
        <pt x="75" y="284" on="1"/>
        <pt x="18" y="288" on="1"/>
        <pt x="175" y="642" on="0"/>
        <pt x="190" y="674" on="1"/>
        <pt x="285" y="674" on="1"/>
        <pt x="307" y="623" on="0"/>
        <pt x="338" y="550" on="1"/>
        <pt x="404" y="397" on="0"/>
      </contour>
    </TTGlyph>
    <TTGlyph name="asciitilde" xMin="44" yMin="211" xMax="513" yMax="382">
      <contour>
        <pt x="384" y="224" on="1"/>
        <pt x="360" y="224" on="0"/>
        <pt x="191" y="251" on="0"/>
        <pt x="142" y="251" on="0"/>
        <pt x="111" y="235" on="0"/>
        <pt x="95" y="211" on="1"/>
        <pt x="44" y="224" on="1"/>
        <pt x="60" y="376" on="0"/>
        <pt x="181" y="376" on="1"/>
        <pt x="206" y="376" on="0"/>
        <pt x="371" y="349" on="0"/>
        <pt x="442" y="349" on="0"/>
        <pt x="465" y="382" on="1"/>
        <pt x="513" y="370" on="1"/>
        <pt x="497" y="224" on="0"/>
      </contour>
    </TTGlyph>
    <TTGlyph name="asterisk" xMin="35" yMin="320" xMax="441" yMax="736">
      <contour>
        <pt x="319" y="471" on="1"/>
        <pt x="324" y="469" on="0"/>
        <pt x="354" y="469" on="0"/>
        <pt x="385" y="478" on="1"/>
        <pt x="399" y="471" on="0"/>
        <pt x="419" y="426" on="0"/>
        <pt x="419" y="396" on="0"/>
        <pt x="418" y="392" on="1"/>
        <pt x="389" y="360" on="0"/>
        <pt x="347" y="360" on="1"/>
        <pt x="335" y="360" on="0"/>
        <pt x="326" y="363" on="1"/>
        <pt x="310" y="371" on="0"/>
        <pt x="263" y="450" on="0"/>
        <pt x="249" y="491" on="1"/>
        <pt x="221" y="451" on="0"/>
        <pt x="221" y="436" on="1"/>
        <pt x="221" y="408" on="0"/>
        <pt x="238" y="378" on="1"/>
        <pt x="243" y="368" on="1"/>
        <pt x="231" y="350" on="0"/>
        <pt x="183" y="320" on="0"/>
        <pt x="163" y="320" on="1"/>
        <pt x="145" y="331" on="0"/>
        <pt x="117" y="373" on="0"/>
        <pt x="117" y="417" on="0"/>
        <pt x="177" y="490" on="0"/>
        <pt x="213" y="517" on="1"/>
        <pt x="187" y="525" on="0"/>
        <pt x="163" y="525" on="0"/>
        <pt x="154" y="523" on="1"/>
        <pt x="136" y="519" on="0"/>
        <pt x="112" y="495" on="1"/>
        <pt x="104" y="487" on="1"/>
        <pt x="85" y="490" on="0"/>
        <pt x="37" y="526" on="0"/>
        <pt x="35" y="548" on="1"/>
        <pt x="39" y="571" on="0"/>
        <pt x="81" y="614" on="0"/>
        <pt x="119" y="614" on="0"/>
        <pt x="199" y="574" on="0"/>
        <pt x="229" y="549" on="1"/>
        <pt x="227" y="595" on="0"/>
        <pt x="217" y="611" on="1"/>
        <pt x="209" y="630" on="0"/>
        <pt x="178" y="649" on="1"/>
        <pt x="168" y="655" on="1"/>
        <pt x="168" y="682" on="0"/>
        <pt x="192" y="730" on="0"/>
        <pt x="208" y="736" on="1"/>
        <pt x="234" y="736" on="0"/>
        <pt x="283" y="710" on="0"/>
        <pt x="290" y="692" on="1"/>
        <pt x="292" y="682" on="0"/>
        <pt x="292" y="671" on="1"/>
        <pt x="292" y="604" on="0"/>
        <pt x="272" y="547" on="1"/>
        <pt x="312" y="568" on="0"/>
        <pt x="320" y="578" on="1"/>
        <pt x="334" y="599" on="0"/>
        <pt x="338" y="631" on="1"/>
        <pt x="340" y="642" on="1"/>
        <pt x="366" y="649" on="0"/>
        <pt x="419" y="649" on="0"/>
        <pt x="432" y="636" on="1"/>
        <pt x="441" y="614" on="0"/>
        <pt x="441" y="562" on="0"/>
        <pt x="412" y="533" on="0"/>
        <pt x="325" y="508" on="0"/>
        <pt x="285" y="505" on="1"/>
        <pt x="305" y="477" on="0"/>
      </contour>
    </TTGlyph>
    <TTGlyph name="at" xMin="45" yMin="-23" xMax="820" yMax="715">
      <contour>
        <pt x="548" y="8" on="1"/>
        <pt x="465" y="-23" on="0"/>
        <pt x="307" y="-23" on="0"/>
        <pt x="171" y="32" on="0"/>
        <pt x="130" y="78" on="1"/>
        <pt x="45" y="173" on="0"/>
        <pt x="45" y="304" on="1"/>
        <pt x="45" y="385" on="0"/>
        <pt x="107" y="534" on="0"/>
        <pt x="217" y="648" on="0"/>
        <pt x="383" y="715" on="0"/>
        <pt x="480" y="715" on="1"/>
        <pt x="635" y="715" on="0"/>
        <pt x="820" y="557" on="0"/>
        <pt x="820" y="434" on="1"/>
        <pt x="820" y="363" on="0"/>
        <pt x="763" y="247" on="0"/>
        <pt x="722" y="214" on="1"/>
        <pt x="638" y="148" on="0"/>
        <pt x="575" y="148" on="1"/>
        <pt x="527" y="148" on="0"/>
        <pt x="502" y="193" on="1"/>
        <pt x="437" y="148" on="0"/>
        <pt x="339" y="148" on="0"/>
        <pt x="260" y="225" on="0"/>
        <pt x="260" y="311" on="1"/>
        <pt x="260" y="422" on="0"/>
        <pt x="374" y="555" on="0"/>
        <pt x="469" y="555" on="1"/>
        <pt x="534" y="555" on="0"/>
        <pt x="633" y="518" on="1"/>
        <pt x="605" y="398" on="0"/>
        <pt x="605" y="251" on="1"/>
        <pt x="605" y="226" on="0"/>
        <pt x="614" y="226" on="1"/>
        <pt x="626" y="226" on="0"/>
        <pt x="666" y="266" on="0"/>
        <pt x="703" y="365" on="0"/>
        <pt x="703" y="472" on="0"/>
        <pt x="679" y="547" on="0"/>
        <pt x="654" y="579" on="1"/>
        <pt x="602" y="647" on="0"/>
        <pt x="483" y="647" on="1"/>
        <pt x="413" y="647" on="0"/>
        <pt x="297" y="591" on="0"/>
        <pt x="260" y="544" on="1"/>
        <pt x="183" y="448" on="0"/>
        <pt x="183" y="206" on="0"/>
        <pt x="296" y="50" on="0"/>
        <pt x="401" y="50" on="1"/>
        <pt x="464" y="50" on="0"/>
        <pt x="518" y="76" on="1"/>
        <pt x="538" y="48" on="0"/>
        <pt x="546" y="18" on="1"/>
      </contour>
      <contour>
        <pt x="428" y="232" on="1"/>
        <pt x="439" y="232" on="0"/>
        <pt x="468" y="251" on="0"/>
        <pt x="474" y="261" on="1"/>
        <pt x="485" y="420" on="0"/>
        <pt x="500" y="481" on="1"/>
        <pt x="488" y="489" on="0"/>
        <pt x="473" y="489" on="1"/>
        <pt x="438" y="489" on="0"/>
        <pt x="401" y="395" on="0"/>
        <pt x="401" y="232" on="0"/>
      </contour>
    </TTGlyph>
    <TTGlyph name="atilde" xMin="29" yMin="-12" xMax="551" yMax="683">
      <contour>
        <pt x="441" y="528" on="1"/>
        <pt x="420" y="528" on="0"/>
        <pt x="288" y="560" on="0"/>
        <pt x="245" y="560" on="0"/>
        <pt x="217" y="541" on="0"/>
        <pt x="203" y="515" on="1"/>
        <pt x="151" y="527" on="1"/>
        <pt x="165" y="678" on="0"/>
        <pt x="267" y="678" on="1"/>
        <pt x="289" y="678" on="0"/>
        <pt x="420" y="646" on="0"/>
        <pt x="466" y="646" on="0"/>
        <pt x="489" y="661" on="0"/>
        <pt x="501" y="683" on="1"/>
        <pt x="551" y="673" on="1"/>
        <pt x="537" y="528" on="0"/>
      </contour>
      <contour>
        <pt x="497" y="340" on="0"/>
        <pt x="467" y="161" on="0"/>
        <pt x="467" y="90" on="0"/>
        <pt x="478" y="90" on="1"/>
        <pt x="528" y="104" on="1"/>
        <pt x="546" y="54" on="1"/>
        <pt x="514" y="29" on="0"/>
        <pt x="415" y="-12" on="0"/>
        <pt x="377" y="-12" on="1"/>
        <pt x="312" y="-12" on="0"/>
        <pt x="295" y="44" on="1"/>
        <pt x="216" y="-12" on="0"/>
        <pt x="95" y="-12" on="0"/>
        <pt x="29" y="76" on="0"/>
        <pt x="29" y="158" on="1"/>
        <pt x="29" y="271" on="0"/>
        <pt x="145" y="443" on="0"/>
        <pt x="240" y="443" on="1"/>
        <pt x="292" y="443" on="0"/>
        <pt x="346" y="414" on="1"/>
        <pt x="354" y="432" on="0"/>
        <pt x="359" y="440" on="1"/>
        <pt x="431" y="440" on="0"/>
        <pt x="518" y="405" on="1"/>
      </contour>
      <contour>
        <pt x="217" y="120" on="0"/>
        <pt x="231" y="94" on="0"/>
        <pt x="269" y="94" on="0"/>
        <pt x="287" y="109" on="1"/>
        <pt x="291" y="225" on="0"/>
        <pt x="325" y="352" on="1"/>
        <pt x="310" y="361" on="0"/>
        <pt x="271" y="361" on="0"/>
        <pt x="240" y="317" on="0"/>
        <pt x="232" y="284" on="1"/>
        <pt x="217" y="221" on="0"/>
      </contour>
    </TTGlyph>
    <TTGlyph name="b" xMin="25" yMin="-12" xMax="508" yMax="734">
      <contour>
        <pt x="327" y="692" on="1"/>
        <pt x="327" y="619" on="0"/>
        <pt x="278" y="408" on="1"/>
        <pt x="336" y="443" on="0"/>
        <pt x="434" y="443" on="0"/>
        <pt x="508" y="361" on="0"/>
        <pt x="508" y="144" on="0"/>
        <pt x="389" y="-12" on="0"/>
        <pt x="302" y="-12" on="1"/>
        <pt x="250" y="-12" on="0"/>
        <pt x="199" y="16" on="1"/>
        <pt x="99" y="-8" on="0"/>
        <pt x="30" y="-8" on="1"/>
        <pt x="25" y="-5" on="0"/>
        <pt x="25" y="26" on="1"/>
        <pt x="25" y="99" on="0"/>
        <pt x="142" y="579" on="0"/>
        <pt x="142" y="665" on="1"/>
        <pt x="142" y="687" on="0"/>
        <pt x="140" y="707" on="1"/>
        <pt x="237" y="734" on="0"/>
        <pt x="321" y="734" on="1"/>
        <pt x="327" y="724" on="0"/>
      </contour>
      <contour>
        <pt x="296" y="343" on="1"/>
        <pt x="282" y="343" on="0"/>
        <pt x="260" y="332" on="1"/>
        <pt x="217" y="147" on="0"/>
        <pt x="210" y="83" on="1"/>
        <pt x="228" y="74" on="0"/>
        <pt x="243" y="74" on="1"/>
        <pt x="277" y="74" on="0"/>
        <pt x="320" y="220" on="0"/>
        <pt x="320" y="343" on="0"/>
      </contour>
    </TTGlyph>
    <TTGlyph name="backslash" xMin="9" yMin="-112" xMax="413" yMax="747">
      <contour>
        <pt x="9" y="710" on="1"/>
        <pt x="51" y="737" on="0"/>
        <pt x="92" y="747" on="1"/>
        <pt x="265" y="313" on="0"/>
        <pt x="413" y="-78" on="1"/>
        <pt x="379" y="-112" on="0"/>
        <pt x="329" y="-112" on="1"/>
        <pt x="158" y="343" on="0"/>
      </contour>
    </TTGlyph>
    <TTGlyph name="bar" xMin="109" yMin="-149" xMax="204" yMax="796">
      <contour>
        <pt x="204" y="796" on="1"/>
        <pt x="204" y="-143" on="1"/>
        <pt x="160" y="-149" on="0"/>
        <pt x="109" y="-149" on="1"/>
        <pt x="109" y="791" on="1"/>
        <pt x="172" y="796" on="0"/>
      </contour>
    </TTGlyph>
    <TTGlyph name="braceleft" xMin="78" yMin="-224" xMax="487" yMax="735">
      <contour>
        <pt x="222" y="390" on="1"/>
        <pt x="219" y="596" on="1"/>
        <pt x="219" y="661" on="0"/>
        <pt x="295" y="735" on="0"/>
        <pt x="422" y="735" on="0"/>
        <pt x="487" y="708" on="1"/>
        <pt x="479" y="658" on="1"/>
        <pt x="475" y="658" on="0"/>
        <pt x="471" y="658" on="1"/>
        <pt x="412" y="658" on="0"/>
        <pt x="388" y="630" on="0"/>
        <pt x="372" y="514" on="0"/>
        <pt x="359" y="352" on="0"/>
        <pt x="355" y="325" on="1"/>
        <pt x="348" y="273" on="0"/>
        <pt x="286" y="251" on="1"/>
        <pt x="309" y="243" on="0"/>
        <pt x="336" y="203" on="0"/>
        <pt x="336" y="142" on="0"/>
        <pt x="300" y="-84" on="0"/>
        <pt x="300" y="-124" on="0"/>
        <pt x="303" y="-131" on="1"/>
        <pt x="308" y="-145" on="0"/>
        <pt x="346" y="-164" on="0"/>
        <pt x="363" y="-166" on="1"/>
        <pt x="380" y="-169" on="1"/>
        <pt x="374" y="-219" on="1"/>
        <pt x="345" y="-224" on="0"/>
        <pt x="307" y="-224" on="1"/>
        <pt x="130" y="-224" on="0"/>
        <pt x="130" y="-112" on="1"/>
        <pt x="130" y="-76" on="0"/>
        <pt x="199" y="161" on="0"/>
        <pt x="207" y="206" on="1"/>
        <pt x="197" y="218" on="0"/>
        <pt x="108" y="226" on="1"/>
        <pt x="78" y="228" on="1"/>
        <pt x="79" y="275" on="0"/>
        <pt x="88" y="313" on="1"/>
        <pt x="174" y="299" on="0"/>
        <pt x="207" y="299" on="1"/>
        <pt x="218" y="300" on="1"/>
        <pt x="222" y="337" on="0"/>
      </contour>
    </TTGlyph>
</ttFont>
